<svg xmlns="http://www.w3.org/2000/svg" height="1372" viewBox="0 0 1550 1372" xmlns:ev="http://www.w3.org/2001/xml-events" xmlns:xlink="http://www.w3.org/1999/xlink" width="1550"><style type="text/css"><![CDATA[
.st1 {fill:#191919;font-family:Georgia;font-size:10pt}
.st2 {fill:#191919;font-family:Georgia;font-size:13pt;font-weight:bold}
.st4 {fill:#c00000;font-family:Georgia;font-size:10pt}
.st3 {font-family:Arial;font-size:10pt}
.st6 {font-family:Arial;font-size:12pt}
.st5 {font-family:Georgia;font-size:10pt}
]]></style><defs/><g transform="translate(5,5)" id="page1"><rect x="0" height="1362" width="1540" stroke="#808080" y="0" fill="#ffffff"/><path d="M496.5,270.1L496.5,0L0,0L0,270.1L496.5,270.1z" fill-rule="evenodd" transform="translate(198.02,890.5)" id="shape1" stroke="#323232" fill="#b4b4b4"/><path d="M723,322L723,0L0,0L0,322L723,322z" fill-rule="evenodd" transform="translate(779.52,890.5)" id="shape2" stroke="#323232" fill="#b4b4b4"/><g transform="translate(904.27,921.5)" id="shape3"><path d="M85,24.5L85,0L0,0L0,24.5L85,24.5z" fill-rule="evenodd" stroke="#323232" fill="#ffffff"/><text class="st1"><tspan x="5" y="16.5">stable_node</tspan></text></g><g transform="translate(1014.38,1000)" id="shape4"><path d="M95,32L95,0L0,0L0,32L95,32z" fill-rule="evenodd" stroke="#323232" fill="#ffffff"/><text class="st1"><tspan x="10" y="20">stable_node</tspan></text></g><g transform="translate(807.52,1000)" id="shape5"><path d="M95,32L95,0L0,0L0,32L95,32z" fill-rule="evenodd" stroke="#323232" fill="#e297b5"/><text class="st1"><tspan x="10" y="20">stable_node</tspan></text></g><g transform="translate(1099.38,1074)" id="shape6"><path d="M95,25.5L95,0L0,0L0,25.5L95,25.5z" fill-rule="evenodd" stroke="#323232" fill="#ffffff"/><text class="st1"><tspan x="10" y="16.8">stable_node</tspan></text></g><g transform="translate(854.52,1069.5)" id="shape7"><path d="M95,32L95,0L0,0L0,32L95,32z" fill-rule="evenodd" stroke="#323232" fill="#ffffff"/><text class="st1"><tspan x="10" y="20">stable_node</tspan></text></g><g transform="translate(946.77,946)" id="shape8"><path d="M0,0L-88,51.8" stroke="#323232" fill="none"/><path d="M-91.8,54L-85.8,53.9L-85.8,53.9C-86.6,53.4,-87.4,52.7,-88,51.8C-88.5,50.8,-88.8,49.8,-88.8,48.8L-91.8,54" stroke-linecap="round" stroke="#323232" stroke-width="1" fill="#323232"/></g><g transform="translate(946.77,946)" id="shape9"><path d="M0,0L111.1,52.1" stroke="#323232" fill="none"/><path d="M115.1,54L111.7,49.1L111.7,49.1C111.8,50.1,111.6,51.1,111.1,52.1C110.7,53.1,110,53.9,109.1,54.5L115.1,54" stroke-linecap="round" stroke="#323232" stroke-width="1" fill="#323232"/></g><g transform="translate(855.02,1032)" id="shape10"><path d="M0,0L43.6,34.8" stroke="#323232" fill="none"/><path d="M47,37.5L44.8,31.9L44.8,31.9C44.7,32.9,44.2,33.9,43.6,34.8C42.9,35.6,42,36.2,41.1,36.6L47,37.5" stroke-linecap="round" stroke="#323232" stroke-width="1" fill="#323232"/></g><g transform="translate(1061.88,1032)" id="shape11"><path d="M0,0L81.1,40.1" stroke="#323232" fill="none"/><path d="M85,42L81.7,37L81.7,37C81.7,38,81.5,39.1,81.1,40.1C80.6,41,79.9,41.8,79,42.4L85,42" stroke-linecap="round" stroke="#323232" stroke-width="1" fill="#323232"/></g><g transform="translate(981.95,1069.5)" id="shape12"><path d="M95,32L95,0L0,0L0,32L95,32z" fill-rule="evenodd" stroke="#323232" fill="#ffffff"/><text class="st1"><tspan x="10" y="20">stable_node</tspan></text></g><g transform="translate(1061.88,1032)" id="shape13"><path d="M0,0L-29.6,34.2" stroke="#323232" fill="none"/><path d="M-32.4,37.5L-26.8,35.5L-26.8,35.5C-27.8,35.3,-28.7,34.9,-29.6,34.2C-30.4,33.5,-31,32.6,-31.3,31.6L-32.4,37.5" stroke-linecap="round" stroke="#323232" stroke-width="1" fill="#323232"/></g><g transform="translate(359.02,912.5)" id="shape14"><path d="M77.1,35L77.1,0L0,0L0,35L77.1,35z" fill-rule="evenodd" stroke="#323232" fill="#ffffff"/><text class="st1"><tspan x="23.1" y="22">node</tspan></text></g><g transform="translate(491.86,987)" id="shape15"><path d="M77.1,35L77.1,0L0,0L0,35L77.1,35z" fill-rule="evenodd" stroke="#323232" fill="#ffffff"/><text class="st1"><tspan x="23.1" y="22">node</tspan></text></g><g transform="translate(302.02,987)" id="shape16"><path d="M77.1,35L77.1,0L0,0L0,35L77.1,35z" fill-rule="evenodd" stroke="#323232" fill="#ffffff"/><text class="st1"><tspan x="23.1" y="22">node</tspan></text></g><g transform="translate(593.88,1079.5)" id="shape17"><path d="M77.1,35L77.1,0L0,0L0,35L77.1,35z" fill-rule="evenodd" stroke="#323232" fill="#ffffff"/><text class="st1"><tspan x="23.1" y="22">node</tspan></text></g><g transform="translate(211.88,1075.5)" id="shape18"><path d="M102.6,39L102.6,0L0,0L0,39L102.6,39z" fill-rule="evenodd" stroke="#323232" fill="#e297b5"/><text class="st1"><tspan x="36.3" y="15.5">node</tspan><tspan x="12.3" y="31.5">(rmap_item)</tspan></text></g><g transform="translate(397.59,947.5)" id="shape19"><path d="M0,0L-53.4,37" stroke="#323232" fill="none"/><path d="M-57,39.5L-51,39L-51,39C-51.9,38.6,-52.8,37.9,-53.4,37C-54,36.1,-54.4,35.1,-54.4,34.1L-57,39.5" stroke-linecap="round" stroke="#323232" stroke-width="1" fill="#323232"/></g><g transform="translate(397.59,947.5)" id="shape20"><path d="M0,0L128.6,38.2" stroke="#323232" fill="none"/><path d="M132.8,39.5L128.7,35.1L128.7,35.1C129,36.1,128.9,37.2,128.6,38.2C128.3,39.3,127.7,40.2,127,40.9L132.8,39.5" stroke-linecap="round" stroke="#323232" stroke-width="1" fill="#323232"/></g><g transform="translate(340.59,1022)" id="shape21"><path d="M0,0L-73.8,51" stroke="#323232" fill="none"/><path d="M-77.4,53.5L-71.4,53L-71.4,53C-72.3,52.6,-73.2,51.9,-73.8,51C-74.4,50.1,-74.8,49.1,-74.8,48.1L-77.4,53.5" stroke-linecap="round" stroke="#323232" stroke-width="1" fill="#323232"/></g><g transform="translate(530.43,1022)" id="shape22"><path d="M0,0L98.2,55.3" stroke="#323232" fill="none"/><path d="M102,57.5L99,52.3L99,52.3C99,53.4,98.7,54.4,98.2,55.3C97.7,56.3,96.9,57,96,57.6L102,57.5" stroke-linecap="round" stroke="#323232" stroke-width="1" fill="#323232"/></g><g transform="translate(344.52,1079.5)" id="shape23"><path d="M77.1,35L77.1,0L0,0L0,35L77.1,35z" fill-rule="evenodd" stroke="#323232" fill="#ffffff"/><text class="st1"><tspan x="23.1" y="22">node</tspan></text></g><g transform="translate(340.59,1022)" id="shape24"><path d="M0,0L39.9,54" stroke="#323232" fill="none"/><path d="M42.5,57.5L41.8,51.5L41.8,51.5C41.4,52.5,40.8,53.3,39.9,54C39,54.6,38,55,37,55.1L42.5,57.5" stroke-linecap="round" stroke="#323232" stroke-width="1" fill="#323232"/></g><g transform="translate(798.52,899.5)" id="shape25"><text class="st1"><tspan x="19" y="16.5">stable-tree</tspan><tspan x="33" y="34.5">写保护</tspan><tspan x="39" y="52.5">有序</tspan></text></g><g transform="translate(509.83,879)" id="shape26"><text class="st1"><tspan x="57" y="29">unstable-tree</tspan><tspan x="85" y="47">有序</tspan><tspan x="79" y="63">nid = i</tspan><tspan x="20" y="81">(每个MUMA节点一个tree)</tspan></text></g><path d="M77.1,198L77.1,0L0,0L0,198L77.1,198z" fill-rule="evenodd" transform="translate(406.52,183)" id="shape27" stroke="#323232" fill="#ffffff"/><g transform="translate(406.52,204)" id="shape28"><path d="M77.1,25.5L77.1,0L0,0L0,25.5L77.1,25.5z" fill-rule="evenodd" stroke="#323232" fill="#ffffff"/><text class="st1"><tspan x="27.1" y="17">link</tspan></text></g><g transform="translate(654.27,240)" id="shape29"><path d="M77.1,40L77.1,0L0,0L0,40L77.1,40z" fill-rule="evenodd" stroke="#323232" fill="#ffffff"/><text class="st1"><tspan x="11.1" y="24">mm_slot</tspan></text></g><g transform="translate(563.7,206)" id="shape30"><text class="st2"><tspan x="17.2" y="23.3">mm_slot hash list</tspan></text></g><g transform="translate(751.02,242.45)" id="shape31"><path d="M77.1,36.5L77.1,0L0,0L0,36.5L77.1,36.5z" fill-rule="evenodd" stroke="#323232" fill="#ffffff"/><text class="st1"><tspan x="11.1" y="22.3">mm_slot</tspan></text></g><g transform="translate(847.77,242.45)" id="shape32"><path d="M77.1,36.5L77.1,0L0,0L0,36.5L77.1,36.5z" fill-rule="evenodd" stroke="#323232" fill="#ffffff"/><text class="st1"><tspan x="11.1" y="22.3">mm_slot</tspan></text></g><g transform="translate(731.41,259.98)" id="shape33"><path d="M0,0L15.2,.6" stroke="#323232" fill="none"/><path d="M19.6,.7L14.5,-2.5L14.5,-2.5C15,-1.6,15.3,-0.5,15.2,.6C15.2,1.7,14.8,2.7,14.3,3.5L19.6,.7" stroke-linecap="round" stroke="#323232" stroke-width="1" fill="#323232"/></g><g transform="translate(828.16,260.7)" id="shape34"><path d="M0,0L15.2,0" stroke="#323232" fill="none"/><path d="M19.6,0L14.4,-3L14.4,-3C14.9,-2.1,15.2,-1.1,15.2,0C15.2,1.1,14.9,2.1,14.4,3L19.6,0" stroke-linecap="round" stroke="#323232" stroke-width="1" fill="#323232"/></g><g transform="translate(944.52,242.45)" id="shape35"><path d="M77.1,36.5L77.1,0L0,0L0,36.5L77.1,36.5z" fill-rule="evenodd" stroke="#323232" fill="#ffffff"/><text class="st1"><tspan x="11.1" y="22.3">mm_slot</tspan></text></g><g transform="translate(924.91,260.7)" id="shape36"><path d="M0,0L15.2,0" stroke="#323232" fill="none"/><path d="M19.6,0L14.4,-3L14.4,-3C14.9,-2.1,15.2,-1.1,15.2,0C15.2,1.1,14.9,2.1,14.4,3L19.6,0" stroke-linecap="round" stroke="#323232" stroke-width="1" fill="#323232"/></g><g transform="translate(406.52,249)" id="shape37"><path d="M77.1,25.5L77.1,0L0,0L0,25.5L77.1,25.5z" fill-rule="evenodd" stroke="#323232" fill="#ffffff"/><text class="st1"><tspan x="13.1" y="17">mm_list</tspan></text></g><g transform="translate(331.52,77.88)" id="shape38"><path d="M78.4,35L78.4,0L0,0L0,35L78.4,35z" fill-rule="evenodd" stroke="#323232" fill="#ffffff"/><text class="st1"><tspan x="12.2" y="21.5">mm_slot</tspan></text></g><g transform="translate(428.27,77.88)" id="shape39"><path d="M78.4,35L78.4,0L0,0L0,35L78.4,35z" fill-rule="evenodd" stroke="#323232" fill="#ffffff"/><text class="st1"><tspan x="12.2" y="21.5">mm_slot</tspan></text></g><g transform="translate(525.02,76.38)" id="shape40"><path d="M78.4,36.5L78.4,0L0,0L0,36.5L78.4,36.5z" fill-rule="evenodd" stroke="#323232" fill="#ffffff"/><text class="st1"><tspan x="12.2" y="22.3">mm_slot</tspan></text></g><g transform="translate(409.97,95.38)" id="shape41"><path d="M0,0L13.9,0" stroke="#323232" fill="none"/><path d="M18.3,0L13.1,-3L13.1,-3C13.6,-2.1,13.9,-1.1,13.9,0C13.9,1.1,13.6,2.1,13.1,3L18.3,0" stroke-linecap="round" stroke="#323232" stroke-width="1" fill="#323232"/></g><g transform="translate(506.72,95.38)" id="shape42"><path d="M0,0L13.9,-0.6" stroke="#323232" fill="none"/><path d="M18.3,-0.8L13,-3.5L13,-3.5C13.5,-2.7,13.9,-1.7,13.9,-0.6C14,.5,13.7,1.6,13.2,2.5L18.3,-0.8" stroke-linecap="round" stroke="#323232" stroke-width="1" fill="#323232"/></g><g transform="translate(621.77,76.38)" id="shape43"><path d="M78.4,36.5L78.4,0L0,0L0,36.5L78.4,36.5z" fill-rule="evenodd" stroke="#323232" fill="#ffffff"/><text class="st1"><tspan x="12.2" y="22.3">mm_slot</tspan></text></g><g transform="translate(603.47,94.63)" id="shape44"><path d="M0,0L13.9,0" stroke="#323232" fill="none"/><path d="M18.3,0L13.1,-3L13.1,-3C13.6,-2.1,13.9,-1.1,13.9,0C13.9,1.1,13.6,2.1,13.1,3L18.3,0" stroke-linecap="round" stroke="#323232" stroke-width="1" fill="#323232"/></g><g transform="translate(406.52,294)" id="shape45"><path d="M77.1,25.5L77.1,0L0,0L0,25.5L77.1,25.5z" fill-rule="evenodd" stroke="#323232" fill="#ffffff"/><text class="st1"><tspan x="9.1" y="17">rmap_list</tspan></text></g><g transform="translate(406.52,339)" id="shape46"><path d="M77.1,25.5L77.1,0L0,0L0,25.5L77.1,25.5z" fill-rule="evenodd" stroke="#323232" fill="#a0d8ef"/><text class="st1"><tspan x="27.1" y="17">mm</tspan></text></g><g transform="translate(483.66,216.75)" id="shape47"><path d="M0,0C18.8,17.9,37.6,35.8,58.1,43C78.6,50.2,100.7,46.7,119.8,44.9C137.4,43.3,152.4,43.2,167.2,43.2" stroke="#323232" fill="none"/><path d="M170.6,43.2L165.4,40.2L165.4,40.2C165.9,41.1,166.2,42.1,166.2,43.2C166.2,44.3,165.9,45.3,165.4,46.2L170.6,43.2" stroke-linecap="round" stroke="#323232" stroke-width="1" fill="#323232"/></g><g transform="translate(406.52,261.75)" id="shape48"><path d="M0,0C-45.4,2.4,-90.7,4.8,-116.2,-19.8C-141.7,-44.4,-147.2,-96.1,-137,-125C-127.3,-152.7,-103,-159.6,-78.2,-165.6" stroke="#323232" fill="none"/><path d="M-75,-166.4L-80.8,-168.1L-80.8,-168.1C-80,-167.3,-79.5,-166.4,-79.3,-165.3C-79,-164.3,-79.1,-163.2,-79.3,-162.2L-75,-166.4" stroke-linecap="round" stroke="#323232" stroke-width="1" fill="#323232"/></g><path d="M77.1,198L77.1,0L0,0L0,198L77.1,198z" fill-rule="evenodd" transform="translate(406.52,485)" id="shape49" stroke="#323232" fill="#ffffff"/><g transform="translate(359.52,149.5)" id="shape50"><text class="st2"><tspan x="11.4" y="22.5">mm_slot</tspan></text></g><g transform="translate(406.52,506)" id="shape51"><path d="M77.1,25.5L77.1,0L0,0L0,25.5L77.1,25.5z" fill-rule="evenodd" stroke="#323232" fill="#ffffff"/><text class="st1"><tspan x="11.1" y="17">mm_slot</tspan></text></g><g transform="translate(406.52,551)" id="shape52"><path d="M77.1,25.5L77.1,0L0,0L0,25.5L77.1,25.5z" fill-rule="evenodd" stroke="#323232" fill="#888889"/><text class="st1"><tspan x="15.1" y="17">address</tspan></text></g><g transform="translate(406.52,596)" id="shape53"><path d="M77.1,25.5L77.1,0L0,0L0,25.5L77.1,25.5z" fill-rule="evenodd" stroke="#323232" fill="#ffffff"/><text class="st1"><tspan x="9.1" y="17">rmap_list</tspan></text></g><g transform="translate(406.52,641)" id="shape54"><path d="M77.1,25.5L77.1,0L0,0L0,25.5L77.1,25.5z" fill-rule="evenodd" stroke="#323232" fill="#ffffff"/><text class="st1"><tspan x="21.1" y="17">seqnr</tspan></text></g><g transform="translate(765.52,355.5)" id="shape55"><path d="M77.1,25.5L77.1,0L0,0L0,25.5L77.1,25.5z" fill-rule="evenodd" stroke="#323232" fill="#e297b5"/><text class="st1"><tspan x="4.1" y="17">rmap_item</tspan></text></g><g transform="translate(842.66,368.25)" id="shape56"><path d="M0,0L27.2,0" stroke="#323232" fill="none"/><path d="M31.6,0L26.4,-3L26.4,-3C26.9,-2.1,27.2,-1.1,27.2,0C27.2,1.1,26.9,2.1,26.4,3L31.6,0" stroke-linecap="round" stroke="#323232" stroke-width="1" fill="#323232"/></g><g transform="translate(483.66,306.75)" id="shape57"><path d="M0,0C31.4,19.4,62.8,38.8,92.9,46.3C122.9,53.7,151.7,49.2,182.9,49.7C213.1,50.3,245.5,55.5,278.1,60.9" stroke="#323232" fill="none"/><path d="M281.9,61.5L277.2,57.7L277.2,57.7C277.6,58.6,277.7,59.7,277.5,60.8C277.3,61.9,276.9,62.8,276.2,63.6L281.9,61.5" stroke-linecap="round" stroke="#323232" stroke-width="1" fill="#323232"/></g><g transform="translate(874.27,355.5)" id="shape58"><path d="M77.1,25.5L77.1,0L0,0L0,25.5L77.1,25.5z" fill-rule="evenodd" stroke="#323232" fill="#ffffff"/><text class="st1"><tspan x="4.1" y="17">rmap_item</tspan></text></g><g transform="translate(982.02,353.35)" id="shape59"><path d="M103,30.8L103,0L0,0L0,30.8L103,30.8z" fill-rule="evenodd" stroke="#323232" fill="#007947"/><text class="st1"><tspan x="9" y="20.4">rmap_item ①</tspan></text></g><g transform="translate(1107.77,355.5)" id="shape60"><path d="M77.1,25.5L77.1,0L0,0L0,25.5L77.1,25.5z" fill-rule="evenodd" stroke="#323232" fill="#ffffff"/><text class="st1"><tspan x="4.1" y="17">rmap_item</tspan></text></g><g transform="translate(951.41,368.25)" id="shape61"><path d="M0,0C3.8,0,7.5,0,10.7,.1C14,.2,16.6,.3,19.9,.4C22.1,.5,24.5,.5,27.1,.5" stroke="#323232" fill="none"/><path d="M30.6,.5L25.4,-2.5L25.4,-2.5C25.9,-1.6,26.2,-0.6,26.2,.5C26.2,1.6,25.9,2.6,25.4,3.5L30.6,.5" stroke-linecap="round" stroke="#323232" stroke-width="1" fill="#323232"/></g><g transform="translate(1085.02,368.75)" id="shape62"><path d="M0,0C2.8,-0,5.6,-0,8,-0.1C10.4,-0.2,12.4,-0.3,14.8,-0.4C16.4,-0.5,18.2,-0.5,20.1,-0.5" stroke="#323232" fill="none"/><path d="M22.7,-0.5L17.5,-3.5L17.5,-3.5C18.1,-2.6,18.4,-1.6,18.4,-0.5C18.4,.6,18.1,1.6,17.6,2.5L22.7,-0.5" stroke-linecap="round" stroke="#323232" stroke-width="1" fill="#323232"/></g><g transform="translate(483.66,608.75)" id="shape63"><path d="M0,0C86.2,.2,172.4,.3,244.1,-14.8C315.8,-29.8,372.9,-60.2,401.4,-98.2C429,-135.2,429.5,-179.5,429.2,-224" stroke-dasharray="2.5,2.5" stroke="#323232" fill="none"/><path d="M429.2,-227.8L426.2,-222.5L426.2,-222.5C427.1,-223.1,428.1,-223.4,429.2,-223.4C430.3,-223.4,431.3,-223.1,432.2,-222.6L429.2,-227.8" stroke-linecap="round" stroke="#323232" stroke-width="1" fill="#323232"/><rect x="341.3" height="18" width="168.6" y="-156.9" fill="#ffffff"/><text class="st3"><tspan x="341.2" y="-142.9">下一个将要扫描的rmap_item</tspan></text></g><g transform="translate(483.66,518.75)" id="shape64"><path d="M0,0L32,0L32,-105.8L0,-105.8L0,-133.4" stroke="#323232" fill="none"/><path d="M0,-137.8L-3,-132.6L-3,-132.6C-2.1,-133.1,-1.1,-133.4,0,-133.4C1.1,-133.4,2.1,-133.1,3,-132.6L0,-137.8" stroke-linecap="round" stroke="#323232" stroke-width="1" fill="#323232"/><rect x="-13.4" height="18" width="93" y="-76.8" fill="#ffffff"/><rect x="8.1" height="16" width="51.1" y="-58.8" fill="#ffffff"/><text class="st3"><tspan x="-13.5" y="-62.8">当前正在扫描的</tspan><tspan x="7.5" y="-46.8">mm_slot</tspan></text></g><path d="M197.3,284L197.3,0L0,0L0,284L197.3,284z" fill-rule="evenodd" transform="translate(1055.77,494)" id="shape65" stroke="#323232" fill="#ffffff"/><g transform="translate(1055.77,513)" id="shape66"><path d="M197.3,25.5L197.3,0L0,0L0,25.5L197.3,25.5z" fill-rule="evenodd" stroke="#323232" fill="#ffffff"/><text class="st1"><tspan x="69.2" y="17">rmap_list</tspan></text></g><path d="M0,0L70,109.8" stroke-dasharray="2,5" transform="translate(985.73,384.15)" id="shape67" stroke="#323232" fill="none"/><path d="M0,0L168.1,109.8" stroke-dasharray="2,5" transform="translate(1085.02,384.15)" id="shape68" stroke="#323232" fill="none"/><g transform="translate(995.68,463.2)" id="shape69"><text class="st2"><tspan x="9.4" y="20.4">rmap_item</tspan></text></g><g transform="translate(1055.77,557.5)" id="shape70"><path d="M197.3,25.5L197.3,0L0,0L0,25.5L197.3,25.5z" fill-rule="evenodd" stroke="#323232" fill="#ffffff"/><text class="st1"><tspan x="87.2" y="16.8">mm</tspan></text></g><g transform="translate(1055.77,602)" id="shape71"><path d="M197.3,25.5L197.3,0L0,0L0,25.5L197.3,25.5z" fill-rule="evenodd" stroke="#323232" fill="#888889"/><text class="st1"><tspan x="75.2" y="16.8">address</tspan></text></g><g transform="translate(1055.77,647)"><g id="shape72"><path d="M106.7,46.5L106.7,0L0,0L0,46.5L106.7,46.5z" fill-rule="evenodd" stroke="#323232" fill="#ffffff"/><text class="st1"><tspan x="43.4" y="19.5">nid</tspan><tspan x="22.4" y="35.5">(unstable)</tspan></text></g><g transform="translate(106.75,0)" id="shape73"><path d="M90.6,46.5L90.6,0L0,0L0,46.5L90.6,46.5z" fill-rule="evenodd" stroke="#323232" fill="#ffffff"/><text class="st1"><tspan x="12.3" y="19.5">anon_vma</tspan><tspan x="22.3" y="35.5">(stable)</tspan></text></g></g><g transform="translate(1055.77,713)"><g id="shape74"><path d="M106.7,46.5L106.7,0L0,0L0,46.5L106.7,46.5z" fill-rule="evenodd" stroke="#323232" fill="#ffffff"/><text class="st1"><tspan x="38.4" y="19.5">node</tspan><tspan x="5.4" y="35.5">(unstable node)</tspan></text></g><g transform="translate(106.75,0)" id="shape75"><path d="M90.6,46.5L90.6,0L0,0L0,46.5L90.6,46.5z" fill-rule="evenodd" stroke="#323232" fill="#ffffff"/><text class="st1"><tspan x="30.3" y="19.5">head</tspan><tspan x="5.3" y="35.5">(stable node)</tspan></text></g></g><g transform="translate(1253.09,736.25)" id="shape76"><path d="M0,0L230.4,0L230.4,350.5L-54.3,350.5" stroke="#323232" fill="none"/><path d="M-58.7,350.5L-53.5,353.5L-53.5,353.5C-54,352.6,-54.3,351.6,-54.3,350.5C-54.3,349.4,-54,348.4,-53.5,347.5L-58.7,350.5" stroke-linecap="round" stroke="#323232" stroke-width="1" fill="#323232"/></g><g transform="translate(1185.52,1130)" id="shape77"><path d="M78,25.5L78,0L0,0L0,25.5L78,25.5z" fill-rule="evenodd" stroke="#323232" fill="#ffffff"/><text class="st1"><tspan x="4.5" y="16.8">rmap_item</tspan></text></g><g transform="translate(1285.52,1127.46)" id="shape78"><path d="M97,32.6L97,0L0,0L0,32.6L97,32.6z" fill-rule="evenodd" stroke="#323232" fill="#007947"/><text class="st1"><tspan x="6.5" y="21.3">rmap_item ①</tspan></text></g><g transform="translate(1404.54,1131)" id="shape79"><path d="M78,25.5L78,0L0,0L0,25.5L78,25.5z" fill-rule="evenodd" stroke="#323232" fill="#ffffff"/><text class="st1"><tspan x="4.5" y="16.8">rmap_item</tspan></text></g><g transform="translate(1149.07,1099.5)" id="shape80"><path d="M0,0L71.4,28.9" stroke="#323232" fill="none"/><path d="M75.4,30.5L71.8,25.8L71.8,25.8C71.9,26.8,71.8,27.8,71.4,28.9C71,29.9,70.3,30.7,69.5,31.3L75.4,30.5" stroke-linecap="round" stroke="#323232" stroke-width="1" fill="#323232"/></g><g transform="translate(1263.5,1143.21)" id="shape81"><path d="M0,0L14,0L14,.5L17.6,.5" stroke="#323232" fill="none"/><path d="M22,.5L16.8,-2.5L16.8,-2.5C17.3,-1.6,17.6,-0.6,17.6,.5C17.6,1.6,17.3,2.7,16.8,3.5L22,.5" stroke-linecap="round" stroke="#323232" stroke-width="1" fill="#323232"/></g><g transform="translate(1382.52,1143.75)" id="shape82"><path d="M0,0L17.6,0" stroke="#323232" fill="none"/><path d="M22,0L16.8,-3L16.8,-3C17.3,-2.1,17.6,-1.1,17.6,0C17.6,1.1,17.3,2.1,16.8,3L22,0" stroke-linecap="round" stroke="#323232" stroke-width="1" fill="#323232"/></g><g transform="translate(1172.51,1098.75)" id="shape83"><text class="st1"><tspan x="12" y="20">hlist</tspan></text></g><g transform="translate(1055.77,736.25)" id="shape84"><path d="M0,0L-875.9,0L-875.9,358.8L-848.3,358.8" stroke="#323232" fill="none"/><path d="M-843.9,358.8L-849.1,355.8L-849.1,355.8C-848.6,356.6,-848.3,357.7,-848.3,358.8C-848.3,359.8,-848.6,360.9,-849.1,361.8L-843.9,358.8" stroke-linecap="round" stroke="#323232" stroke-width="1" fill="#323232"/></g><g transform="translate(235.36,39.63)" id="shape85"><path d="M226,34.5L226,0L0,0L0,34.5L226,34.5z" fill-rule="evenodd" fill="#bc8c1a"/><text class="st1"><tspan x="6.5" y="22.3">入口：ksm_mm_head mm_slot list</tspan></text></g><g transform="translate(1066.18,779)" id="shape86"><text class="st4"><tspan x="62.2" y="20.3">rmap_item:</tspan><tspan x="12.2" y="38.3">通过address 和 mm 找到vma</tspan><tspan x="11.2" y="56.3">结合 page（提供），可以找到</tspan><tspan x="51.2" y="74.3">vma中的页表项 </tspan></text></g><g transform="translate(235.36,431.8)" id="shape87"><path d="M226,49.5L226,0L0,0L0,49.5L226,49.5z" fill-rule="evenodd" fill="#bc8c1a"/><text class="st1"><tspan x="35.5" y="22">一次扫描过程中的状态保存</tspan><tspan x="82.5" y="38">ksm_scan</tspan></text></g><g transform="translate(211.88,374.5)" id="shape88"><path d="M62.6,25.5L62.6,0L0,0L0,25.5L62.6,25.5z" fill-rule="evenodd" stroke="#323232" fill="#a0d8ef"/><text class="st1"><tspan x="15.3" y="17">VMA</tspan></text></g><g transform="translate(300.67,374.5)" id="shape89"><path d="M62.6,25.5L62.6,0L0,0L0,25.5L62.6,25.5z" fill-rule="evenodd" stroke="#323232" fill="#a0d8ef"/><text class="st1"><tspan x="15.3" y="17">VMA</tspan></text></g><g transform="translate(300.67,387.25)" id="shape90"><path d="M0,0L-21.8,0" stroke="#323232" fill="none"/><path d="M-26.2,0L-21,3L-21,3C-21.5,2.1,-21.8,1.1,-21.8,0C-21.8,-1.1,-21.5,-2.1,-21,-3L-26.2,0" stroke-linecap="round" stroke="#323232" stroke-width="1" fill="#323232"/></g><g transform="translate(406.52,351.75)" id="shape91"><path d="M0,0L-74.5,0L-74.5,18.4" stroke="#323232" fill="none"/><path d="M-74.5,22.8L-71.5,17.6L-71.5,17.6C-72.4,18.1,-73.4,18.4,-74.5,18.4C-75.6,18.4,-76.6,18.1,-77.5,17.6L-74.5,22.8" stroke-linecap="round" stroke="#323232" stroke-width="1" fill="#323232"/><rect x="-86.4" height="16" width="55.2" y="-8" fill="#ffffff"/><text class="st5"><tspan x="-86.5" y="4">vma_list</tspan></text></g><g transform="translate(483.66,563.75)" id="shape92"><path d="M0,0C70.3,.8,140.6,1.7,200.8,9.8C261,17.8,311.1,33.2,371.3,41.2C431.5,49.3,501.8,50.2,572.1,51" stroke-dasharray="2.5,2.5" stroke="#6f6f6f" fill="none"/><rect x="340.2" height="18" width="93" y="34" fill="#ffffff"/><text class="st5"><tspan x="340.1" y="48">遍历的时候比较</tspan></text></g><path d="M131,170.8L131,0L0,0L0,170.8L131,170.8z" fill-rule="evenodd" transform="translate(40,450.7)" id="shape93" stroke="#323232" fill="#ffffff"/><g transform="translate(74.16,463.2)" id="shape94"><path d="M62.6,75.3L62.6,0L0,0L0,75.3L62.6,75.3z" fill-rule="evenodd" stroke="#323232" fill="#fde9d0"/><text class="st1"><tspan x="17.3" y="34">Page</tspan><tspan x="14.3" y="50">Table</tspan></text></g><g transform="translate(211.88,387.25)" id="shape95"><path d="M0,0C-21.4,-0.1,-42.7,-0.1,-60.5,4.9C-78.3,10,-92.5,20.1,-99.5,32.7C-106,44.5,-106.4,58.5,-106.4,72.6" stroke="#323232" fill="none"/><path d="M-106.4,75.9L-103.4,70.7L-103.4,70.7C-104.3,71.3,-105.3,71.6,-106.4,71.6C-107.5,71.6,-108.5,71.3,-109.4,70.8L-106.4,75.9" stroke-linecap="round" stroke="#323232" stroke-width="1" fill="#323232"/></g><g transform="translate(406.52,563.75)" id="shape96"><path d="M0,0C-26.6,-6.7,-53.1,-13.5,-91.6,-31.7C-130.2,-49.9,-180.6,-79.6,-211.3,-104.3C-240.1,-127.6,-251.4,-146.5,-261.6,-165.2" stroke="#323232" fill="none"/><path d="M-263.5,-168.7L-263.7,-162.7L-263.7,-162.7C-263.1,-163.6,-262.4,-164.4,-261.4,-164.9C-260.4,-165.4,-259.4,-165.6,-258.4,-165.6L-263.5,-168.7" stroke-linecap="round" stroke="#323232" stroke-width="1" fill="#323232"/></g><g transform="translate(93.82,597)" id="shape97"><path d="M77.1,24.5L77.1,0L0,0L0,24.5L77.1,24.5z" fill-rule="evenodd" stroke="#323232" fill="#2e8d5d"/><text class="st1"><tspan x="5.1" y="16.3">Anon-Page</tspan></text></g><g transform="translate(105.48,538.5)" id="shape98"><path d="M0,0C.4,7.2,.9,14.4,5.1,20.5C9.4,26.7,17.5,31.8,21.8,38C25.3,43,26.2,48.8,26.7,54.7" stroke="#323232" fill="none"/><path d="M26.9,58.5L29.6,53.1L29.6,53.1C28.7,53.7,27.7,54,26.6,54.1C25.5,54.2,24.5,54,23.6,53.5L26.9,58.5" stroke-linecap="round" stroke="#323232" stroke-width="1" fill="#323232"/></g><g transform="translate(132.4,621.5)" id="shape99"><path d="M0,0L0,699L769.6,699L769.6,484.4" stroke="#323232" fill="none"/><path d="M769.6,480L766.6,485.2L766.6,485.2C767.5,484.7,768.5,484.4,769.6,484.4C770.7,484.4,771.7,484.7,772.6,485.2L769.6,480" stroke-linecap="round" stroke="#323232" stroke-width="1" fill="#323232"/><rect x="-24.3" height="19" width="51.1" y="50.9" fill="#ffffff"/><rect x="-30.4" height="19" width="62.3" y="69.9" fill="#ffffff"/><text class="st6"><tspan x="-24.5" y="65.9">page-></tspan><tspan x="-30.5" y="84.9">mapping</tspan></text></g><g transform="translate(162.5,1175)" id="shape100"><text class="st4"><tspan x="4.5" y="18">树中unstable-node保存的是 rmap-item, </tspan><tspan x="4.5" y="36">给定当前的page和rmap_item, 寻找 unstable-tree中对应的ksm-page?</tspan><tspan x="4.5" y="54">* rmap_item中保存有mm, address ----> follow_page(mm, address)找到 ksm_page</tspan><tspan x="4.5" y="72">* 比较 page和 ksm_page, 如果相同， 就在stable-tree中插入一个节点</tspan><tspan x="4.5" y="90">* 将 page对应的 rmap_item和 ksm_page对应的 tree_rmap_item加入到该节点的rmap_item链表中</tspan></text></g><g transform="translate(314.5,1095)" id="shape101"><path d="M0,0L14,0L14,-41L424.5,-41L424.5,-79L484.6,-79" stroke-dasharray="2.5,2.5" stroke="#eb8989" stroke-width="4" fill="none"/><path d="M493,-79L483.1,-84.7L483.1,-84.7C484.1,-83.1,484.6,-81.1,484.6,-79C484.6,-76.9,484.1,-74.9,483.1,-73.3L493,-79" stroke-linecap="round" stroke="#eb8989" stroke-width="1" fill="#eb8989"/></g><g transform="translate(804.09,381)" id="shape102"><path d="M0,0L0,587L50.9,587L50.9,610.6" stroke-dasharray="2.5,2.5" stroke="#eb8989" stroke-width="4" fill="none"/><path d="M50.9,619L56.7,609.1L56.7,609.1C55,610,53,610.6,50.9,610.6C48.8,610.6,46.9,610,45.2,609.1L50.9,619" stroke-linecap="round" stroke="#eb8989" stroke-width="1" fill="#eb8989"/></g></g></svg>