<?xml version="1.0" standalone="no"?>
<!DOCTYPE svg PUBLIC "-//W3C//DTD SVG 20010904//EN"
 "http://www.w3.org/TR/2001/REC-SVG-20010904/DTD/svg10.dtd">
<svg version="1.0" xmlns="http://www.w3.org/2000/svg"
 width="512.000000pt" height="512.000000pt" viewBox="0 0 512.000000 512.000000"
 preserveAspectRatio="xMidYMid meet">
<metadata>
Created by potrace 1.14, written by Peter Selinger 2001-2017
</metadata>
<g transform="translate(0.000000,512.000000) scale(0.100000,-0.100000)"
fill="#000000" stroke="none">
<path d="M460 5105 c-7 -9 -20 -15 -29 -14 -30 3 -32 -1 -17 -23 23 -32 20
-48 -9 -48 -26 0 -33 18 -14 37 8 8 2 10 -23 8 -25 -2 -34 -7 -36 -23 -2 -12
-11 -24 -21 -27 -10 -3 -28 -15 -40 -26 -19 -18 -25 -19 -32 -8 -8 11 -15 8
-35 -15 -18 -20 -28 -26 -36 -18 -7 7 -19 7 -34 2 -13 -5 -24 -7 -24 -4 0 4
-11 -1 -24 -9 -22 -15 -25 -15 -30 -1 -3 9 -4 19 -2 22 2 4 -9 7 -25 8 l-29 1
1 -274 c0 -154 4 -286 10 -301 6 -15 6 -28 0 -31 -5 -3 -9 -107 -10 -238 0
-226 0 -233 19 -233 11 0 20 -5 20 -11 0 -6 7 -8 16 -5 30 12 63 -6 104 -57
l42 -52 -46 48 c-39 41 -51 48 -73 43 -14 -4 -31 -2 -39 5 -12 10 -18 8 -29
-7 -11 -15 -14 -58 -15 -196 l0 -177 54 -15 c30 -9 58 -20 61 -25 6 -10 -26
-2 -79 18 -16 6 -31 9 -34 7 -8 -9 19 -36 37 -36 18 -1 53 -24 46 -31 -2 -3 8
-5 23 -4 21 0 27 5 27 22 0 12 4 25 8 29 4 4 7 -5 7 -19 0 -26 9 -34 23 -20 4
3 2 12 -4 20 -9 10 -7 13 10 13 13 0 19 -4 16 -10 -6 -10 20 -7 62 5 6 2 25
-1 41 -7 25 -10 38 -8 78 9 47 21 48 21 72 2 29 -23 107 -26 115 -5 6 16 55
27 63 14 3 -5 12 -2 18 8 12 15 13 15 19 0 4 -9 17 -16 32 -16 21 0 29 8 41
38 8 20 19 45 25 55 5 10 7 21 5 26 -3 4 0 14 7 22 7 8 11 12 10 10 -1 -2 2
-12 7 -21 7 -12 17 -16 32 -12 19 5 17 -1 -15 -43 -20 -26 -37 -51 -37 -54 0
-3 19 -14 41 -25 l40 -18 16 22 c14 19 22 22 61 17 52 -6 94 6 87 25 -3 7 4
24 15 38 l20 25 -3 -26 c-1 -14 -13 -38 -26 -54 -16 -21 -21 -38 -17 -57 3
-16 1 -28 -5 -28 -6 0 -7 -4 -4 -10 3 -5 -1 -10 -9 -10 -8 0 -21 -9 -29 -21
-14 -18 -14 -16 -11 28 2 26 1 42 -2 36 -3 -7 -9 -13 -14 -13 -4 0 -8 6 -7 13
1 36 -4 47 -25 47 -21 0 -21 -1 -3 -20 26 -28 8 -45 -39 -36 -20 4 -36 10 -36
15 0 4 -12 14 -26 21 -22 12 -27 12 -34 0 -6 -8 -10 -25 -10 -37 0 -30 -8 -29
-43 5 l-29 27 -19 -24 c-10 -13 -19 -29 -19 -37 0 -30 -18 -12 -26 28 -10 46
-34 64 -34 26 0 -12 -4 -29 -9 -37 -8 -12 -12 -13 -26 -1 -13 10 -15 11 -13 1
2 -8 -5 -15 -15 -16 -15 -3 -16 -1 -6 12 10 12 10 16 -2 24 -30 19 -54 9 -51
-22 1 -3 -6 -6 -14 -6 -15 0 -17 8 -14 45 3 47 -41 20 -74 -45 -17 -35 -36
-44 -36 -17 0 8 -5 12 -11 8 -8 -5 -8 -1 0 14 14 27 14 35 -1 30 -7 -3 -15
-15 -19 -29 -6 -21 -7 -21 -8 9 -1 34 -31 48 -31 15 0 -15 -2 -16 -10 -3 -15
24 -37 -6 -55 -75 l-15 -60 4 63 4 64 -36 -7 c-21 -5 -45 -8 -54 -7 -10 0 -15
-5 -12 -13 3 -7 14 -11 26 -7 18 4 19 3 7 -16 -11 -18 -16 -19 -29 -8 -8 7
-28 12 -45 12 l-30 -1 -2 -434 c-2 -284 1 -439 8 -447 7 -8 7 -14 -1 -19 -13
-8 -13 -91 1 -117 7 -12 7 -18 1 -14 -7 4 -10 -66 -11 -204 -1 -148 2 -210 10
-210 8 0 8 -4 1 -13 -8 -9 -11 -300 -11 -950 l-1 -937 283 0 c213 0 286 3 296
13 11 9 13 9 7 0 -6 -10 231 -13 1168 -13 l1175 0 16 34 c10 21 25 36 38 38
19 3 22 10 22 45 0 23 3 45 8 49 4 4 7 24 7 45 0 21 16 75 35 121 30 69 35 91
30 128 -4 30 -3 40 4 31 7 -11 10 -9 13 9 2 16 12 26 28 30 21 5 22 7 8 13
-10 3 -18 11 -18 17 0 6 5 8 10 5 6 -3 10 1 10 9 0 9 6 16 12 16 16 0 -21 26
-47 33 -11 4 -5 5 13 3 18 -1 35 1 38 6 3 4 0 8 -5 8 -6 0 -11 12 -11 26 0 21
4 25 20 21 11 -3 20 -1 20 3 0 5 -15 11 -32 13 -31 4 -30 4 7 5 39 2 39 2 17
18 -12 8 -20 19 -17 24 3 5 -2 16 -11 24 -15 15 -8 21 19 17 18 -3 4 18 -15
23 -13 2 -6 4 15 2 20 -1 37 2 37 6 0 4 -10 8 -22 9 -13 0 -18 3 -11 5 14 6
-20 44 -38 44 -8 0 -8 5 1 15 9 11 10 15 1 15 -16 0 -45 29 -37 37 3 3 12 0
21 -7 13 -11 15 -10 10 2 -4 11 2 13 32 11 37 -4 38 -4 14 10 -14 8 -35 14
-48 12 -13 -1 -23 2 -23 6 0 5 10 9 23 10 15 0 10 5 -18 14 -38 12 -36 13 50
10 87 -2 89 -2 50 11 l-40 13 35 -1 c19 -1 36 2 38 7 4 14 -60 26 -74 14 -7
-6 -15 0 -22 17 -16 33 -15 39 3 24 10 -9 15 -9 15 -1 0 8 5 8 18 1 9 -5 46
-21 82 -35 36 -14 72 -29 80 -33 13 -5 13 -4 0 9 -9 9 -22 19 -30 22 -8 4 2 4
23 2 25 -3 46 -15 62 -33 13 -15 25 -21 25 -14 0 7 5 10 11 6 8 -5 6 -10 -5
-16 -22 -13 -20 -34 6 -52 34 -24 42 -19 14 8 -15 13 -26 27 -26 31 0 5 13 -5
29 -21 32 -32 31 -54 -2 -47 l-22 5 23 -17 c12 -9 19 -21 16 -27 -5 -8 -1 -9
10 -5 11 4 15 3 11 -4 -4 -6 1 -20 12 -32 16 -19 16 -20 0 -8 -15 12 -17 12
-11 -5 4 -10 14 -25 22 -32 13 -10 13 -12 1 -13 -8 0 -4 -4 9 -10 13 -5 20
-14 17 -19 -5 -8 -11 -7 -21 1 -24 19 -16 1 10 -23 14 -13 27 -40 30 -62 6
-36 5 -38 -11 -25 -17 13 -17 13 -1 -11 9 -14 22 -24 29 -22 9 2 8 -2 -2 -14
-11 -13 -11 -18 -1 -21 6 -3 9 -10 6 -15 -4 -6 0 -16 9 -22 8 -7 18 -35 22
-66 4 -30 11 -56 15 -58 5 -2 5 -14 0 -27 -8 -22 -6 -51 8 -85 7 -20 13 -57
15 -100 1 -19 8 -40 15 -46 12 -9 12 -15 2 -33 -6 -13 -8 -21 -2 -17 6 3 12
-11 14 -34 4 -40 3 -40 -32 -40 -23 0 -30 -3 -22 -9 8 -4 12 -12 10 -17 -2 -5
266 -10 630 -12 347 -1 632 1 632 6 0 4 -6 14 -12 21 -11 11 -10 12 1 6 9 -5
12 -4 7 3 -4 7 -16 12 -27 12 -16 0 -26 13 -17 23 2 1 -5 13 -15 27 -19 27
-23 55 -7 45 6 -4 8 -11 5 -16 -4 -5 -2 -9 4 -9 18 0 5 53 -15 61 -14 5 -10 7
14 6 22 0 29 -3 20 -8 -12 -8 -4 -13 16 -10 5 1 13 -4 17 -11 7 -10 9 -10 9 0
0 6 5 12 11 12 5 0 7 -4 4 -10 -3 -5 -2 -10 4 -10 17 0 22 18 6 24 -8 3 -12
11 -10 18 4 9 -6 13 -32 14 -69 2 -83 7 -83 29 0 16 2 17 10 5 5 -8 10 -10 10
-4 0 5 -7 19 -15 30 -15 19 -15 19 -8 0 5 -16 3 -18 -13 -12 -15 6 -17 5 -6
-5 6 -7 12 -20 12 -28 -1 -23 -21 14 -30 53 -7 31 12 65 32 59 5 -2 8 2 8 7 0
15 -19 12 -38 -6 -13 -14 -17 -14 -21 -3 -2 8 -7 16 -10 19 -6 4 -58 88 -71
115 -3 6 -17 29 -32 52 -16 24 -28 47 -28 52 0 5 -4 11 -8 13 -16 6 -78 133
-75 150 3 10 0 18 -5 18 -11 0 -67 88 -77 122 -4 12 -11 28 -15 33 -4 6 -11
25 -15 42 -6 30 -3 35 28 53 19 12 41 35 48 53 7 18 26 46 42 62 16 17 36 40
45 53 8 12 18 22 24 22 5 0 34 25 65 56 41 40 53 58 44 64 -9 5 -10 10 -3 14
6 4 15 -1 20 -10 8 -15 11 -15 35 0 24 16 27 16 66 -3 l40 -21 -16 38 c-15 38
-31 61 -20 30 11 -30 -20 -9 -33 23 -16 38 -33 49 -24 16 3 -14 3 -34 0 -45
-6 -17 -13 -19 -57 -13 -4 1 -12 14 -19 31 -16 39 -7 64 22 57 16 -5 18 -3 9
6 -9 9 -16 9 -30 0 -15 -10 -22 -9 -31 2 -10 12 -9 15 3 15 8 0 20 7 27 15 10
12 7 13 -18 5 -28 -7 -31 -5 -42 21 -7 16 -17 26 -22 23 -5 -3 -9 0 -7 7 3 26
-1 39 -12 39 -8 0 -8 -5 1 -15 10 -12 9 -15 -7 -15 -42 0 -61 57 -22 67 16 5
19 11 14 32 -10 43 -98 221 -106 215 -13 -7 -46 67 -45 101 1 47 30 39 37 -10
5 -35 8 -34 13 6 0 6 10 17 21 25 18 13 20 26 20 122 0 59 4 113 8 119 14 22
79 34 120 22 52 -14 99 -67 153 -173 25 -50 88 -154 139 -231 52 -77 96 -153
99 -170 5 -24 4 -26 -3 -10 -5 11 -10 16 -10 11 -1 -5 -8 -3 -16 4 -24 20 -18
1 18 -54 19 -28 44 -70 57 -94 13 -23 29 -41 34 -39 8 3 12 292 13 933 3 903
2 930 -16 955 -39 52 -62 248 -53 439 2 30 0 68 -4 84 -5 21 -4 27 5 22 7 -5
11 0 11 13 0 11 5 23 11 26 15 10 7 56 -13 79 -9 10 -28 19 -43 20 -21 1 -25
5 -21 21 3 11 6 25 6 31 0 6 18 25 39 42 36 29 41 30 55 16 9 -9 14 -20 10
-25 -5 -9 -12 -119 -19 -304 -2 -49 -6 -105 -8 -123 -3 -20 0 -35 8 -40 8 -4
15 -19 17 -34 13 -97 18 12 18 395 -1 267 -5 439 -10 442 -7 4 -6 13 0 25 18
33 12 50 -17 51 -24 2 -25 2 -5 6 27 5 30 23 3 23 -19 0 -31 18 -31 47 0 9 6
13 15 9 8 -3 22 -9 30 -12 9 -4 15 -1 15 7 0 7 -3 10 -6 7 -3 -4 -15 3 -25 13
-12 12 -27 18 -38 14 -12 -3 -21 0 -25 11 -5 13 -1 15 19 11 33 -6 78 27 56
42 -10 6 -12 21 -8 52 l5 44 -11 -37 c-12 -37 -54 -78 -80 -78 -9 0 -17 -5
-19 -11 -3 -8 -18 -4 -46 10 -34 17 -42 19 -42 7 0 -8 16 -23 36 -32 20 -9 39
-26 43 -36 6 -18 9 -18 20 -4 19 22 39 10 33 -21 -3 -18 1 -30 13 -40 17 -12
15 -13 -19 -13 -27 0 -35 3 -30 13 5 8 3 8 -9 -2 -9 -7 -14 -17 -11 -22 3 -5
-2 -9 -10 -9 -10 0 -13 -6 -9 -17 5 -17 5 -17 -8 -2 -8 9 -21 19 -29 22 -9 3
-4 6 11 6 14 1 28 4 32 7 9 9 -4 35 -14 28 -5 -3 -7 -10 -4 -15 4 -5 2 -9 -3
-9 -6 0 -13 7 -16 16 -4 11 1 18 14 21 29 8 24 25 -14 49 l-34 22 -12 -59 -13
-59 -34 30 c-24 21 -41 29 -56 25 -17 -4 -25 0 -33 19 -10 20 -9 25 6 29 22 6
34 47 14 47 -8 0 -14 5 -14 11 0 5 4 8 8 5 4 -2 14 0 22 5 12 8 9 9 -10 7 -14
-1 -30 1 -37 5 -6 4 -14 3 -18 -3 -4 -6 -11 -7 -17 -4 -7 4 -8 2 -4 -5 4 -6
12 -9 17 -6 5 4 9 1 9 -4 0 -6 -7 -11 -15 -11 -9 0 -12 -6 -9 -15 5 -11 -2
-15 -27 -16 -60 -2 -64 -4 -64 -24 0 -23 48 -37 77 -23 12 6 18 3 23 -12 7
-22 -11 -53 -26 -44 -5 3 -9 0 -9 -7 0 -7 -2 -10 -5 -7 -10 9 7 39 20 35 6 -3
12 1 12 8 0 7 -7 11 -16 10 -9 -2 -20 -4 -24 -4 -5 -1 -6 -5 -3 -10 3 -5 -2
-15 -11 -22 -14 -12 -16 -12 -8 1 8 13 7 13 -9 1 -15 -13 -18 -12 -22 5 -3 11
-14 21 -25 21 -11 1 -17 -3 -13 -9 8 -12 -35 -1 -50 13 -16 15 2 23 19 9 14
-11 17 -10 22 8 3 12 10 22 15 22 7 0 6 5 -1 14 -9 10 -3 21 23 50 39 41 43
42 67 20 17 -15 18 -15 16 4 0 11 -5 18 -9 16 -19 -12 -6 13 16 29 25 19 62
119 51 137 -3 5 -2 10 4 10 5 0 13 -4 16 -10 3 -5 14 -10 23 -9 11 0 12 3 5 6
-7 2 -13 12 -13 20 0 9 -6 13 -15 9 -8 -3 -15 -1 -15 4 0 6 -4 10 -10 10 -5 0
-10 -11 -10 -25 0 -27 -6 -30 -30 -15 -12 8 -12 11 3 27 14 16 23 41 26 76 1
4 8 7 16 7 19 0 20 -29 0 -36 -21 -8 -9 -24 18 -24 14 0 30 13 45 35 12 19 27
35 33 35 8 0 7 -5 -1 -15 -9 -10 -9 -15 -1 -15 6 0 11 4 11 8 0 5 7 9 15 9 8
0 15 -4 15 -9 0 -4 -5 -8 -12 -8 -6 0 -3 -7 8 -15 18 -15 18 -15 -7 -9 -24 5
-27 2 -32 -28 -2 -18 -4 -34 -2 -36 1 -1 19 -3 39 -4 20 -1 36 -5 36 -10 0 -4
3 -7 8 -7 18 3 33 -2 28 -9 -5 -9 41 -8 51 1 3 4 11 7 17 7 6 0 4 -5 -4 -10
-13 -8 -12 -10 3 -10 9 0 17 6 17 14 0 20 23 35 61 40 l34 3 3 97 3 96 -137 0
c-132 0 -137 -1 -121 -18 24 -26 23 -81 0 -78 -10 2 -23 16 -28 33 -21 63 -24
64 -179 61 l-141 -3 -3 -25 c-2 -21 1 -26 20 -26 13 0 30 9 38 19 15 18 17 18
30 2 13 -15 11 -19 -13 -37 -15 -11 -27 -27 -27 -36 0 -14 -2 -14 -9 -3 -7 11
-10 11 -15 0 -3 -8 -4 -3 -2 10 4 17 2 21 -6 13 -8 -8 -16 -4 -29 13 -23 29
-55 24 -86 -14 -18 -20 -23 -22 -23 -9 0 9 21 35 48 57 l47 41 -137 -1 c-77 0
-138 -5 -138 -10 0 -5 12 -9 26 -9 16 0 23 -4 18 -12 -4 -7 -3 -8 5 -4 22 14
22 -22 -1 -69 -27 -58 -45 -67 -54 -28 -4 15 -13 36 -21 45 -9 9 -13 31 -11
50 l3 33 -82 1 c-66 1 -83 -1 -83 -13 0 -8 5 -11 13 -8 6 4 4 0 -6 -8 -12 -10
-15 -17 -7 -22 6 -4 17 -1 25 5 8 7 15 9 15 4 0 -4 11 3 25 16 l24 23 -8 -30
c-5 -17 -14 -40 -20 -51 -15 -28 -14 -32 5 -32 10 0 14 -5 10 -16 -4 -10 -2
-13 6 -8 8 5 9 0 4 -17 -4 -13 -9 -31 -10 -41 -1 -9 -7 -23 -14 -31 -7 -7 -9
-17 -5 -20 3 -4 1 -7 -6 -7 -9 0 -12 9 -9 25 3 14 3 25 1 25 -8 0 -30 -25 -42
-48 -7 -12 -16 -20 -21 -17 -4 3 -16 -2 -25 -11 -12 -13 -19 -14 -28 -5 -18
18 -27 13 -27 -19 0 -16 -4 -30 -10 -30 -5 0 -10 -5 -10 -11 0 -6 10 -9 23 -7
39 8 49 -15 23 -53 -31 -48 -50 -92 -35 -83 9 5 10 0 6 -17 -4 -13 -7 -30 -7
-37 0 -7 -4 -11 -9 -8 -5 3 -8 0 -8 -7 0 -6 -3 -31 -7 -54 -12 -59 -31 -56
-29 4 1 7 -2 11 -6 9 -4 -3 -6 -31 -5 -63 2 -60 -13 -133 -27 -133 -4 0 -12 8
-18 17 -6 12 -20 17 -43 16 -30 -1 -31 -1 -8 7 14 4 19 8 11 9 -10 1 -7 9 10
28 13 14 19 23 12 19 -6 -3 -16 1 -21 10 -9 15 -11 15 -21 -5 -8 -15 -18 -20
-30 -16 -11 3 -25 -3 -36 -15 -10 -11 -21 -17 -25 -15 -4 3 -14 -3 -21 -12
-10 -12 -10 -14 -1 -9 6 4 12 2 12 -3 0 -15 -19 -14 -35 2 -9 9 -10 19 -3 31
5 9 7 24 4 33 -5 13 -4 14 9 3 20 -17 32 -5 15 15 -7 9 -8 15 -2 15 6 0 12 -6
15 -12 3 -10 7 -10 19 -1 8 7 19 9 24 5 4 -4 3 0 -4 10 -11 14 -8 19 17 37 16
12 33 21 38 21 5 0 15 6 22 13 6 6 17 12 23 12 17 0 38 72 47 157 7 63 18 95
61 182 28 58 57 104 63 103 6 -1 12 10 12 25 1 15 5 31 9 35 5 4 5 -3 2 -17
-7 -24 -7 -24 9 -5 10 13 13 29 9 48 -3 16 -1 34 6 42 10 12 0 14 -64 14 -55
0 -76 -4 -76 -13 0 -7 -9 -21 -20 -31 -11 -10 -17 -22 -13 -28 3 -6 1 -7 -6
-3 -7 5 -9 12 -3 19 5 7 12 22 15 35 l5 22 -453 0 -453 -1 8 -29 c5 -17 6 -30
4 -30 -3 0 2 -7 11 -16 14 -14 15 -35 10 -153 -8 -182 -16 -211 -45 -157 -7
14 -10 37 -7 53 6 29 -25 93 -45 93 -6 0 -8 18 -4 48 3 26 9 79 12 119 l7 72
-118 0 c-64 1 -121 -1 -126 -4 -4 -3 -3 -18 4 -32 9 -21 9 -27 -1 -31 -7 -2
-9 -9 -5 -15 3 -7 3 -9 -2 -5 -4 4 -14 3 -22 -3 -10 -9 -13 -6 -13 14 0 13 6
30 14 37 26 21 7 41 -36 38 -22 -1 -42 -6 -45 -10 -2 -5 -12 -3 -21 4 -13 11
-15 10 -9 -4 3 -10 2 -18 -3 -18 -6 0 -10 7 -10 15 0 8 -7 15 -15 15 -11 0
-15 -12 -16 -42 0 -24 -5 -52 -10 -63 -6 -14 -7 -7 -3 25 4 33 2 41 -5 30 -8
-12 -11 -8 -11 18 0 26 -4 32 -22 32 -22 0 -23 -4 -21 -57 2 -48 1 -54 -8 -33
-5 14 -8 33 -5 44 8 32 -17 46 -89 46 -46 0 -71 -5 -81 -15 -17 -16 -39 -21
-30 -6 9 14 -20 21 -89 21 -41 0 -65 -4 -68 -12 -4 -10 -6 -10 -6 0 -1 6 -8
12 -16 12 -14 0 -14 -3 -1 -28 14 -27 15 -76 3 -88 -9 -9 -28 6 -22 17 11 16
-6 51 -21 45 -8 -3 -15 -1 -15 4 -5 38 -17 50 -50 50 -27 0 -30 -3 -23 -22 3
-13 11 -28 16 -35 5 -6 5 -14 0 -17 -5 -3 -14 13 -21 34 -6 22 -16 40 -21 40
-5 0 3 -34 17 -75 21 -64 23 -78 11 -92 -7 -9 -8 -14 -2 -10 7 4 15 0 18 -9 9
-24 7 -31 -4 -14 -7 10 -10 11 -10 2 0 -7 6 -15 14 -18 9 -4 12 -15 9 -36 -3
-19 -1 -28 6 -24 12 8 18 -16 24 -91 2 -29 0 -53 -4 -53 -5 0 -9 16 -9 36 0
24 -4 34 -12 31 -7 -2 -11 -11 -10 -18 2 -8 6 -47 9 -88 5 -53 3 -72 -5 -67
-6 4 -9 13 -5 21 7 21 -6 67 -17 60 -6 -4 -7 6 -4 23 6 27 -15 75 -38 93 -5 3
-9 30 -9 60 0 30 -3 63 -6 74 -5 18 -6 18 -15 -4 -4 -13 -4 -29 0 -35 15 -19
5 -119 -12 -132 -9 -6 -16 -18 -16 -27 0 -11 -6 -15 -17 -11 -15 5 -15 4 -3
-4 17 -13 30 -6 30 14 0 8 5 14 10 14 6 0 10 -4 10 -9 0 -6 9 -8 20 -6 12 2
18 0 15 -6 -4 -5 -10 -7 -15 -4 -11 7 -33 -22 -25 -35 9 -15 -2 -12 -30 6 -27
18 -30 14 -15 -16 5 -11 14 -29 20 -40 7 -14 7 -18 -3 -14 -7 2 -19 19 -26 37
-8 17 -19 35 -25 39 -13 8 20 82 33 74 5 -3 11 2 13 12 4 15 0 17 -23 14 -17
-3 -26 -9 -23 -17 3 -7 1 -16 -5 -20 -6 -3 -11 1 -11 9 0 9 -8 16 -17 16 -13
0 -15 -2 -5 -8 9 -7 8 -13 -8 -27 -17 -16 -20 -16 -15 -3 4 9 2 25 -3 34 -7
12 -6 26 1 42 8 17 8 25 0 30 -6 4 -13 21 -16 37 -2 17 -3 11 -2 -12 2 -27 -3
-47 -11 -54 -8 -6 -12 -21 -10 -33 2 -11 7 -39 10 -61 7 -37 6 -38 -7 -17 -7
12 -16 20 -19 16 -4 -3 -4 3 -1 14 4 16 1 20 -14 18 -11 -2 -20 -14 -23 -31
l-5 -27 -18 20 c-11 12 -16 25 -13 30 3 6 -2 8 -12 5 -12 -3 -23 5 -32 23 -25
47 -56 72 -75 62 -21 -12 -33 -2 -17 14 7 7 12 22 12 34 0 17 -5 21 -19 17
-16 -4 -18 0 -13 24 3 15 7 23 9 16 4 -10 9 -10 24 0 23 14 25 29 3 20 -8 -3
-29 4 -45 16 -16 12 -29 17 -29 11 0 -6 7 -13 15 -16 10 -4 14 -19 13 -49 -2
-40 -18 -55 -18 -17 -1 9 -11 30 -24 46 -14 16 -22 35 -19 42 2 6 0 15 -6 19
-6 3 -11 0 -11 -7 0 -10 -3 -9 -10 2 -14 22 -24 -12 -17 -57 4 -21 2 -42 -4
-50 -8 -9 -7 -14 5 -19 9 -3 14 -10 11 -14 -3 -4 1 -13 9 -19 10 -8 12 -21 6
-46 -4 -19 -6 -36 -4 -39 2 -4 1 -4 -3 -1 -15 12 -30 -18 -27 -55 2 -28 0 -40
-10 -40 -9 0 -12 -8 -9 -24 3 -13 0 -27 -6 -30 -6 -4 -11 -13 -11 -19 0 -7 8
-1 18 13 10 16 26 25 39 24 12 -1 20 2 18 6 -7 11 20 31 30 22 4 -4 4 4 0 17
-6 20 -4 23 9 18 10 -4 15 -3 12 1 -2 4 -1 14 5 22 6 11 9 8 9 -14 0 -20 4
-27 14 -23 10 4 13 1 10 -7 -8 -20 23 -27 38 -8 9 11 10 14 1 8 -11 -6 -18 7
-10 17 1 2 -4 11 -12 20 -10 12 -10 17 -1 17 10 0 31 -20 77 -71 24 -27 48
-44 63 -44 20 0 20 -66 0 -83 -13 -10 -13 -11 3 -6 15 5 17 -1 17 -54 0 -33 6
-72 14 -87 13 -25 14 -19 13 81 l-2 109 34 -3 c19 -1 36 -4 37 -5 7 -7 16
-113 16 -186 -1 -54 4 -91 13 -105 16 -26 30 -176 15 -176 -5 0 -10 -8 -10
-17 0 -14 2 -15 9 -4 14 22 19 2 26 -114 7 -108 8 -111 43 -150 19 -22 32 -35
28 -28 -3 6 -2 14 4 18 6 4 10 -8 10 -29 0 -19 7 -41 15 -50 8 -8 15 -19 15
-23 0 -5 10 -29 23 -54 19 -39 26 -44 57 -46 19 0 57 3 83 9 33 7 56 7 75 -1
42 -17 84 -1 108 43 12 21 24 36 27 34 3 -2 9 0 13 5 4 4 0 7 -9 7 -25 0 -21
27 6 36 12 5 26 7 31 6 4 -2 5 14 1 35 -5 21 -8 46 -9 55 0 9 -3 15 -7 12 -4
-2 -10 6 -14 18 -4 13 -13 38 -22 57 -17 38 -23 122 -8 127 6 3 10 -23 10 -63
0 -43 5 -68 13 -71 6 -2 12 -10 12 -17 0 -8 4 -17 10 -20 5 -3 9 13 8 40 -1
53 7 66 25 41 12 -16 13 -14 9 17 -3 29 0 35 20 40 38 11 48 8 48 -12 0 -14 6
-17 24 -14 13 3 32 0 43 -6 17 -10 17 -10 1 -11 -10 0 -18 -7 -18 -15 0 -20
73 -20 94 0 13 14 16 13 29 -5 14 -21 14 -21 22 2 4 13 8 28 9 33 0 6 11 11
23 13 18 3 21 -1 18 -17 -2 -12 0 -21 6 -21 5 0 8 -3 7 -7 -1 -5 4 -21 10 -36
7 -16 12 -37 12 -47 0 -20 16 -34 37 -35 7 0 12 -4 10 -10 -1 -5 -6 -9 -11 -7
-4 1 -25 -3 -45 -10 -20 -7 -38 -13 -41 -13 -3 -1 -12 -4 -20 -7 -61 -24 -83
-9 -61 39 6 14 10 27 8 30 -3 2 -37 -28 -76 -68 -57 -57 -71 -78 -71 -102 0
-17 6 -38 14 -46 18 -21 25 -87 8 -83 -7 1 -12 -3 -12 -9 0 -5 -4 -7 -10 -4
-12 7 -13 -7 -2 -21 4 -5 -1 -1 -11 10 -10 10 -19 17 -22 15 -2 -3 -5 -47 -7
-98 -1 -51 -6 -95 -10 -97 -5 -3 -8 11 -8 30 0 19 -4 37 -8 40 -5 3 -8 -10 -7
-29 0 -19 -3 -35 -7 -35 -13 0 -9 63 6 113 11 37 11 44 1 40 -8 -2 -16 -11
-19 -20 -4 -9 -13 -13 -22 -9 -14 5 -15 4 -4 -9 7 -8 17 -12 23 -8 5 3 7 1 4
-4 -4 -6 -16 -13 -27 -16 -15 -4 -20 0 -20 15 0 15 -5 19 -20 15 -11 -3 -18
-1 -14 4 3 5 0 9 -5 9 -6 0 -11 -6 -11 -12 0 -9 -4 -8 -11 2 -9 13 -10 13 -6
-2 3 -9 0 -22 -8 -28 -11 -9 -13 -7 -9 12 2 13 2 17 -2 10 -3 -6 -10 -10 -15
-6 -5 3 -8 2 -7 -3 4 -12 -31 -58 -38 -50 -4 4 -2 12 3 19 6 7 15 28 22 47 11
34 11 34 -9 16 -24 -22 -35 -16 -17 9 9 12 31 19 72 22 89 7 99 8 114 18 8 5
16 4 21 -4 12 -19 33 26 25 51 -5 16 -12 19 -28 15 -12 -4 -30 -9 -41 -11 -10
-2 -23 -9 -30 -14 -7 -6 -24 -8 -37 -6 -17 3 -33 -2 -47 -16 l-22 -20 0 21 c0
27 -22 35 -51 19 -23 -12 -23 -12 -4 -21 19 -8 19 -8 -1 -4 -16 2 -25 -4 -34
-23 -8 -15 -14 -21 -17 -13 -3 6 -9 10 -14 6 -5 -3 -9 -1 -9 5 0 5 23 24 51
43 55 35 52 45 -8 28 -43 -12 -62 -25 -86 -60 -10 -14 -17 -18 -17 -10 0 11
-3 11 -12 2 -9 -9 -14 -7 -25 6 -12 16 -13 15 -6 -3 3 -11 2 -17 -2 -12 -5 4
-16 0 -26 -9 -16 -15 -17 -14 -12 5 4 15 1 21 -11 21 -10 0 -14 -5 -11 -10 8
-13 -3 -50 -15 -50 -5 0 -7 7 -3 16 5 14 3 14 -16 3 -11 -8 -21 -19 -21 -26 0
-7 -7 -13 -15 -13 -9 0 -16 -14 -20 -37 -10 -58 -15 -63 -13 -13 1 25 5 55 10
68 4 12 4 22 -1 22 -10 0 -31 -46 -31 -70 0 -10 -5 -22 -12 -26 -8 -5 -9 0 -5
15 4 16 2 21 -8 17 -10 -4 -11 2 -4 27 12 44 11 51 -6 37 -14 -11 -26 -53 -33
-117 -1 -7 -8 -13 -15 -13 -8 0 -19 -10 -25 -22 -6 -13 -11 -17 -11 -9 -1 8 9
25 21 38 12 12 23 37 24 55 3 31 2 32 -11 13 -42 -60 -45 -62 -34 -27 15 44 4
52 -18 14 -20 -35 -63 -42 -63 -10 0 38 -31 15 -35 -26 -4 -34 -5 -36 -15 -36
-15 0 -12 37 5 70 18 36 14 37 -25 9 -16 -12 -26 -28 -23 -35 3 -8 0 -14 -6
-14 -6 0 -11 5 -11 10 0 21 -44 29 -64 11 -18 -15 -18 -15 -12 7 4 12 3 22 -1
22 -14 0 -73 -52 -73 -64 0 -23 -45 -41 -101 -41 -32 0 -55 3 -53 6 2 4 -3 12
-11 19 -25 21 -18 25 45 27 43 1 68 8 88 23 32 24 87 39 147 41 22 0 35 3 28
5 -7 3 -9 12 -6 21 4 11 2 14 -5 9 -8 -5 -10 -2 -6 8 12 30 41 8 36 -26 -5
-26 15 -30 45 -9 16 11 48 22 73 24 40 5 80 19 175 62 16 8 50 20 75 28 31 11
39 16 25 19 -19 4 -18 5 4 17 14 8 21 8 17 2 -5 -7 -1 -9 8 -5 18 7 21 20 5
29 -5 4 -14 18 -20 32 -5 13 -13 21 -19 18 -6 -3 -14 5 -20 20 -5 14 -26 40
-46 58 -34 29 -58 37 -119 38 -11 0 -22 4 -25 10 -4 5 -14 7 -24 3 -13 -5 -14
-9 -5 -20 6 -8 18 -14 26 -14 8 0 11 -4 8 -10 -4 -6 -13 -5 -24 2 -15 9 -26 8
-52 -4 -18 -9 -39 -14 -47 -11 -8 3 -18 0 -23 -8 -6 -10 -9 -6 -9 14 0 16 -4
26 -10 22 -9 -6 -15 29 -11 63 1 6 -3 12 -9 12 -5 0 -10 -5 -10 -11 0 -5 -4
-7 -10 -4 -5 3 -10 -1 -10 -9 0 -19 1 -19 -56 -5 -24 6 -44 16 -44 21 0 5 -10
8 -22 6 -13 -2 -22 -9 -20 -16 1 -7 -3 -12 -10 -11 -17 3 -68 -22 -68 -32 0
-24 59 -44 114 -40 20 1 20 1 0 16 -18 13 -16 14 21 14 22 0 34 -3 26 -6 -8
-3 1 -13 25 -28 23 -13 37 -28 35 -36 -2 -8 -4 -22 -5 -31 0 -9 -4 -14 -9 -11
-5 3 -6 11 -3 19 3 7 2 15 -2 18 -5 3 -13 -8 -19 -25 -8 -21 -8 -29 0 -29 6 0
4 -6 -5 -12 -24 -19 -32 -54 -13 -62 8 -3 15 0 15 7 0 7 9 1 19 -12 21 -28 17
-60 -7 -56 -10 2 -23 4 -31 4 -7 1 -11 7 -8 15 9 22 -19 41 -38 26 -26 -21
-16 3 15 39 31 35 37 51 20 51 -5 0 -10 -7 -10 -15 0 -8 -9 -19 -21 -26 -19
-10 -20 -9 -14 13 7 20 6 21 -9 9 -9 -7 -16 -9 -16 -3 0 9 12 17 35 21 6 2 18
10 27 18 23 21 5 47 -26 37 -23 -8 -86 -7 -94 1 -3 2 1 12 9 22 13 17 13 17
-10 2 -19 -12 -37 -13 -89 -6 -36 4 -74 13 -83 18 -14 7 -24 1 -48 -28 -17
-21 -31 -43 -31 -50 0 -7 -10 -13 -22 -13 -12 0 -35 -12 -51 -27 l-30 -28 23
33 c17 23 21 35 13 43 -13 13 -21 2 -44 -63 -10 -28 -35 -64 -62 -90 l-45 -43
5 35 c12 93 26 142 49 175 13 20 24 40 24 45 0 4 3 10 8 12 4 2 15 25 24 51
10 26 13 45 8 42 -6 -4 -5 4 1 18 7 16 19 25 35 25 26 0 29 -9 13 -39 -9 -17
-2 -16 51 11 40 20 58 35 53 43 -4 8 -1 7 10 -2 23 -18 50 -7 42 19 -3 11 -2
28 4 37 8 15 10 11 11 -20 l0 -38 59 2 c63 2 92 11 72 23 -8 5 -7 11 2 20 15
17 27 11 27 -14 0 -15 13 -20 73 -30 67 -10 96 -19 140 -41 11 -6 17 -5 17 2
0 5 4 8 9 5 5 -3 16 5 25 19 15 23 15 26 1 31 -8 3 -15 15 -15 25 0 24 17 25
23 2 3 -10 3 2 1 27 -2 25 -8 46 -14 48 -5 2 -10 10 -10 18 0 8 -6 13 -12 11
-8 -1 -14 10 -15 28 -2 29 -2 29 7 5 7 -21 8 -22 9 -5 1 15 3 17 10 6 7 -11 9
-11 14 0 8 23 27 -36 35 -109 5 -47 11 -68 22 -70 12 -2 14 7 12 48 -3 32 0
50 7 50 6 0 12 -12 12 -27 1 -16 2 -39 3 -53 1 -23 5 -25 46 -26 25 -1 39 0
33 3 -7 3 -13 19 -14 36 l-1 32 -15 -35 c-16 -35 -16 -35 -24 -10 -4 14 -7 34
-7 45 0 16 2 15 8 -5 l7 -25 10 23 c5 13 12 23 16 23 19 -2 21 0 7 9 -8 5 -11
12 -7 16 14 15 35 -18 40 -67 6 -48 13 -68 20 -58 2 2 -4 49 -14 104 -9 55
-17 85 -18 66 -1 -28 -3 -32 -16 -21 -16 13 -25 62 -30 160 -1 36 -4 67 -5 70
-1 3 -1 18 0 34 1 16 -4 33 -12 37 -11 7 -10 11 2 19 11 7 11 10 2 10 -22 0
-25 -27 -13 -108 25 -161 25 -176 5 -167 -11 4 -34 11 -51 17 -26 7 -33 14
-33 35 0 20 -4 24 -19 20 -16 -4 -20 3 -25 41 -7 51 -2 63 17 38 11 -15 12
-12 11 21 -2 56 -4 61 -17 33 l-11 -25 -4 33 c-3 32 -4 33 -22 17 -18 -16 -19
-15 -29 22 -5 21 -12 49 -14 63 -5 29 2 -85 8 -145 5 -39 5 -39 -6 -10 -16 40
-16 41 -36 23 -22 -19 -82 -40 -94 -32 -5 3 -14 2 -20 -2 -8 -5 -8 -8 0 -14 9
-5 9 -13 1 -31 -14 -31 -53 -33 -74 -4 -15 19 -17 18 -20 -15 -1 -16 -47 -21
-58 -6 -8 12 -34 -14 -33 -34 1 -8 -3 -24 -8 -35 -14 -27 -17 -65 -6 -65 5 0
9 6 9 14 0 21 17 29 24 11 3 -9 -5 -20 -22 -29 -15 -8 -26 -17 -24 -20 8 -19
0 -35 -14 -29 -9 3 -20 0 -25 -8 -6 -9 -9 15 -7 68 1 45 -1 85 -5 89 -4 4 -2
13 5 21 8 10 8 17 0 25 -7 7 -12 19 -11 28 0 10 2 11 6 3 13 -34 23 -5 23 68
0 51 -4 78 -10 74 -6 -3 -10 -1 -10 4 0 6 6 11 13 11 7 1 6 5 -5 14 -18 13
-14 54 6 68 7 5 3 8 -9 8 -10 0 -29 -12 -42 -27 -19 -25 -21 -25 -17 -6 4 15
0 23 -15 28 -16 5 -19 11 -12 23 4 9 6 24 4 32 -2 8 1 7 8 -4 9 -14 13 -15 19
-5 7 10 12 10 23 1 7 -7 17 -9 20 -5 13 12 38 -20 33 -43 -4 -14 -1 -24 9 -28
15 -5 19 4 16 34 -4 25 -25 70 -35 70 -5 0 -33 25 -62 56 -53 54 -54 57 -54
114 0 32 5 62 10 65 14 9 12 69 -2 84 -11 10 -9 11 6 5 13 -5 17 -3 14 7 -2 7
12 70 32 140 l37 128 -68 0 c-38 0 -71 -4 -74 -9 -4 -6 -15 -10 -26 -10 -11 0
-19 -7 -19 -16 0 -8 -4 -13 -9 -10 -5 3 -11 -3 -14 -14 -3 -11 -11 -20 -17
-20 -7 0 -10 7 -6 15 3 8 3 15 1 15 -11 0 -55 -45 -55 -56 0 -7 -5 -16 -11
-19 -7 -5 -8 4 -4 28 5 27 3 36 -10 41 -9 3 -22 3 -28 -1 -7 -3 -9 -3 -5 1 13
15 -27 43 -68 50 -31 4 -45 2 -54 -9z m2077 -17 c-1 -15 3 -22 11 -20 19 4 11
-60 -8 -65 -11 -3 -11 -2 -3 4 15 11 11 45 -6 51 -7 2 -12 -2 -10 -9 4 -36 -2
-89 -12 -89 -6 0 -8 9 -4 21 5 14 2 25 -6 30 -11 7 -12 9 -1 9 9 0 12 10 10
29 -1 16 4 36 11 45 18 21 21 20 18 -6z m2164 -1 c-10 -9 -11 -8 -5 6 3 10 9
15 12 12 3 -3 0 -11 -7 -18z m-3927 -12 c-4 -8 -10 -15 -15 -15 -4 0 -6 7 -3
15 4 8 10 15 15 15 4 0 6 -7 3 -15z m4003 -17 c-3 -8 -6 -5 -6 6 -1 11 2 17 5
13 3 -3 4 -12 1 -19z m-1800 -10 c-3 -8 -6 -5 -6 6 -1 11 2 17 5 13 3 -3 4
-12 1 -19z m-903 3 c3 -5 -1 -11 -9 -14 -9 -4 -12 -1 -8 9 6 16 10 17 17 5z
m770 -23 c8 -39 1 -47 -22 -23 -12 13 -13 15 -2 9 13 -7 13 -6 1 9 -9 12 -10
17 -2 17 7 0 9 5 6 10 -3 6 -2 10 3 10 5 0 12 -14 16 -32z m2063 18 c-3 -7 -1
-18 4 -23 5 -5 0 -14 -11 -21 -11 -7 -20 -8 -20 -3 0 16 19 61 26 61 3 0 4 -6
1 -14z m-4307 -17 c0 -6 -4 -7 -10 -4 -5 3 -10 11 -10 16 0 6 5 7 10 4 6 -3
10 -11 10 -16z m3228 -21 c-12 -24 -23 -50 -24 -59 -2 -24 -14 -40 -25 -34
-14 9 -11 35 6 52 12 12 13 18 4 29 -9 11 -9 18 -1 26 9 9 12 8 12 -6 0 -16 4
-14 21 8 30 38 33 32 7 -16z m786 -7 c-2 -31 1 -39 12 -34 8 3 14 13 14 23 0
25 15 33 29 16 7 -8 8 -16 4 -18 -4 -1 -17 -20 -27 -41 -12 -24 -25 -36 -33
-33 -8 3 -11 1 -8 -4 4 -6 14 -9 23 -8 22 4 27 -28 6 -36 -12 -5 -15 -2 -10 9
4 10 2 14 -5 9 -6 -4 -15 -1 -19 6 -5 8 -13 9 -21 4 -18 -11 -49 -13 -49 -2 0
4 -6 8 -14 8 -16 0 -29 27 -20 41 3 5 13 9 23 9 10 0 36 20 57 45 22 25 39 45
40 45 1 0 0 -18 -2 -39z m-2721 -8 c-4 -10 -2 -14 4 -10 12 7 21 -24 24 -78 2
-56 -2 -60 -17 -15 -8 25 -12 53 -10 63 3 13 1 15 -7 8 -9 -7 -12 1 -12 29 -1
30 2 37 11 29 7 -6 10 -18 7 -26z m912 -101 c-4 -23 -10 -40 -15 -37 -4 3 -6
-14 -4 -37 3 -39 3 -40 -5 -11 -9 34 -3 135 8 129 3 -2 5 17 4 42 l-2 47 10
-45 c5 -25 7 -64 4 -88z m1655 118 c0 -5 -2 -10 -4 -10 -3 0 -8 5 -11 10 -3 6
-1 10 4 10 6 0 11 -4 11 -10z m-4010 -35 c0 -21 -5 -35 -12 -35 -9 0 -8 -4 2
-10 9 -6 10 -10 3 -10 -6 0 -15 5 -18 10 -14 23 -22 7 -13 -27 5 -21 12 -48
15 -60 3 -13 9 -23 13 -23 4 0 10 -10 13 -22 5 -21 5 -21 -7 -6 -7 10 -15 15
-19 12 -3 -3 -8 4 -12 16 -4 12 -4 24 -1 27 3 3 1 14 -5 25 -6 11 -12 41 -14
67 -4 40 -1 48 18 58 34 17 37 15 37 -22z m4531 25 c10 -6 19 -16 19 -23 0 -8
-3 -9 -8 -1 -4 6 -16 16 -27 22 -25 14 -11 16 16 2z m-4426 -10 c3 -5 -1 -10
-9 -10 -9 0 -16 5 -16 10 0 6 4 10 9 10 6 0 13 -4 16 -10z m1547 -42 c-4 -4
-9 7 -9 25 -2 30 -2 31 8 8 5 -14 6 -28 1 -33z m1406 46 c-3 -3 -3 -17 1 -32
9 -30 -6 -85 -20 -76 -5 3 -9 0 -9 -5 0 -6 4 -11 9 -11 18 0 16 -55 -1 -72
-29 -29 -23 -48 15 -47 41 1 106 -25 83 -34 -8 -3 -18 -2 -21 3 -4 6 -13 10
-21 10 -11 0 -13 -6 -9 -20 7 -22 -18 -29 -31 -9 -4 8 -9 8 -17 0 -6 -6 -19
-11 -29 -11 -10 0 -18 -7 -18 -15 0 -8 -6 -12 -14 -9 -8 3 -17 1 -20 -5 -4 -6
-13 -8 -20 -5 -8 3 -17 1 -21 -5 -3 -6 -2 -11 3 -11 6 0 8 -9 5 -20 -3 -10 -8
-19 -12 -18 -20 2 -28 -5 -27 -24 1 -15 -14 -38 -42 -66 -24 -24 -42 -49 -39
-56 3 -7 -4 -18 -15 -25 -17 -10 -22 -10 -29 0 -4 7 -3 19 3 26 8 10 4 18 -13
33 l-24 19 22 1 c20 0 21 3 13 26 -6 14 -10 39 -10 55 0 27 -2 29 -20 19 -14
-7 -20 -8 -20 0 0 6 -10 4 -23 -5 -13 -8 -27 -12 -30 -9 -4 4 -9 -1 -13 -10
-3 -9 -12 -16 -20 -16 -8 0 -14 -5 -14 -10 0 -6 -6 -9 -12 -8 -7 2 -12 -3 -10
-10 1 -8 -3 -12 -10 -9 -7 2 -21 0 -30 -5 -14 -6 -16 -5 -12 7 4 8 12 15 19
15 15 0 47 34 39 42 -3 3 0 9 7 14 8 5 10 3 4 -5 -5 -9 -2 -12 11 -9 20 4 21
40 2 47 -5 2 0 10 11 18 12 8 21 22 22 31 0 10 3 12 5 5 3 -7 0 -22 -6 -33
-10 -18 -8 -24 7 -36 25 -18 34 -17 40 5 3 11 11 17 18 15 15 -6 28 48 13 57
-6 4 -8 18 -4 35 7 28 8 28 22 9 15 -19 15 -19 9 6 -8 32 15 45 47 28 17 -9
23 -8 30 5 15 26 57 19 88 -14 36 -38 46 -38 55 3 6 29 8 30 16 12 6 -14 7 -5
3 27 -7 55 3 98 18 77 7 -10 8 -8 5 9 -3 12 -2 20 3 17 8 -5 22 32 29 78 0 4
4 7 8 7 3 0 4 -3 1 -6z m878 -14 c0 -11 -4 -20 -8 -20 -10 0 -11 24 -1 33 9 9
9 10 9 -13z m-1169 -22 c-3 -7 -5 -2 -5 12 0 14 2 19 5 13 2 -7 2 -19 0 -25z
m348 11 c-10 -15 -25 -10 -19 6 4 8 10 12 15 9 5 -3 7 -10 4 -15z m205 11 c0
-5 -4 -10 -9 -10 -6 0 -13 5 -16 10 -3 6 1 10 9 10 9 0 16 -4 16 -10z m-3453
-22 c-3 -8 -6 -5 -6 6 -1 11 2 17 5 13 3 -3 4 -12 1 -19z m493 12 c0 -5 -5
-10 -11 -10 -5 0 -7 5 -4 10 3 6 8 10 11 10 2 0 4 -4 4 -10z m1810 0 c0 -5 -5
-10 -11 -10 -5 0 -7 5 -4 10 3 6 8 10 11 10 2 0 4 -4 4 -10z m-2326 -18 c-3
-9 -16 -22 -30 -29 -29 -13 -30 -10 -6 22 20 28 42 33 36 7z m2546 9 c0 -6 -4
-13 -10 -16 -5 -3 -10 1 -10 9 0 9 5 16 10 16 6 0 10 -4 10 -9z m829 -37 c6
-25 9 -49 6 -55 -4 -5 -1 -9 5 -9 6 0 8 -5 4 -11 -5 -8 -13 -4 -24 11 -13 17
-19 19 -22 9 -3 -8 -13 -14 -24 -14 -14 0 -19 -7 -18 -23 2 -31 -17 -13 -20
20 -3 21 1 24 26 20 15 -2 28 0 29 4 0 5 3 18 6 29 3 11 6 30 7 43 2 35 13 26
25 -24z m621 28 c0 -5 -7 -17 -16 -28 -8 -10 -14 -14 -11 -9 2 6 7 18 10 28 7
17 17 23 17 9z m-3693 -39 c-3 -10 -5 -4 -5 12 0 17 2 24 5 18 2 -7 2 -21 0
-30z m246 26 c-7 -7 -10 -26 -7 -43 5 -29 4 -30 -8 -10 -7 12 -19 19 -25 17
-7 -3 -13 3 -13 12 0 9 4 14 9 11 5 -3 11 1 15 9 3 8 13 15 23 15 13 0 14 -3
6 -11z m2197 -10 c0 -11 -4 -17 -10 -14 -15 9 -12 -19 5 -41 14 -19 14 -19 15
0 0 11 2 17 5 14 4 -3 3 -29 -1 -58 -5 -36 -10 -48 -16 -38 -7 9 -8 7 -5 -9 3
-13 1 -25 -3 -28 -5 -3 -7 11 -5 30 2 19 0 35 -4 35 -13 0 -12 101 0 116 15
19 19 18 19 -7z m1090 11 c0 -5 -2 -10 -4 -10 -3 0 -8 5 -11 10 -3 6 -1 10 4
10 6 0 11 -4 11 -10z m894 4 c20 -8 21 -24 2 -24 -8 0 -17 -6 -20 -12 -4 -10
-8 -10 -11 -2 -3 7 -15 10 -25 7 -11 -3 -20 0 -20 6 0 6 11 11 25 11 14 0 25
5 25 10 0 12 3 12 24 4z m-4524 -14 c0 -5 -5 -10 -11 -10 -5 0 -7 5 -4 10 3 6
8 10 11 10 2 0 4 -4 4 -10z m1611 -13 c-10 -9 -11 -8 -5 6 3 10 9 15 12 12 3
-3 0 -11 -7 -18z m457 11 c-6 -18 -28 -21 -28 -4 0 9 7 16 16 16 9 0 14 -5 12
-12z m82 -38 c0 -38 -4 -50 -15 -50 -9 0 -15 10 -16 23 -1 21 -1 21 -9 -3 -7
-21 -8 -17 -9 21 -1 50 3 59 31 59 15 0 18 -8 18 -50z m-179 13 c-8 -15 -10
-15 -11 -2 0 17 10 32 18 25 2 -3 -1 -13 -7 -23z m614 -59 c-3 -29 -9 -56 -13
-58 -8 -5 -4 101 5 124 10 29 15 -9 8 -66z m683 32 c1 -38 -17 -76 -35 -76 -7
0 -13 -5 -13 -11 0 -5 5 -7 10 -4 6 3 10 4 10 2 0 -13 -31 -77 -40 -82 -13 -8
-13 8 0 21 14 14 0 54 -19 55 -10 0 -11 2 -3 6 6 2 12 9 12 14 0 6 -5 7 -11 3
-7 -4 -9 1 -7 12 2 11 11 18 21 18 19 -2 20 25 2 38 -6 5 -3 8 6 8 9 0 22 6
28 13 19 24 38 16 39 -17z m-3481 -12 c-9 -9 -28 6 -21 18 4 6 10 6 17 -1 6
-6 8 -13 4 -17z m223 -12 c0 -7 -4 -10 -10 -7 -5 3 -10 16 -10 28 0 18 2 19
10 7 5 -8 10 -21 10 -28z m2031 11 c-8 -15 -10 -15 -11 -2 0 17 10 32 18 25 2
-3 -1 -13 -7 -23z m-2401 -9 c0 -24 -1 -24 -17 -9 -14 14 -14 18 -2 26 19 12
19 12 19 -17z m1210 4 c0 -13 -23 -5 -28 10 -2 7 2 10 12 6 9 -3 16 -11 16
-16z m1540 -83 c0 -28 -7 -51 -20 -66 -22 -28 -23 -26 -11 18 5 18 6 35 2 37
-4 3 -13 -18 -20 -46 -9 -34 -20 -52 -32 -55 -15 -4 -17 -8 -8 -19 19 -24 1
-15 -26 11 -19 20 -21 25 -7 23 10 -2 16 2 14 10 -1 8 2 11 8 7 6 -3 7 -12 4
-18 -5 -8 -4 -9 3 -2 14 13 45 184 37 199 -4 6 7 -4 25 -22 25 -27 31 -42 31
-77z m-2501 50 c0 -5 -4 -3 -9 5 -5 8 -9 22 -9 30 0 16 17 -16 18 -35z m4041
35 c0 -17 -27 -65 -44 -79 -19 -16 -22 -1 -4 17 9 9 8 12 -4 12 -14 0 -23 -17
-33 -60 -2 -8 -5 -22 -7 -30 -2 -8 -12 -26 -22 -40 l-18 -25 7 25 c4 14 12 36
18 50 5 14 12 34 14 45 7 35 33 67 51 60 9 -3 13 -3 9 1 -8 8 11 34 24 34 5 0
9 -5 9 -10z m-630 -40 c-6 -12 -14 -19 -17 -17 -2 3 1 15 7 27 6 12 14 19 17
17 2 -3 -1 -15 -7 -27z m-1873 -12 c-3 -7 -5 -2 -5 12 0 14 2 19 5 13 2 -7 2
-19 0 -25z m2007 -13 c-4 -8 -8 -15 -10 -15 -2 0 -4 7 -4 15 0 8 4 15 10 15 5
0 7 -7 4 -15z m516 6 c0 -5 -7 -11 -15 -15 -15 -5 -20 5 -8 17 9 10 23 9 23
-2z m-1970 -23 c0 -18 -2 -20 -9 -8 -6 8 -7 18 -5 22 9 14 14 9 14 -14z m1110
12 c0 -5 -5 -10 -11 -10 -5 0 -7 5 -4 10 3 6 8 10 11 10 2 0 4 -4 4 -10z
m-1480 -31 c0 -5 -5 -9 -12 -9 -6 0 -8 3 -5 7 4 3 1 13 -6 22 -11 14 -10 14 6
2 9 -7 17 -17 17 -22z m300 21 c0 -5 -5 -10 -11 -10 -5 0 -7 5 -4 10 3 6 8 10
11 10 2 0 4 -4 4 -10z m567 -12 c-3 -8 -6 -5 -6 6 -1 11 2 17 5 13 3 -3 4 -12
1 -19z m-2507 -18 c0 -3 -11 -6 -24 -6 -18 -1 -22 2 -19 17 4 15 8 16 24 6 10
-6 19 -14 19 -17z m4188 16 c-7 -8 -15 -12 -17 -11 -5 6 10 25 20 25 5 0 4 -6
-3 -14z m-4438 -2 c0 -1 -3 -9 -6 -18 -8 -22 -24 -20 -24 2 0 10 7 19 15 19 8
0 15 -1 15 -3z m1084 -19 c-7 -16 -24 -21 -24 -6 0 8 7 13 27 20 1 1 0 -6 -3
-14z m386 -22 c0 -25 -1 -26 -16 -11 -9 9 -13 21 -10 27 13 20 26 11 26 -16z
m310 17 c0 -5 -5 -10 -11 -10 -5 0 -7 5 -4 10 3 6 8 10 11 10 2 0 4 -4 4 -10z
m2260 1 c0 -5 -7 -11 -14 -14 -10 -4 -13 -1 -9 9 6 15 23 19 23 5z m-3940 -16
c0 -8 -4 -15 -9 -15 -13 0 -22 16 -14 24 11 11 23 6 23 -9z m2687 -7 c-3 -8
-6 -5 -6 6 -1 11 2 17 5 13 3 -3 4 -12 1 -19z m50 -30 c2 -14 -6 -29 -17 -36
-19 -12 -20 -9 -20 39 0 49 1 51 18 36 10 -9 18 -27 19 -39z m33 31 c0 -11 -5
-19 -12 -17 -17 6 -19 38 -2 38 8 0 14 -9 14 -21z m583 15 c3 -4 -1 -20 -9
-36 -12 -24 -18 -27 -30 -17 -11 9 -14 8 -15 -5 -2 -20 -3 -25 -17 -59 -7 -16
-12 -33 -12 -38 0 -5 -6 -9 -14 -9 -8 0 -20 -13 -27 -29 -7 -16 -21 -34 -31
-40 -17 -10 -18 -10 -10 6 11 19 12 25 12 49 0 8 5 12 11 9 6 -4 13 2 16 14 3
12 10 21 15 21 5 0 6 -4 3 -10 -3 -5 -2 -10 4 -10 18 0 18 24 -1 44 -17 19
-17 20 2 38 11 10 20 25 20 33 0 9 6 12 15 9 8 -4 15 -1 15 6 0 6 4 9 9 6 5
-3 11 1 15 9 6 16 18 19 29 9z m-2008 -44 c3 -5 -1 -10 -10 -10 -9 0 -13 5
-10 10 3 6 8 10 10 10 2 0 7 -4 10 -10z m165 -9 c0 -5 7 -16 14 -24 13 -13 12
-14 -10 -14 -19 0 -24 5 -24 23 0 13 5 24 10 24 6 0 10 -4 10 -9z m2360 -20
c-15 -29 -12 -49 8 -54 9 -2 7 -3 -5 -2 -13 1 -23 -3 -23 -8 0 -8 -3 -8 -11 0
-7 7 -4 21 11 47 23 37 39 51 20 17z m-1810 1 c0 -4 -10 -13 -22 -21 -23 -14
-23 -14 -4 8 20 22 26 25 26 13z m510 -29 c0 9 5 17 11 17 6 0 8 -7 5 -16 -3
-9 -6 -20 -6 -26 0 -6 -9 -3 -20 7 -11 10 -20 14 -20 10 0 -4 -9 0 -20 10 -11
10 -17 22 -14 27 4 5 19 -3 35 -18 23 -22 29 -24 29 -11z m1227 15 c-2 -13 -8
-32 -13 -43 -7 -18 -6 -18 9 -6 16 12 17 9 13 -39 -5 -58 -11 -71 -19 -40 -3
11 -1 20 4 20 5 0 9 9 9 20 0 11 -6 20 -14 20 -17 0 -28 -29 -28 -76 0 -19 -4
-34 -10 -34 -5 0 -6 -5 -3 -11 4 -6 -2 -20 -13 -32 -12 -12 -21 -25 -21 -29
-1 -10 -3 -10 -23 -3 -22 9 -23 22 -2 42 12 13 18 13 24 4 12 -20 23 5 25 58
1 25 9 62 18 82 8 19 19 47 22 62 9 32 29 37 22 5z m-2541 -24 c-3 -8 -1 -14
4 -14 6 0 10 -5 10 -10 0 -21 -38 9 -42 34 -5 22 -3 24 14 15 11 -6 17 -17 14
-25z m1861 4 c-3 -8 -6 -5 -6 6 -1 11 2 17 5 13 3 -3 4 -12 1 -19z m517 -15
c-8 -49 -20 -61 -26 -29 -5 22 14 66 28 66 3 0 2 -17 -2 -37z m445 15 c-8 -9
38 -68 54 -68 10 0 16 4 13 8 -2 4 4 8 14 8 10 0 16 -4 14 -8 -3 -4 -1 -8 5
-8 5 0 11 6 14 13 3 9 7 9 20 -1 15 -13 16 -44 1 -91 -7 -23 -8 -24 -15 -5 -6
16 -8 15 -8 -8 -1 -20 4 -28 16 -28 9 0 13 -3 10 -7 -4 -3 -3 -11 2 -17 5 -6
11 -28 15 -48 6 -30 3 -41 -13 -55 -11 -9 -18 -20 -15 -25 3 -4 2 -13 -1 -19
-4 -6 -17 3 -31 22 l-24 33 0 -36 c0 -40 -25 -72 -36 -44 -3 9 -10 13 -15 10
-5 -3 -9 3 -9 13 0 12 -3 14 -8 6 -4 -7 -12 -9 -17 -5 -27 19 -25 94 4 132 12
17 17 30 11 30 -7 0 -8 6 -2 17 10 17 -2 50 -23 65 -13 9 -34 -24 -31 -48 2
-10 -3 -26 -10 -34 -16 -19 -7 -60 13 -60 11 0 13 -5 8 -17 -13 -32 -17 -61
-8 -66 14 -9 3 -125 -12 -131 -10 -4 -16 8 -20 42 -9 63 -12 71 -31 79 -22 8
-50 -27 -32 -38 21 -13 -4 -28 -29 -18 -38 14 -21 59 30 78 26 10 29 42 4 36
-48 -11 -78 -33 -89 -62 -8 -22 -15 -29 -20 -20 -5 7 -6 -2 -5 -21 2 -18 12
-38 22 -46 25 -18 13 -51 -13 -37 -16 9 -18 7 -15 -13 3 -13 -2 -28 -11 -36
-14 -11 -23 -10 -56 6 -22 10 -40 22 -40 25 0 4 9 17 19 31 11 14 18 33 15 44
-7 28 24 97 41 91 9 -4 19 8 29 34 17 43 21 83 7 75 -4 -3 -6 6 -3 20 3 17 7
21 12 14 5 -9 9 -9 14 -1 4 6 11 11 17 11 13 0 7 -23 -11 -37 -13 -11 -12 -12
6 -13 12 0 28 8 35 17 10 11 10 14 2 9 -7 -4 -13 -2 -13 3 0 6 7 11 15 11 9 0
15 9 15 23 0 12 7 33 16 45 13 19 18 21 32 10 9 -7 13 -8 9 -2 -4 6 7 30 23
53 17 22 30 46 30 52 0 6 6 9 13 6 8 -3 20 -1 28 3 12 8 25 7 18 -2z m-3639
-9 c0 -11 -37 -12 -43 -1 -3 4 6 8 19 8 13 1 24 -2 24 -7z m1458 -27 c2 -18 7
-30 12 -27 4 3 11 -2 14 -11 3 -8 2 -13 -3 -10 -9 6 -28 -12 -30 -26 -3 -17
-15 -43 -22 -48 -4 -3 -11 -32 -14 -65 -8 -79 -26 -155 -37 -149 -4 3 -3 14 2
25 6 10 8 19 5 19 -3 0 -1 9 5 20 9 17 8 20 -10 20 -12 0 -20 7 -20 18 0 14 2
15 10 2 9 -13 11 -13 20 0 5 8 8 20 5 27 -2 6 5 34 15 62 10 28 16 51 12 51
-3 0 5 11 17 24 13 14 18 26 13 30 -6 3 -12 0 -15 -6 -2 -7 -8 -9 -13 -5 -5 5
-1 21 8 37 12 21 13 31 4 40 -8 10 -7 11 4 8 8 -3 16 -19 18 -36z m815 18 c-8
-30 -18 -32 -21 -4 -1 15 4 24 12 24 9 0 12 -7 9 -20z m-693 0 c0 -5 -11 -17
-24 -26 -14 -8 -22 -22 -20 -29 3 -7 -1 -26 -9 -40 -12 -23 -15 -25 -20 -11
-4 10 -3 15 3 11 6 -3 10 -3 11 2 0 4 2 20 3 35 2 37 56 93 56 58z m510 -11
c0 -6 -4 -7 -10 -4 -5 3 -10 11 -10 16 0 6 5 7 10 4 6 -3 10 -11 10 -16z
m-2101 -3 c-2 -2 -15 -9 -29 -15 -24 -11 -24 -11 -6 3 16 13 49 24 35 12z
m871 -6 c0 -5 -2 -10 -4 -10 -3 0 -8 5 -11 10 -3 6 -1 10 4 10 6 0 11 -4 11
-10z m180 -25 c10 -12 10 -15 -3 -15 -9 0 -14 -6 -12 -12 11 -31 13 -68 4 -68
-6 0 -7 -4 -4 -10 3 -5 1 -10 -6 -10 -6 0 -9 8 -7 18 3 11 2 40 -2 65 -7 50 5
62 30 32z m1611 2 c-6 -8 -8 -16 -5 -20 3 -3 -4 -10 -15 -17 -13 -6 -19 -16
-14 -23 11 -18 3 -81 -12 -96 -12 -13 -13 -9 -8 25 6 36 5 38 -11 25 -11 -9
-16 -24 -13 -38 3 -19 2 -21 -9 -12 -8 6 -14 8 -14 4 0 -5 -3 -6 -6 -3 -9 9
25 68 69 121 22 26 42 47 45 47 2 0 -1 -6 -7 -13z m-240 -22 c12 8 11 -6 -1
-25 -8 -13 -10 -12 -10 3 0 10 -4 16 -9 13 -5 -4 -6 4 -3 16 5 19 7 20 10 5 2
-9 8 -15 13 -12z m1637 -49 c2 -33 7 -54 13 -51 5 4 7 10 4 14 -2 5 4 16 15
26 19 17 20 17 19 -1 0 -10 -13 -29 -29 -41 -24 -20 -29 -21 -34 -7 -3 8 -9
13 -14 10 -4 -2 -9 4 -9 15 -1 11 2 17 7 14 4 -3 10 2 14 10 3 8 1 17 -4 20
-13 8 -8 56 5 52 5 -2 11 -29 13 -61z m-881 -45 c-5 -14 -11 -28 -11 -31 -2
-6 -39 -63 -46 -70 -3 -3 -7 -16 -8 -30 -2 -14 -9 -31 -14 -37 -13 -16 5 -17
33 -2 19 10 19 9 4 -27 -11 -28 -12 -40 -4 -50 9 -11 8 -14 -4 -14 -9 0 -20
-7 -25 -16 -8 -15 -10 -15 -15 0 -4 10 -1 19 7 22 11 4 14 24 7 55 0 3 -13 5
-28 3 -16 -2 -21 -1 -12 2 20 6 33 44 15 44 -6 0 -23 -8 -36 -17 -24 -16 -24
-16 -11 1 12 14 12 19 2 25 -7 5 3 8 25 7 25 -1 39 4 41 14 4 13 3 13 -7 0
-20 -28 2 41 34 108 56 114 50 107 58 71 3 -18 1 -44 -5 -58z m-3032 69 c-3
-5 -11 -10 -16 -10 -6 0 -7 5 -4 10 3 6 11 10 16 10 6 0 7 -4 4 -10z m4025 -5
c0 -8 -4 -15 -10 -15 -5 0 -10 7 -10 15 0 8 5 15 10 15 6 0 10 -7 10 -15z
m-3219 -63 c1 -26 5 -60 9 -77 7 -25 8 -21 8 25 0 86 1 88 12 70 6 -9 7 -40 3
-75 -7 -65 -7 -70 0 -100 11 -50 18 -199 8 -185 -6 8 -11 10 -11 4 0 -6 7 -17
15 -24 13 -10 15 -9 16 11 1 13 7 -5 14 -41 7 -36 10 -66 5 -68 -5 -2 -2 -15
6 -30 9 -19 10 -28 2 -33 -6 -4 -8 -19 -5 -38 4 -16 2 -33 -3 -36 -6 -3 -10 3
-10 14 0 11 -4 22 -9 25 -5 4 -7 -12 -4 -36 4 -29 3 -39 -5 -34 -7 4 -11 17
-11 29 1 41 -13 192 -18 207 -3 8 -5 29 -5 45 1 17 -3 59 -8 95 -5 36 -15 101
-21 145 -17 123 -18 129 -5 137 8 6 7 8 -2 8 -7 0 -10 5 -7 10 13 21 25 -2 26
-48z m1759 49 c0 -6 -5 -13 -10 -16 -6 -4 -8 -11 -5 -16 4 -5 -1 -9 -9 -9 -9
0 -16 7 -16 15 0 8 -6 15 -12 15 -20 0 14 20 35 20 9 0 17 -4 17 -9z m1618 0
c9 -5 4 -8 -16 -7 -17 1 -28 4 -25 9 6 9 25 9 41 -2z m-2827 -28 c-12 -20 -14
-14 -5 12 4 9 9 14 11 11 3 -2 0 -13 -6 -23z m69 18 c0 -6 -4 -12 -8 -15 -5
-3 -9 1 -9 9 0 8 4 15 9 15 4 0 8 -4 8 -9z m1312 2 c-6 -2 -10 -9 -6 -14 3 -5
-2 -9 -10 -9 -17 0 -21 12 -9 23 3 4 13 7 22 6 11 0 12 -2 3 -6z m-3042 -29
c0 -5 -26 -55 -38 -74 -3 -5 -22 21 -22 31 0 9 40 49 50 49 6 0 10 -3 10 -6z
m1632 -24 c-2 -17 -9 -27 -15 -23 -6 3 -7 1 -3 -6 4 -6 0 -18 -9 -27 -15 -15
-15 -14 -9 12 6 26 30 74 37 74 2 0 2 -13 -1 -30z m2638 1 c0 -5 -7 -12 -16
-15 -14 -5 -15 -4 -4 9 14 17 20 19 20 6z m-4808 -31 c3 -20 0 -30 -9 -30 -13
0 -18 41 -6 53 10 10 10 9 15 -23z m1785 -2 c-3 -8 -6 -5 -6 6 -1 11 2 17 5
13 3 -3 4 -12 1 -19z m2877 -46 c3 -23 9 -60 12 -81 3 -22 13 -42 21 -45 7 -3
12 -2 9 3 -3 4 4 17 16 27 20 18 21 18 15 1 -4 -10 -3 -16 2 -12 5 3 12 1 16
-5 3 -5 -1 -10 -10 -10 -12 0 -15 -5 -11 -16 5 -13 1 -14 -23 -9 -21 4 -30 2
-34 -9 -9 -23 -26 -19 -20 4 3 11 -2 36 -12 56 -11 23 -15 50 -13 73 3 20 2
45 -3 56 -4 11 -8 14 -8 8 -1 -18 -21 -16 -21 1 0 18 31 25 46 11 6 -6 14 -30
18 -53z m-2878 25 c8 -4 14 -13 14 -18 0 -6 -4 -8 -9 -4 -6 3 -14 -2 -20 -12
-8 -16 -10 -14 -16 10 -8 31 3 73 13 47 3 -8 11 -19 18 -23z m-1333 7 c-4 -11
-1 -15 13 -12 11 2 20 -4 22 -14 2 -10 -2 -18 -8 -18 -6 0 -8 6 -4 13 6 10 4
10 -7 0 -7 -7 -17 -13 -21 -13 -10 0 -11 44 -1 53 10 11 13 8 6 -9z m1622 -2
c-3 -3 -11 0 -18 7 -9 10 -8 11 6 5 10 -3 15 -9 12 -12z m1073 -12 c-9 -13
-16 -16 -23 -9 -7 7 -5 13 5 19 24 15 31 11 18 -10z m-37 -33 c-8 -8 -11 -8
-11 1 0 7 -8 12 -17 12 -16 1 -16 2 2 15 17 14 20 13 28 -1 6 -10 5 -20 -2
-27z m-31 -34 c-1 -14 -4 -13 -15 7 -19 33 -19 45 0 26 8 -8 15 -23 15 -33z
m-3060 12 c0 -8 -2 -15 -4 -15 -2 0 -6 7 -10 15 -3 8 -1 15 4 15 6 0 10 -7 10
-15z m420 6 c0 -15 -46 -62 -53 -54 -8 7 31 63 44 63 5 0 9 -4 9 -9z m3115
-11 c-3 -5 -12 -10 -18 -10 -7 0 -6 4 3 10 19 12 23 12 15 0z m-509 -30 c-3
-20 -2 -29 4 -25 6 4 9 1 8 -7 -4 -15 -36 -30 -49 -22 -5 3 0 18 11 34 11 15
20 33 20 39 0 6 3 11 6 11 4 0 4 -14 0 -30z m894 26 c0 -3 -4 -8 -10 -11 -5
-3 -10 -1 -10 4 0 6 5 11 10 11 6 0 10 -2 10 -4z m-416 -15 c3 -5 -1 -11 -9
-14 -9 -4 -12 -1 -8 9 6 16 10 17 17 5z m-2636 -41 c-1 -37 -16 -54 -44 -49
-23 4 -24 -3 -3 -22 l24 -21 -31 21 c-34 22 -44 19 -44 -12 0 -11 3 -18 6 -14
3 3 18 -5 32 -18 25 -24 26 -25 13 -90 -14 -79 -39 -112 -70 -96 -12 7 -21 21
-21 32 0 11 -4 17 -10 14 -5 -3 -7 0 -4 9 3 8 7 30 8 48 2 18 4 39 5 46 0 7 6
10 12 6 8 -4 9 0 4 15 -3 11 -2 28 4 38 6 12 6 24 -1 38 -10 18 -10 19 5 6 15
-12 17 -11 17 6 0 22 46 69 75 76 11 3 21 5 22 6 2 0 2 -17 1 -39z m454 -48
c3 -40 1 -61 -6 -59 -20 7 -35 114 -19 131 13 13 21 -10 25 -72z m-978 49 c2
-3 -15 -6 -39 -6 -38 0 -41 1 -23 11 20 11 54 8 62 -5z m3061 -21 c0 -22 -4
-40 -8 -40 -5 0 -5 -4 -2 -10 3 -5 1 -10 -4 -10 -6 0 -11 4 -11 9 0 5 -7 11
-15 13 -12 2 -10 10 11 41 15 20 28 37 28 37 1 0 1 -18 1 -40z m-1490 20 c3
-5 1 -10 -4 -10 -6 0 -11 5 -11 10 0 6 2 10 4 10 3 0 8 -4 11 -10z m2304 -55
c0 -47 -3 -55 -19 -55 -10 0 -21 6 -23 13 -4 9 -8 9 -15 -2 -5 -7 -14 -11 -20
-7 -6 3 -13 1 -15 -4 -3 -6 -4 -5 -2 2 1 7 8 12 14 11 6 -2 11 2 11 7 0 6 7
10 16 10 8 0 13 4 9 9 -3 5 4 16 15 24 12 8 20 18 19 23 -2 13 0 24 5 24 3 0
5 -25 5 -55z m-4211 -10 c0 -16 3 -50 7 -74 5 -31 4 -42 -4 -37 -6 4 -11 17
-11 29 0 17 -2 19 -9 8 -7 -11 -11 -10 -20 7 -13 25 -3 112 10 90 6 -9 9 -5 9
12 0 20 2 22 10 10 5 -8 9 -28 8 -45z m1249 39 c8 -21 -13 -42 -28 -27 -13 13
-5 43 11 43 6 0 13 -7 17 -16z m694 -1 c3 -17 7 -61 12 -128 6 -78 0 -128 -15
-119 -5 4 -7 -8 -5 -27 3 -19 6 -34 7 -34 6 0 6 -36 0 -40 -5 -3 -11 21 -15
52 -4 32 -9 66 -12 77 -3 11 -1 16 5 12 6 -4 11 14 14 44 1 28 -1 50 -6 50 -5
0 -6 13 -3 28 3 15 1 34 -5 42 -8 12 -9 12 -4 -2 3 -12 1 -15 -9 -12 -10 4
-11 12 -3 35 9 26 36 41 39 22z m293 -34 c5 -1 12 5 17 12 6 11 9 10 15 -4 8
-23 42 -22 40 1 0 9 6 17 14 17 8 0 21 4 28 9 7 4 19 2 27 -4 12 -10 15 -10
15 1 1 8 11 3 25 -13 13 -16 29 -28 34 -28 6 0 8 -7 5 -15 -4 -8 -10 -12 -15
-9 -5 3 -9 -2 -9 -11 0 -9 -4 -14 -9 -10 -5 3 -13 1 -16 -5 -4 -6 -28 -10 -54
-9 -74 4 -90 -15 -46 -55 l25 -23 -87 -21 c-48 -12 -89 -20 -91 -17 -6 6 21
135 28 135 10 0 30 47 31 73 1 22 1 22 7 -1 4 -13 11 -23 16 -23z m1496 32 c0
-6 -4 -12 -9 -15 -13 -8 -42 4 -35 15 7 12 44 12 44 0z m-3382 -13 c-3 -7 -15
-15 -29 -18 l-24 -6 23 -8 c22 -7 30 -40 12 -51 -9 -6 -5 -53 8 -85 8 -22 9
-60 1 -60 -4 0 -10 -13 -14 -29 -4 -20 -13 -31 -28 -33 -12 -2 -21 -9 -20 -15
2 -7 4 -26 5 -42 1 -17 6 -31 10 -31 4 0 8 -14 8 -31 0 -16 -4 -28 -9 -25 -5
4 -7 -3 -4 -14 3 -10 14 -22 24 -25 18 -6 23 -16 20 -42 -1 -7 3 -13 9 -13 5
0 10 5 10 10 0 6 5 10 10 10 6 0 9 -3 9 -7 -1 -5 0 -11 1 -15 4 -14 7 -28 9
-40 1 -9 4 -8 11 2 8 12 10 12 11 -5 0 -11 16 -33 35 -48 29 -24 35 -26 40
-13 8 20 51 21 51 1 0 -8 -5 -11 -10 -8 -5 3 -6 -11 -2 -36 4 -27 3 -41 -4
-41 -6 0 -11 4 -11 9 0 15 -50 62 -60 56 -6 -3 -10 -1 -10 5 0 6 -27 37 -60
69 -41 40 -68 59 -85 59 -15 0 -25 -6 -25 -15 0 -8 5 -11 10 -8 13 8 13 2 -4
-29 l-13 -26 -26 20 c-29 23 -43 25 -53 8 -4 -7 -3 -8 4 -4 7 4 12 2 12 -4 0
-6 5 -8 12 -4 9 5 8 2 -1 -9 -8 -10 -11 -20 -7 -24 3 -3 6 -2 6 4 0 13 38 5
47 -10 4 -6 0 -8 -10 -4 -11 4 -14 2 -11 -8 4 -9 -4 -19 -19 -26 -14 -6 -31
-25 -38 -40 -13 -32 -28 -38 -30 -11 -1 9 -2 24 -3 32 -1 8 4 25 11 38 9 14
11 28 5 38 -8 14 -12 13 -31 -7 -20 -22 -21 -24 -4 -31 14 -7 13 -8 -4 -4 -13
2 -23 -1 -23 -7 0 -6 -3 -7 -7 -3 -4 4 1 22 11 41 14 25 40 47 92 75 l73 40
-5 52 c-8 71 -11 81 -30 74 -12 -5 -14 -1 -9 17 5 17 4 18 -4 7 -12 -17 -15
-15 -33 30 -12 29 -12 39 -1 60 7 14 13 46 13 73 0 46 12 62 24 31 3 -9 6 -29
6 -44 0 -16 3 -31 8 -33 4 -3 5 16 3 41 -3 43 -1 48 35 79 22 18 33 33 27 33
-15 0 -13 71 2 82 17 13 57 9 53 -4z m2742 -17 c-6 -12 -8 -27 -4 -33 4 -7 3
-8 -4 -4 -15 9 -15 -9 -1 -36 9 -17 8 -19 -9 -14 -11 4 -23 2 -27 -4 -4 -6 -1
-9 7 -8 7 2 12 -5 12 -15 -2 -14 1 -15 12 -6 11 9 14 7 14 -9 0 -24 -16 -37
-26 -21 -5 8 -9 7 -14 -2 -5 -7 -16 -14 -26 -15 -9 -1 -22 -8 -28 -14 -8 -8
-6 -9 9 -4 18 7 18 6 6 -9 -7 -9 -17 -15 -21 -12 -5 3 -14 -10 -21 -29 -11
-30 -14 -33 -24 -19 -16 21 -14 55 4 61 9 3 11 0 6 -9 -5 -8 -6 -12 -2 -9 3 3
6 8 6 12 1 4 17 23 36 41 22 22 31 37 25 43 -7 7 -1 22 16 45 14 18 33 49 41
68 8 18 17 31 19 28 3 -3 1 -15 -6 -26z m1778 -6 c0 -15 -6 -25 -14 -25 -17 0
-17 5 -4 31 14 25 18 24 18 -6z m-4608 6 c0 -6 -4 -13 -10 -16 -5 -3 -10 1
-10 9 0 9 5 16 10 16 6 0 10 -4 10 -9z m2248 -21 c-1 -18 -6 -30 -15 -30 -7 0
-13 5 -13 11 0 5 -4 7 -10 4 -18 -11 -11 4 12 25 12 11 23 20 24 20 2 0 2 -13
2 -30z m1612 20 c0 -5 -5 -10 -11 -10 -5 0 -7 5 -4 10 3 6 8 10 11 10 2 0 4
-4 4 -10z m857 4 c-3 -3 -12 -4 -19 -1 -8 3 -5 6 6 6 11 1 17 -2 13 -5z
m-1513 -19 c-7 -16 -24 -21 -24 -6 0 8 7 13 27 20 1 1 0 -6 -3 -14z m1476 11
c0 -2 -9 -6 -20 -9 -11 -3 -20 -1 -20 4 0 5 9 9 20 9 11 0 20 -2 20 -4z
m-3795 -16 c-3 -5 0 -7 8 -4 20 7 31 -14 17 -31 -7 -8 -10 -20 -8 -26 2 -7 10
2 17 20 19 46 47 38 44 -12 -2 -23 1 -35 7 -32 6 3 10 14 11 23 0 11 2 13 6 4
3 -7 -3 -22 -12 -32 -10 -11 -20 -34 -24 -52 -6 -31 -25 -42 -26 -15 -2 24
-17 47 -32 47 -10 0 -12 6 -7 22 6 21 5 21 -10 9 -15 -13 -18 -12 -23 8 -4 15
-8 19 -13 11 -4 -7 -10 -8 -13 -3 -7 11 40 73 54 73 6 0 7 -4 4 -10z m652 -12
c-3 -8 -6 -5 -6 6 -1 11 2 17 5 13 3 -3 4 -12 1 -19z m2043 12 c0 -5 -5 -10
-11 -10 -5 0 -7 5 -4 10 3 6 8 10 11 10 2 0 4 -4 4 -10z m855 0 c3 -5 1 -10
-4 -10 -6 0 -11 5 -11 10 0 6 2 10 4 10 3 0 8 -4 11 -10z m-4465 -4 c0 -3 -4
-8 -10 -11 -5 -3 -10 -1 -10 4 0 6 5 11 10 11 6 0 10 -2 10 -4z m3626 -15 c16
13 16 12 5 -8 -6 -13 -9 -23 -5 -23 3 0 1 -7 -6 -15 -16 -20 -32 -9 -24 17 5
18 3 20 -19 16 -22 -4 -24 -3 -14 13 10 17 13 17 29 2 15 -14 20 -14 34 -2z
m794 15 c0 -2 -7 -6 -15 -10 -8 -3 -15 -1 -15 4 0 6 7 10 15 10 8 0 15 -2 15
-4z m245 -5 c3 -6 -4 -15 -15 -21 -19 -10 -20 -10 -8 9 15 24 15 24 23 12z
m-4635 -22 c0 -6 -4 -7 -10 -4 -5 3 -10 11 -10 16 0 6 5 7 10 4 6 -3 10 -11
10 -16z m4478 -49 c-3 -18 0 -30 6 -30 7 0 10 -19 8 -50 -3 -32 0 -50 7 -50 8
0 9 -14 5 -42 -8 -54 -12 -58 -30 -34 -25 34 -38 5 -37 -79 1 -41 -2 -75 -8
-75 -5 0 -9 -22 -9 -50 0 -31 -9 -69 -24 -102 -14 -29 -31 -70 -39 -92 l-14
-39 -12 62 c-7 34 -9 66 -6 71 3 5 1 19 -6 31 -6 12 -12 64 -13 115 -1 90 0
93 27 115 26 21 27 23 12 46 -14 20 -14 30 -4 61 13 41 30 57 40 40 4 -6 11
11 14 38 10 62 22 97 34 90 5 -3 11 4 14 15 5 20 7 21 22 5 11 -11 16 -27 13
-46z m-1058 29 c0 -6 -4 -7 -10 -4 -5 3 -10 11 -10 16 0 6 5 7 10 4 6 -3 10
-11 10 -16z m969 -11 c-1 -18 -4 -44 -9 -58 -5 -18 -7 -9 -7 33 1 31 4 57 9
57 4 0 8 -15 7 -32z m-2755 -33 c4 -34 3 -45 -4 -35 -9 14 -15 99 -6 89 2 -2
6 -26 10 -54z m1046 40 c0 -8 -2 -15 -4 -15 -2 0 -6 7 -10 15 -3 8 -1 15 4 15
6 0 10 -7 10 -15z m-1950 1 c0 -2 -7 -7 -16 -10 -8 -3 -12 -2 -9 4 6 10 25 14
25 6z m299 -30 c0 -20 -1 -20 -9 -1 -6 16 -9 12 -12 -20 l-5 -40 -1 47 c-2 38
1 46 13 42 8 -4 15 -16 14 -28z m2836 25 c3 -5 1 -12 -5 -16 -5 -3 -10 1 -10
9 0 18 6 21 15 7z m-654 -16 c21 4 14 -34 -9 -52 -14 -11 -13 -13 6 -13 12 0
22 -4 22 -10 0 -5 -5 -10 -11 -10 -8 0 -8 -5 1 -15 7 -8 8 -15 3 -15 -20 0
-53 60 -53 96 0 28 3 34 13 27 6 -6 19 -9 28 -8z m751 -20 c-5 -30 -6 -30 -23
-8 -10 11 -10 14 -1 9 8 -5 12 0 12 14 0 12 4 19 9 16 4 -3 6 -17 3 -31z
m-535 19 c-3 -3 -12 -4 -19 -1 -8 3 -5 6 6 6 11 1 17 -2 13 -5z m-371 -31
c-10 -10 -19 5 -10 18 6 11 8 11 12 0 2 -7 1 -15 -2 -18z m411 21 c-3 -3 -12
-4 -19 -1 -8 3 -5 6 6 6 11 1 17 -2 13 -5z m-3755 -26 c-7 -7 -12 -8 -12 -2 0
14 12 26 19 19 2 -3 -1 -11 -7 -17z m4072 -44 c4 -15 2 -32 -5 -40 -6 -8 -7
-14 -3 -14 10 0 14 -7 52 -84 25 -52 33 -56 47 -24 16 36 39 33 53 -5 13 -36
8 -67 -11 -67 -6 0 -1 -10 11 -23 12 -13 19 -27 15 -30 -3 -4 0 -7 8 -7 8 0
22 -12 32 -25 17 -24 17 -25 -3 -25 -13 0 -20 -7 -20 -20 0 -11 4 -20 10 -20
5 0 7 7 4 15 -4 8 -1 15 5 15 6 0 11 -9 11 -19 0 -11 4 -22 10 -26 13 -8 -21
-45 -43 -45 -10 0 -15 5 -12 10 4 6 10 8 14 6 4 -3 8 1 8 9 0 8 -14 17 -30 21
-23 5 -34 2 -44 -12 -7 -10 -13 -12 -13 -6 0 7 -7 12 -16 12 -8 0 -13 -4 -9
-9 3 -5 0 -13 -6 -16 -17 -11 -23 3 -9 20 10 12 10 15 -1 15 -8 0 -4 8 10 19
20 16 21 19 7 24 -10 4 -15 3 -11 -3 5 -9 -8 -14 -19 -7 -2 1 -13 -9 -24 -23
l-21 -25 5 25 c5 20 3 22 -5 10 -6 -8 -11 -12 -11 -8 0 4 -13 3 -30 -2 -18 -5
-32 -5 -35 1 -4 5 -11 9 -16 9 -6 0 -3 -7 5 -16 9 -8 19 -13 24 -10 4 2 9 -4
9 -15 1 -10 -3 -19 -8 -19 -6 0 -8 4 -4 9 3 6 -7 9 -22 8 -24 -2 -28 1 -25 23
1 15 -1 20 -6 13 -5 -8 -13 -9 -22 -3 -12 8 -13 15 -3 41 14 37 11 47 -10 28
-7 -7 -12 -24 -9 -38 2 -15 0 -22 -5 -16 -4 6 -17 17 -28 25 -11 8 -17 11 -13
6 9 -11 -30 -48 -43 -41 -5 4 -7 10 -4 15 3 4 -13 7 -34 6 -22 -1 -39 0 -39 3
2 23 -4 41 -13 41 -5 0 -8 -4 -5 -9 4 -5 2 -20 -3 -33 -6 -13 -10 -16 -11 -8
0 13 -2 13 -9 1 -8 -12 -15 -13 -34 -4 -21 10 -26 9 -31 -4 -4 -9 -9 -13 -13
-10 -3 4 -13 1 -22 -6 -14 -11 -14 -10 -2 5 7 10 17 15 22 12 5 -3 9 2 9 11 0
13 -3 14 -22 3 -13 -7 -26 -11 -31 -10 -4 1 -6 -1 -5 -5 3 -9 -5 -13 -28 -13
-9 0 -12 5 -8 12 5 7 3 8 -6 3 -10 -6 -9 -11 5 -22 11 -7 22 -13 27 -13 16 0
7 -16 -14 -25 -13 -6 -22 -15 -21 -21 1 -6 -7 -10 -19 -10 -23 1 -44 -39 -26
-50 7 -5 8 -2 3 6 -5 8 -4 11 3 6 18 -11 -8 -96 -30 -96 -6 0 -3 -6 8 -14 10
-8 16 -18 11 -22 -4 -4 -7 -2 -7 5 0 7 -5 9 -10 6 -6 -4 -8 -11 -4 -16 3 -5 0
-16 -6 -24 -10 -12 -10 -15 0 -15 7 0 4 -7 -7 -17 -10 -10 -13 -14 -6 -9 8 5
13 4 13 -3 0 -7 5 -9 12 -5 7 4 8 3 4 -5 -4 -6 -12 -9 -17 -6 -5 4 -5 -3 0
-17 4 -13 23 -33 42 -45 70 -46 79 -54 79 -77 0 -12 -6 -31 -14 -42 -13 -17
-14 -16 -7 18 7 31 5 40 -14 58 -13 12 -29 22 -36 24 -26 4 -98 58 -105 78 -5
16 -8 18 -15 7 -6 -10 -10 -5 -15 19 -7 37 -11 39 -31 15 -13 -17 -14 -16 -9
7 4 22 4 23 -8 8 -7 -10 -16 -15 -19 -11 -4 3 -8 -7 -8 -23 -1 -22 -3 -24 -6
-7 -5 24 -29 38 -38 22 -4 -5 -16 2 -27 17 -18 22 -27 25 -60 22 -35 -3 -37
-2 -21 10 11 8 29 11 48 7 17 -3 54 -9 83 -12 l53 -6 -7 28 c-4 18 -3 26 3 22
7 -4 9 12 6 47 -3 30 0 78 6 108 6 29 13 82 16 118 14 166 23 184 100 194 26
4 56 11 65 16 18 10 66 11 195 8 69 -2 126 3 121 10 -3 5 1 9 10 9 9 0 12 -7
8 -19 -4 -13 0 -18 15 -18 12 0 21 7 21 15 0 8 3 14 8 14 23 -4 30 4 28 33 0
17 4 33 11 35 7 3 9 -3 6 -16 -4 -15 -1 -21 11 -21 19 0 21 -11 4 -28 -18 -18
6 -32 53 -32 20 0 39 -3 43 -7 11 -11 30 -10 37 0 9 13 -20 67 -36 67 -8 0
-19 -8 -25 -17 -9 -14 -10 -7 -6 31 6 48 30 91 46 81 4 -3 11 -17 14 -31z
m-2234 -4 c-20 -12 -33 -1 -19 16 9 11 15 12 23 4 8 -8 7 -13 -4 -20z m1155
20 c3 -5 1 -10 -4 -10 -6 0 -11 5 -11 10 0 6 2 10 4 10 3 0 8 -4 11 -10z m772
-5 c0 -8 -4 -15 -9 -15 -5 0 -6 -4 -3 -10 3 -5 -1 -10 -9 -10 -20 0 -20 5 1
30 21 24 20 24 20 5z m-1427 -9 c0 -2 -7 -7 -16 -10 -8 -3 -12 -2 -9 4 6 10
25 14 25 6z m-2346 -37 c-3 -5 -10 -7 -15 -3 -5 3 -7 10 -3 15 3 5 10 7 15 3
5 -3 7 -10 3 -15z m1938 -19 c3 -16 1 -30 -3 -30 -4 0 -9 15 -11 34 -5 42 8
38 14 -4z m66 10 c-4 -30 6 -42 15 -17 8 21 19 -1 24 -48 4 -28 2 -45 -5 -45
-6 0 -8 -10 -4 -22 5 -23 5 -23 -17 -4 -15 14 -18 22 -10 27 9 5 8 14 -5 34
-13 20 -16 37 -11 66 8 45 19 54 13 9z m1270 -1 c3 -11 2 -12 -6 0 -7 9 -11
10 -17 2 -4 -7 -1 -19 6 -27 10 -12 9 -13 -4 -8 -21 8 -36 -23 -31 -61 3 -23
2 -25 -4 -11 -8 19 -9 18 -15 -5 -4 -13 -7 -38 -7 -54 0 -17 -4 -35 -9 -40 -5
-6 -11 -19 -14 -30 -3 -11 -5 14 -4 56 2 57 -1 75 -10 72 -9 -4 -10 3 -4 24
14 47 41 94 51 88 6 -3 18 -1 27 4 22 13 36 9 41 -10z m-2786 -45 c-6 -35 -12
-29 -12 14 0 23 3 32 9 24 4 -7 6 -24 3 -38z m1675 14 c-3 -7 -5 -2 -5 12 0
14 2 19 5 13 2 -7 2 -19 0 -25z m2747 -5 c-4 -21 -9 -42 -12 -48 -4 -5 -5 -23
-3 -39 1 -16 -3 -33 -11 -38 -10 -8 -9 -9 4 -5 23 8 26 -16 27 -160 0 -98 -3
-123 -14 -123 -7 0 -21 -7 -30 -16 -13 -14 -14 -19 -3 -25 10 -7 9 -9 -4 -9
-10 0 -18 -4 -18 -10 0 -5 4 -10 10 -10 13 0 1 -90 -16 -115 -8 -11 -14 -26
-14 -35 0 -8 -14 -33 -30 -54 -34 -45 -40 -40 -10 8 14 24 19 49 19 97 -1 35
4 77 10 93 6 16 9 31 7 34 -3 3 -8 -3 -11 -12 -3 -9 -7 -23 -10 -31 -2 -9 -11
-12 -22 -9 -12 4 -14 3 -6 -3 12 -9 12 -51 -1 -72 -4 -6 -15 -10 -24 -9 -9 2
-21 -7 -27 -20 -17 -33 -24 -37 -19 -10 5 20 3 19 -11 -6 -20 -35 -36 -20 -29
28 2 17 6 49 7 71 4 47 53 149 68 139 6 -3 15 -16 20 -28 7 -16 8 -9 5 26 -4
35 -1 52 14 70 10 14 22 38 26 54 4 16 18 51 31 78 18 36 23 58 19 82 -4 18
-2 35 4 39 5 3 10 22 10 41 0 31 12 45 23 27 2 -5 2 -2 0 6 -3 12 12 30 25 31
2 0 0 -17 -4 -37z m-3070 12 c3 -8 1 -15 -4 -15 -6 0 -10 7 -10 15 0 8 2 15 4
15 2 0 6 -7 10 -15z m941 -2 c14 -14 18 -14 26 -2 7 11 9 11 9 -3 0 -29 -149
-64 -164 -39 -27 43 90 83 129 44z m-918 -15 c-3 -8 -6 -5 -6 6 -1 11 2 17 5
13 3 -3 4 -12 1 -19z m1113 2 c0 -5 -5 -10 -11 -10 -5 0 -7 5 -4 10 3 6 8 10
11 10 2 0 4 -4 4 -10z m1973 -103 c2 -81 0 -92 -10 -72 -17 31 -27 120 -17
137 5 7 9 16 10 21 1 4 2 10 3 14 0 3 3 4 6 1 3 -3 7 -48 8 -101z m-3466 71
c-3 -8 -6 -5 -6 6 -1 11 2 17 5 13 3 -3 4 -12 1 -19z m453 12 c0 -5 -2 -10 -4
-10 -3 0 -8 5 -11 10 -3 6 -1 10 4 10 6 0 11 -4 11 -10z m918 -15 c-6 -14 -13
-23 -16 -21 -7 7 9 46 18 46 5 0 4 -11 -2 -25z m-2489 -28 c0 -27 -2 -29 -9
-12 -12 28 -12 57 0 50 6 -3 10 -21 9 -38z m1508 -9 c-2 -13 -4 -5 -4 17 -1
22 1 32 4 23 2 -10 2 -28 0 -40z m-110 -35 c-2 -16 -4 -3 -4 27 0 30 2 43 4
28 2 -16 2 -40 0 -55z m1183 57 c0 -5 -5 -10 -11 -10 -5 0 -7 5 -4 10 3 6 8
10 11 10 2 0 4 -4 4 -10z m-1103 -42 c-3 -7 -5 -2 -5 12 0 14 2 19 5 13 2 -7
2 -19 0 -25z m100 -14 c2 -23 0 -33 -7 -29 -5 3 -10 22 -10 42 0 45 12 36 17
-13z m40 -6 c-3 -8 -6 -5 -6 6 -1 11 2 17 5 13 3 -3 4 -12 1 -19z m1094 -12
c-14 -15 -20 -30 -16 -37 5 -8 4 -10 -3 -5 -17 11 -8 49 14 57 29 12 29 11 5
-15z m58 -21 c0 -5 -3 -3 -9 5 -10 16 -13 11 -23 -35 -3 -12 -5 -7 -6 13 0 17
4 32 9 32 6 0 10 8 11 18 0 14 2 14 9 -3 5 -11 9 -24 9 -30z m-1122 3 c-3 -8
-6 -5 -6 6 -1 11 2 17 5 13 3 -3 4 -12 1 -19z m-31 -25 c-11 -11 -17 4 -9 23
7 18 8 18 11 1 2 -10 1 -21 -2 -24z m-686 18 c0 -14 -18 -23 -30 -16 -6 4 -8
11 -5 16 8 12 35 12 35 0z m480 -26 c0 -5 -5 -3 -10 5 -5 8 -10 20 -10 25 0 6
5 3 10 -5 5 -8 10 -19 10 -25z m17 -27 c-2 -13 -4 -3 -4 22 0 25 2 35 4 23 2
-13 2 -33 0 -45z m2974 30 c-3 -21 -6 -26 -9 -15 -3 17 3 47 11 47 2 0 1 -15
-2 -32z m-3451 -14 c0 -14 -21 -19 -33 -7 -9 9 13 34 24 27 5 -3 9 -12 9 -20z
m567 -6 c-3 -8 -6 -5 -6 6 -1 11 2 17 5 13 3 -3 4 -12 1 -19z m95 -10 c-7 -7
-12 -8 -12 -2 0 14 12 26 19 19 2 -3 -1 -11 -7 -17z m1095 -10 c-3 -7 -5 -2
-5 12 0 14 2 19 5 13 2 -7 2 -19 0 -25z m-1050 0 c-3 -8 -6 -5 -6 6 -1 11 2
17 5 13 3 -3 4 -12 1 -19z m472 -13 c18 -20 27 -35 19 -35 -7 0 -31 -9 -52
-21 -30 -16 -41 -18 -47 -8 -7 12 -4 52 7 87 7 22 39 12 73 -23z m547 -82 c-3
-8 -10 -12 -15 -9 -11 7 -25 -23 -22 -49 2 -16 0 -17 -10 -8 -9 9 -9 19 1 45
8 18 17 35 21 38 4 3 9 25 12 50 3 25 7 47 8 50 6 11 10 -104 5 -117z m143 76
c-20 -12 -22 -4 -7 20 11 18 14 19 16 5 2 -9 -2 -20 -9 -25z m-1352 -1 c-3 -7
-5 -2 -5 12 0 14 2 19 5 13 2 -7 2 -19 0 -25z m-292 12 c3 -5 1 -10 -4 -10 -6
0 -11 5 -11 10 0 6 2 10 4 10 3 0 8 -4 11 -10z m-623 -21 c-31 -12 -27 -24 8
-25 25 -1 29 2 25 17 -5 16 -1 19 26 19 26 0 29 -2 20 -14 -8 -10 -9 -16 -1
-21 5 -3 10 -1 10 6 0 7 2 10 5 7 3 -3 3 -12 0 -21 -7 -16 -21 -17 -42 -4 -7
5 -13 4 -13 0 0 -18 -55 -8 -67 12 -7 11 -12 16 -13 12 0 -5 -5 -5 -10 -2 -21
13 9 32 42 27 30 -5 31 -6 10 -13z m1189 -51 c-4 -12 -13 -24 -19 -26 -15 -5
-15 31 0 46 17 17 28 5 19 -20z m-720 5 c10 -11 10 -14 2 -9 -8 4 -13 2 -13
-6 0 -10 -3 -9 -9 2 -6 8 -7 18 -5 22 7 11 10 10 25 -9z m231 -26 c7 -14 7
-17 -1 -13 -6 4 -11 0 -11 -8 0 -9 -5 -16 -10 -16 -6 0 -8 11 -4 25 4 15 1 32
-7 43 -13 15 -12 16 4 3 10 -8 23 -23 29 -34z m88 33 c0 -5 -5 -10 -11 -10 -5
0 -7 5 -4 10 3 6 8 10 11 10 2 0 4 -4 4 -10z m2620 -34 c0 -5 -7 -1 -15 10 -8
10 -14 24 -14 29 0 6 6 1 14 -9 8 -11 15 -24 15 -30z m-531 -6 c1 -3 -8 -6
-18 -6 -11 0 -17 5 -13 11 4 5 7 13 8 18 4 20 6 20 14 2 5 -11 9 -22 9 -25z
m96 30 c3 -6 -4 -10 -17 -10 -18 0 -20 2 -8 10 19 12 18 12 25 0z m-2550 -21
c-4 -5 -1 -9 5 -9 6 0 9 -4 5 -9 -3 -5 9 -25 27 -44 38 -41 45 -67 17 -60 -11
3 -19 0 -19 -6 0 -7 -5 -9 -10 -6 -6 4 -4 12 6 22 12 13 13 17 2 24 -21 13
-26 11 -36 -18 -6 -16 -11 -22 -11 -15 -1 6 -8 12 -17 12 -12 0 -14 7 -9 33
10 43 16 52 26 36 6 -10 9 -10 9 -2 0 6 -4 14 -9 17 -5 3 -7 15 -4 26 3 11 9
17 14 14 5 -3 7 -10 4 -15z m2485 6 c11 -13 10 -14 -4 -9 -9 3 -16 10 -16 15
0 13 6 11 20 -6z m-1240 -9 c0 -15 -21 -26 -51 -26 -11 0 -19 7 -19 16 0 11 6
15 20 11 11 -3 23 -1 26 4 8 14 24 11 24 -5z m-2086 -21 c-4 -8 -10 -12 -15
-9 -11 6 -2 24 11 24 5 0 7 -7 4 -15z m289 0 c-3 -9 -8 -14 -10 -11 -3 3 -2 9
2 15 9 16 15 13 8 -4z m3327 6 c0 -6 -4 -12 -8 -15 -5 -3 -9 1 -9 9 0 8 4 15
9 15 4 0 8 -4 8 -9z m111 0 c-7 -5 -11 -14 -7 -20 5 -7 1 -9 -8 -5 -26 10 -17
34 13 34 13 0 13 -2 2 -9z m-1688 -30 c39 -2 40 -3 17 -12 -14 -6 -41 -8 -60
-6 -19 3 -29 3 -22 0 17 -7 15 -23 -3 -23 -8 0 -15 -4 -15 -10 0 -5 6 -10 13
-10 8 0 7 -3 -3 -10 -12 -7 -7 -12 22 -24 20 -9 39 -19 42 -24 8 -14 -38 -72
-57 -72 -24 0 -80 59 -73 77 3 8 2 12 -2 9 -12 -7 -6 47 8 74 17 33 25 37 61
35 16 -1 48 -3 72 -4z m1138 -8 c13 -16 12 -17 -3 -4 -10 7 -18 15 -18 17 0 8
8 3 21 -13z m-1658 -8 c-3 -9 -8 -14 -10 -11 -3 3 -2 9 2 15 9 16 15 13 8 -4z
m2942 -27 c4 -16 3 -28 -2 -28 -15 0 -36 47 -28 60 9 15 22 2 30 -32z m-3832
21 c12 -7 23 -13 25 -14 4 -4 -39 -85 -45 -85 -3 0 -3 6 0 14 3 7 1 18 -4 23
-6 6 -4 14 6 23 20 16 19 28 -1 26 -9 0 -19 5 -21 12 -6 15 11 16 40 1z m1951
-21 c19 -38 19 -39 3 -33 -6 3 -18 -4 -25 -16 -12 -19 -11 -20 7 -14 15 5 18
2 14 -13 -5 -22 -33 -26 -33 -5 0 8 -5 11 -12 7 -13 -8 -3 12 21 39 12 15 13
22 3 37 -14 24 -15 30 -3 30 5 0 17 -14 25 -32z m586 11 c0 -10 -27 -19 -34
-12 -11 12 -6 19 14 19 11 0 20 -3 20 -7z m-3075 -9 c-3 -5 -1 -10 6 -10 10 0
10 -3 1 -12 -10 -10 -15 -10 -22 2 -10 16 -4 30 11 30 6 0 7 -4 4 -10z m-435
-10 c0 -5 -5 -10 -11 -10 -5 0 -7 5 -4 10 3 6 8 10 11 10 2 0 4 -4 4 -10z
m2740 -12 c0 -5 5 -6 10 -3 6 3 10 1 10 -5 0 -6 4 -8 10 -5 6 3 7 -1 3 -10 -3
-9 -9 -13 -12 -8 -3 4 -15 13 -25 19 -25 13 -34 36 -12 28 9 -3 16 -10 16 -16z
m120 -14 c0 -8 -4 -12 -10 -9 -5 3 -10 10 -10 16 0 5 5 9 10 9 6 0 10 -7 10
-16z m-1242 -30 c-7 -15 -14 -21 -16 -15 -2 7 2 18 8 26 18 22 21 18 8 -11z
m1329 -16 c-3 -8 -6 -5 -6 6 -1 11 2 17 5 13 3 -3 4 -12 1 -19z m-669 -73 c23
-25 42 -50 42 -55 0 -14 -44 2 -59 22 -7 11 -19 17 -26 14 -13 -5 -34 31 -50
83 l-7 24 28 -20 c16 -12 48 -42 72 -68z m1446 70 c-4 -8 -8 -15 -10 -15 -2 0
-4 7 -4 15 0 8 4 15 10 15 5 0 7 -7 4 -15z m-554 -2 c0 -5 -13 -8 -30 -9 -16
-1 -27 3 -24 7 6 11 54 12 54 2z m1295 -3 c3 -5 1 -10 -4 -10 -6 0 -11 5 -11
10 0 6 2 10 4 10 3 0 8 -4 11 -10z m-1415 -21 c-45 -12 -147 -23 -139 -15 3 4
30 8 59 11 29 2 55 7 58 10 3 3 17 5 31 4 22 -1 21 -2 -9 -10z m-2227 -14 c-3
-9 -8 -14 -10 -11 -3 3 -2 9 2 15 9 16 15 13 8 -4z m2617 -10 c0 -2 -9 -9 -20
-15 -12 -6 -20 -7 -20 -1 0 5 8 12 18 14 9 3 18 5 20 6 1 0 2 -1 2 -4z m-2790
-45 c-6 -10 -10 -33 -10 -51 0 -48 -8 -31 -13 27 -4 46 -2 51 14 47 14 -4 16
-9 9 -23z m479 13 c30 -18 38 -37 23 -60 -10 -16 -59 -27 -66 -14 -5 7 -1 8 9
5 10 -4 15 -2 13 7 -2 8 2 13 8 12 6 -1 11 4 11 12 0 7 -6 11 -14 8 -16 -6
-43 14 -43 33 0 19 22 18 59 -3z m318 -5 c-3 -8 -6 -5 -6 6 -1 11 2 17 5 13 3
-3 4 -12 1 -19z m2958 -38 c11 -39 43 -354 37 -364 -7 -13 -22 16 -22 44 0 15
-4 30 -8 35 -5 6 -19 44 -32 85 -13 41 -27 80 -31 85 -15 20 -22 131 -10 154
11 21 13 21 36 4 13 -10 27 -29 30 -43z m-3125 26 c0 -3 -4 -8 -10 -11 -5 -3
-10 -1 -10 4 0 6 5 11 10 11 6 0 10 -2 10 -4z m2400 -2 c0 -10 -28 -34 -41
-34 -8 0 -5 7 6 20 17 19 35 26 35 14z m-2500 -29 c0 -8 -4 -15 -10 -15 -5 0
-7 7 -4 15 4 8 8 15 10 15 2 0 4 -7 4 -15z m3557 -17 c-3 -8 -6 -5 -6 6 -1 11
2 17 5 13 3 -3 4 -12 1 -19z m-1666 -1 c-1 -4 -1 -19 -2 -34 l-1 -28 -8 25
c-12 36 -11 52 1 48 6 -2 10 -7 10 -11z m1633 -9 c-13 -6 -25 -26 -32 -51
l-10 -42 1 38 c1 37 25 68 52 66 5 0 0 -5 -11 -11z m-458 -83 c3 -11 8 -42 11
-70 5 -47 4 -49 -11 -30 -16 20 -16 19 -11 -5 21 -103 29 -179 22 -230 -2 -14
-5 -41 -6 -60 -2 -32 -3 -33 -14 -15 -7 13 -20 20 -32 17 -15 -2 -17 -1 -6 6
11 8 9 11 -8 17 -12 3 -19 11 -16 16 4 5 2 9 -3 9 -5 0 -12 9 -15 20 -3 12 0
20 8 20 14 0 29 29 20 38 -3 3 -12 -3 -21 -14 -15 -18 -15 -17 -9 16 3 19 10
67 15 106 5 39 18 106 30 147 11 42 20 80 21 84 1 8 14 -29 25 -72z m-4139 28
c-3 -10 -5 -4 -5 12 0 17 2 24 5 18 2 -7 2 -21 0 -30z m1993 2 c0 -18 -4 -23
-15 -19 -15 6 -20 35 -9 47 12 11 24 -3 24 -28z m17 3 c-3 -7 -5 -2 -5 12 0
14 2 19 5 13 2 -7 2 -19 0 -25z m988 23 c3 -5 1 -12 -5 -16 -5 -3 -10 1 -10 9
0 18 6 21 15 7z m1482 -23 c-3 -8 -6 -5 -6 6 -1 11 2 17 5 13 3 -3 4 -12 1
-19z m184 -16 c6 -21 10 -62 8 -90 -2 -29 0 -54 6 -56 6 -3 3 -10 -5 -16 -12
-9 -12 -13 -2 -17 10 -4 10 -8 2 -19 -7 -8 -12 -55 -11 -121 0 -104 -1 -107
-16 -78 -9 17 -20 33 -25 36 -11 7 -38 57 -38 71 0 5 -9 29 -20 53 -13 28 -18
54 -14 70 5 21 3 25 -16 25 l-22 0 22 35 c12 20 19 42 16 50 -3 8 -1 15 5 15
5 0 15 12 21 26 10 22 50 52 70 54 4 0 12 -17 19 -38z m-2718 -12 c3 -11 1
-23 -4 -26 -5 -3 -9 6 -9 20 0 31 6 34 13 6z m-1956 -22 c-3 -8 -6 -5 -6 6 -1
11 2 17 5 13 3 -3 4 -12 1 -19z m4520 -8 c1 -11 -3 -20 -9 -20 -5 0 -8 -7 -4
-15 3 -9 0 -15 -8 -15 -10 0 -11 7 -2 35 12 39 21 45 23 15z m-1242 -8 c-3 -3
-11 0 -18 7 -9 10 -8 11 6 5 10 -3 15 -9 12 -12z m-1248 -39 c-3 -10 -5 -4 -5
12 0 17 2 24 5 18 2 -7 2 -21 0 -30z m1398 -53 c3 -6 -1 -7 -9 -4 -18 7 -21
14 -7 14 6 0 13 -4 16 -10z m91 -52 c3 -23 2 -22 -19 3 -17 19 -17 20 -1 17 9
-1 18 -11 20 -20z m114 8 c0 -3 -7 -11 -15 -20 -14 -13 -11 -14 20 -9 30 5 34
3 29 -11 -3 -9 -10 -16 -16 -16 -5 0 -7 -4 -4 -8 3 -5 -1 -9 -9 -9 -8 0 -12 4
-10 8 7 10 -22 19 -40 13 -18 -7 -19 -3 -3 31 6 14 19 25 30 25 10 0 18 -2 18
-4z m-1552 -125 c-5 -24 -28 -24 -37 1 -12 33 8 57 26 32 8 -10 12 -25 11 -33z
m1607 39 c3 -6 -1 -7 -9 -4 -18 7 -21 14 -7 14 6 0 13 -4 16 -10z m1059 -51
c-13 -15 -15 -22 -6 -31 7 -7 12 -23 12 -37 0 -13 -3 -21 -6 -18 -4 3 -15 2
-26 -4 -18 -10 -19 -8 -17 25 2 19 0 38 -4 42 -10 10 43 55 55 48 5 -3 1 -15
-8 -25z m-941 -16 c-7 -2 -19 -2 -25 0 -7 3 -2 5 12 5 14 0 19 -2 13 -5z m67
-7 c0 -2 -9 -6 -20 -9 -11 -3 -20 -1 -20 4 0 5 9 9 20 9 11 0 20 -2 20 -4z
m124 -11 c11 -8 16 -15 10 -15 -5 0 -18 7 -28 15 -11 8 -16 15 -10 15 5 0 18
-7 28 -15z m693 -32 c-3 -10 -5 -4 -5 12 0 17 2 24 5 18 2 -7 2 -21 0 -30z
m-4117 13 c0 -8 -4 -18 -10 -21 -5 -3 -10 3 -10 14 0 12 5 21 10 21 6 0 10 -6
10 -14z m144 8 c9 -3 16 -11 16 -17 0 -8 -4 -7 -12 1 -9 9 -15 9 -27 -1 -10
-8 -13 -8 -8 0 4 6 1 14 -5 16 -8 4 -7 6 4 6 9 1 23 -2 32 -5z m3463 -46 c-2
-13 -4 -5 -4 17 -1 22 1 32 4 23 2 -10 2 -28 0 -40z m-3644 27 c-3 -9 -8 -14
-10 -11 -3 3 -2 9 2 15 9 16 15 13 8 -4z m3367 8 c-8 -3 -27 -12 -42 -20 -16
-7 -28 -9 -28 -4 0 10 46 29 70 29 13 0 13 0 0 -5z m-3097 -37 c23 -18 49 -35
57 -38 9 -3 10 -7 3 -11 -6 -4 -18 0 -26 8 -20 19 -33 19 -41 0 -6 -17 -26
-20 -26 -4 0 5 4 8 9 5 13 -9 23 26 11 38 -8 8 -13 7 -19 -3 -5 -7 -13 -11
-19 -7 -6 3 -12 1 -14 -6 -3 -9 -6 -9 -12 1 -5 8 -1 14 13 18 12 3 21 10 21
15 0 5 -4 6 -10 3 -5 -3 -10 -1 -10 4 0 19 21 12 63 -23z m527 13 c12 -9 12
-10 -3 -5 -12 4 -17 2 -14 -6 2 -7 10 -12 16 -10 7 1 10 -2 6 -8 -9 -14 -38 3
-41 24 -3 18 14 21 36 5z m-685 -39 c-3 -5 0 -12 6 -16 8 -4 9 -3 5 4 -4 7 -2
12 3 12 13 0 15 -17 3 -24 -13 -8 -29 7 -37 34 -7 22 -6 23 8 11 9 -7 15 -17
12 -21z m-135 10 c0 -4 -6 -12 -13 -18 -10 -8 -13 -7 -14 7 -1 10 5 18 13 18
8 0 14 -4 14 -7z m40 -22 c0 -5 -4 -7 -9 -3 -5 3 -12 -3 -14 -12 -3 -10 -4 -6
-4 8 1 18 6 25 14 22 7 -3 13 -9 13 -15z m3416 -3 c-11 -8 -25 -15 -30 -15 -6
1 0 7 14 15 32 19 40 18 16 0z m-3496 -21 c0 -22 -2 -25 -15 -14 -12 10 -13
16 -4 26 16 20 19 18 19 -12z m395 -4 c9 14 35 0 35 -19 0 -9 -6 -23 -12 -31
-7 -8 -4 -7 8 3 23 19 41 22 46 6 2 -5 12 -11 23 -13 11 -2 20 -8 20 -14 0 -6
3 -14 8 -18 10 -10 9 -24 -2 -24 -5 0 -11 9 -14 20 -6 24 -36 37 -47 20 -5 -9
-9 -9 -14 -1 -4 6 -12 9 -17 5 -5 -3 -22 -7 -37 -10 -22 -3 -24 -2 -9 6 9 6
17 16 17 22 0 9 -3 9 -12 0 -13 -13 -38 1 -38 22 0 6 5 4 10 -4 7 -10 10 -11
10 -2 0 7 -7 15 -15 18 -8 4 -15 13 -15 21 0 13 3 13 24 -1 15 -9 27 -12 31
-6z m3248 13 c-7 -2 -19 -2 -25 0 -7 3 -2 5 12 5 14 0 19 -2 13 -5z m-3608
-23 c-3 -5 -11 -10 -16 -10 -6 0 -7 5 -4 10 3 6 11 10 16 10 6 0 7 -4 4 -10z
m4215 -5 c10 -12 10 -15 -4 -15 -9 0 -16 7 -16 15 0 8 2 15 4 15 2 0 9 -7 16
-15z m-765 -5 c-3 -5 -12 -10 -18 -10 -7 0 -6 4 3 10 19 12 23 12 15 0z
m-3388 -32 c2 -17 0 -19 -7 -8 -5 8 -6 18 -4 22 8 12 10 10 11 -14z m100 -4
c-3 -3 -12 -4 -19 -1 -8 3 -5 6 6 6 11 1 17 -2 13 -5z m-177 -8 c0 -2 -7 -6
-15 -10 -8 -3 -15 -1 -15 4 0 6 7 10 15 10 8 0 15 -2 15 -4z m250 -16 c0 -5
-2 -10 -4 -10 -3 0 -8 5 -11 10 -3 6 -1 10 4 10 6 0 11 -4 11 -10z m234 -51
c-9 -16 -20 -10 -21 12 -2 17 1 18 12 9 8 -7 12 -16 9 -21z m-69 11 c3 -5 1
-10 -4 -10 -6 0 -11 5 -11 10 0 6 2 10 4 10 3 0 8 -4 11 -10z m-195 -10 c0 -5
-2 -10 -4 -10 -3 0 -8 5 -11 10 -3 6 -1 10 4 10 6 0 11 -4 11 -10z m350 -20
c18 -16 27 -30 22 -30 -6 0 -17 7 -26 15 -8 8 -23 15 -33 15 -14 0 -15 -2 -4
-9 15 -10 7 -31 -12 -30 -8 0 -8 2 1 6 10 4 9 10 -5 25 -9 11 -13 19 -8 18 6
-2 17 -2 25 0 11 1 9 4 -5 10 -16 7 -16 9 -4 9 9 1 31 -12 49 -29z m3127 -6
c-3 -3 -12 -4 -19 -1 -8 3 -5 6 6 6 11 1 17 -2 13 -5z m584 -42 c0 -30 2 -33
9 -17 8 20 9 20 9 -1 1 -11 -2 -24 -6 -27 -11 -12 -42 50 -36 72 8 31 23 15
24 -27z m-736 28 c-3 -5 -12 -10 -18 -10 -7 0 -6 4 3 10 19 12 23 12 15 0z
m-1985 -47 c0 -7 -4 -13 -9 -13 -16 0 -33 30 -26 47 6 17 7 17 21 -1 8 -11 14
-26 14 -33z m-1293 31 c-3 -3 -12 -4 -19 -1 -8 3 -5 6 6 6 11 1 17 -2 13 -5z
m355 -23 c8 -8 8 -11 1 -7 -6 3 -13 2 -15 -4 -1 -5 -16 -1 -32 9 l-28 19 31
-2 c17 -1 36 -8 43 -15z m48 -45 c-13 -13 -13 -36 1 -36 5 0 7 5 4 10 -17 27
27 -4 71 -50 13 -14 24 -29 24 -35 0 -5 -5 -3 -10 5 -5 8 -10 10 -10 4 0 -6
-7 -11 -15 -11 -8 0 -15 4 -15 9 0 4 5 8 10 8 6 0 10 5 10 12 0 6 -3 8 -7 5
-3 -4 -17 3 -30 15 -19 18 -25 19 -36 8 -8 -9 -8 -11 0 -6 6 3 14 2 17 -3 4
-5 -2 -8 -11 -7 -13 2 -19 14 -21 40 -2 20 -7 34 -13 31 -10 -7 -11 -3 -3 19
5 12 9 13 25 3 12 -7 15 -15 9 -21z m-1357 9 c-3 -9 -8 -14 -10 -11 -3 3 -2 9
2 15 9 16 15 13 8 -4z m72 -5 c3 -6 -1 -7 -9 -4 -18 7 -21 14 -7 14 6 0 13 -4
16 -10z m4934 -43 c0 -18 -4 -41 -9 -52 -6 -14 -9 -4 -9 38 -1 36 3 56 9 52 6
-3 10 -21 9 -38z m-532 9 c0 -8 -8 -11 -21 -8 -19 5 -19 6 0 13 10 4 19 8 20
8 0 1 1 -5 1 -13z m-60 -3 c-11 -3 -16 -11 -13 -19 3 -7 1 -16 -4 -19 -6 -4
-10 -1 -10 6 0 7 -9 5 -22 -7 -23 -19 -23 -19 -5 2 9 11 17 26 17 32 0 7 12
11 28 11 18 -1 21 -3 9 -6z m-1213 -61 c0 -29 -5 -57 -11 -60 -8 -5 -9 -13 -3
-22 15 -23 12 -36 -4 -15 -12 17 -13 17 -18 -7 -2 -13 -1 -33 2 -44 4 -10 3
-32 -1 -49 -5 -16 -6 -38 -3 -49 4 -13 3 -16 -6 -11 -8 5 -11 24 -8 57 3 27 1
51 -3 54 -5 3 -9 20 -9 37 0 24 3 28 10 17 8 -13 10 -12 10 3 0 9 -6 17 -14
17 -15 0 -27 62 -19 104 5 24 9 27 42 24 l36 -3 -1 -53z m1306 43 c11 -13 10
-14 -4 -9 -9 3 -16 10 -16 15 0 13 6 11 20 -6z m-30 -15 c0 -5 -5 -10 -12 -10
-21 0 15 -27 45 -34 21 -5 27 -4 21 5 -4 8 -3 9 5 5 6 -4 9 -11 6 -16 -3 -5 3
-13 12 -19 30 -17 8 -12 -40 9 -26 11 -53 30 -61 41 -8 12 -19 18 -25 14 -6
-3 -11 -1 -11 4 0 6 14 11 30 11 17 0 30 -4 30 -10z m-236 -15 c-4 -8 -11 -12
-16 -9 -6 4 -5 10 3 15 19 12 19 11 13 -6z m316 -10 c13 -14 21 -25 18 -25 -2
0 -15 11 -28 25 -13 14 -21 25 -18 25 2 0 15 -11 28 -25z m-45 5 c3 -5 1 -10
-4 -10 -6 0 -11 5 -11 10 0 6 2 10 4 10 3 0 8 -4 11 -10z m-95 -57 c-12 -9
-19 -21 -16 -30 4 -8 2 -11 -5 -7 -6 4 -15 0 -20 -7 -4 -7 -10 -11 -13 -9 -2
3 12 30 32 60 32 48 37 52 40 31 2 -15 -4 -28 -18 -38z m-4490 21 c0 -8 -5
-12 -10 -9 -6 4 -8 11 -5 16 9 14 15 11 15 -7z m136 -1 c-10 -10 -46 -11 -40
-1 3 4 15 8 26 8 12 0 18 -3 14 -7z m4281 -12 c-1 -14 -5 -17 -13 -11 -6 6
-15 6 -20 2 -4 -4 -2 1 5 11 18 23 30 22 28 -2z m-4204 -26 c-7 -21 -12 -19
-10 4 0 11 5 18 9 15 4 -3 5 -11 1 -19z m211 -1 c3 -8 2 -12 -4 -9 -6 3 -10
10 -10 16 0 14 7 11 14 -7z m3940 1 c-4 -8 -11 -15 -16 -15 -6 0 -5 6 2 15 7
8 14 15 16 15 2 0 1 -7 -2 -15z m328 -47 c4 -26 3 -29 -7 -15 -7 10 -17 17
-24 17 -6 0 -11 5 -11 10 0 6 5 10 12 10 9 0 9 3 0 12 -20 20 -14 32 7 14 10
-9 21 -31 23 -48z m-71 22 c-7 -4 -24 -5 -39 -1 -19 3 -22 6 -9 9 9 2 17 8 17
13 0 6 9 5 21 -2 15 -8 18 -13 10 -19z m-4518 8 c-4 -7 -8 -17 -8 -22 0 -5 -5
-11 -11 -13 -7 -2 -10 6 -7 22 3 14 12 25 20 25 9 0 11 -5 6 -12z m72 2 c3 -5
2 -10 -4 -10 -5 0 -13 5 -16 10 -3 6 -2 10 4 10 5 0 13 -4 16 -10z m1042 4
c-3 -3 -12 -4 -19 -1 -8 3 -5 6 6 6 11 1 17 -2 13 -5z m3441 -47 c6 0 12 -5
12 -10 0 -5 -7 -6 -16 -3 -9 3 -25 6 -35 6 -12 0 -17 4 -14 11 4 6 14 7 24 3
9 -3 22 -7 29 -7z m-4213 -7 c3 -5 1 -10 -4 -10 -6 0 -11 5 -11 10 0 6 2 10 4
10 3 0 8 -4 11 -10z m3711 -25 c-4 -14 -2 -25 4 -25 5 0 9 -3 8 -7 -4 -15 13
-118 21 -128 17 -20 32 -118 21 -125 -10 -6 -16 -24 -19 -52 -2 -15 -20 -8
-24 10 -2 9 -3 4 -1 -11 3 -22 -4 -35 -28 -58 -18 -16 -35 -29 -39 -29 -3 0
-6 -14 -6 -31 0 -27 2 -29 12 -15 18 24 25 9 25 -53 l0 -55 -22 24 c-13 14
-23 27 -24 30 0 3 -7 22 -16 42 -15 34 -15 41 2 100 9 35 25 120 34 189 9 69
22 141 28 160 6 19 12 40 14 47 2 6 6 12 10 12 3 0 3 -11 0 -25z m-2423 -15
c-3 -12 -8 -19 -11 -16 -5 6 5 36 12 36 2 0 2 -9 -1 -20z m-1529 -16 c11 -27
-7 -50 -36 -45 -5 0 -8 -8 -8 -20 0 -12 -4 -17 -11 -14 -6 4 -8 13 -5 21 3 8
0 15 -7 15 -7 1 3 4 22 8 19 3 36 12 39 19 2 7 -2 10 -12 6 -11 -4 -16 0 -16
15 0 23 25 20 34 -5z m1627 -30 c-6 -20 -8 -41 -5 -45 2 -4 0 -10 -6 -14 -5
-3 -10 -1 -10 5 0 21 23 101 27 96 2 -2 0 -21 -6 -42z m2649 39 c0 -5 -16 -26
-35 -48 l-36 -40 23 47 c13 26 29 48 36 48 6 0 12 -3 12 -7z m291 -39 c9 -11
2 -9 -18 6 -18 13 -33 25 -33 27 0 8 38 -17 51 -33z m-2467 0 c7 -19 -1 -34
-19 -34 -15 0 -28 27 -19 41 9 14 31 10 38 -7z m-2200 -2 c2 -4 -5 -9 -17 -9
-17 -2 -19 0 -7 7 18 12 18 12 24 2z m181 -1 c3 -6 -3 -8 -15 -6 -11 2 -19 -1
-17 -7 1 -5 -9 -14 -22 -19 -21 -8 -22 -7 -11 6 7 8 9 15 4 15 -5 0 -2 5 6 10
19 12 47 13 55 1z m53 -33 c-8 -7 -20 -22 -26 -33 -11 -20 -11 -19 -12 2 0 12
8 27 18 32 24 15 39 13 20 -1z m-231 -20 c-3 -8 -6 -5 -6 6 -1 11 2 17 5 13 3
-3 4 -12 1 -19z m133 -4 c0 -8 -5 -12 -10 -9 -6 4 -8 11 -5 16 9 14 15 11 15
-7z m-206 -5 c3 -3 -4 -10 -14 -17 -16 -10 -18 -9 -13 5 5 12 3 14 -7 8 -8 -5
-11 -4 -7 3 7 10 32 11 41 1z m121 -9 c3 -5 1 -10 -4 -10 -6 0 -11 5 -11 10 0
6 2 10 4 10 3 0 8 -4 11 -10z m35 -15 c0 -8 -4 -15 -10 -15 -5 0 -7 7 -4 15 4
8 8 15 10 15 2 0 4 -7 4 -15z m250 -9 c0 -8 -8 -20 -17 -27 -16 -12 -17 -12
-7 1 6 8 10 23 9 33 -2 9 1 15 6 11 5 -3 9 -11 9 -18z m87 -8 c-3 -8 -6 -5 -6
6 -1 11 2 17 5 13 3 -3 4 -12 1 -19z m1290 -28 c-1 -11 -5 -20 -9 -20 -10 0
-10 4 -2 24 8 22 13 20 11 -4z m-1577 -11 c0 -6 -4 -7 -10 -4 -5 3 -10 11 -10
16 0 6 5 7 10 4 6 -3 10 -11 10 -16z m-220 -9 c-24 -15 -36 -11 -14 4 10 8 21
12 24 10 2 -3 -2 -9 -10 -14z m4250 -6 c13 -34 13 -39 -4 -25 -17 14 -28 51
-15 51 5 0 14 -12 19 -26z m-4096 -6 c-3 -5 -12 -4 -20 3 -19 16 -18 18 6 12
11 -3 17 -9 14 -15z m97 -40 c-4 -32 -5 -32 -11 -8 -7 26 -4 40 9 40 4 0 5
-15 2 -32z m109 23 c0 -6 -5 -13 -12 -17 -6 -4 -8 -3 -4 4 3 5 0 13 -6 15 -8
3 -6 6 5 6 9 1 17 -3 17 -8z m3900 -43 c0 -6 -7 -5 -15 2 -8 7 -15 17 -15 22
0 6 7 5 15 -2 8 -7 15 -17 15 -22z m-2516 13 c7 -10 -24 -93 -39 -103 -5 -4
-17 -7 -25 -7 -10 0 -8 3 5 9 11 5 16 9 10 10 -5 1 -21 3 -34 6 -13 2 -29 -1
-37 -6 -10 -9 -11 -7 -7 9 4 15 1 21 -11 21 -26 0 -19 39 10 52 19 9 33 9 55
1 24 -10 31 -9 36 3 6 15 29 19 37 5z m-1520 -16 c-4 -8 -11 -12 -16 -9 -6 4
-5 10 3 15 19 12 19 11 13 -6z m-104 -15 c-6 -11 -13 -20 -16 -20 -2 0 0 9 6
20 6 11 13 20 16 20 2 0 0 -9 -6 -20z m390 10 c0 -5 -5 -10 -11 -10 -5 0 -7 5
-4 10 3 6 8 10 11 10 2 0 4 -4 4 -10z m631 -54 c15 9 10 -2 -6 -16 -13 -10
-15 -9 -14 11 0 13 3 18 6 11 2 -6 9 -10 14 -6z m-1121 -6 c0 -5 -5 -10 -11
-10 -5 0 -7 5 -4 10 3 6 8 10 11 10 2 0 4 -4 4 -10z m150 0 c0 -5 -4 -10 -10
-10 -5 0 -10 5 -10 10 0 6 5 10 10 10 6 0 10 -4 10 -10z m185 1 c3 -5 1 -12
-5 -16 -5 -3 -10 1 -10 9 0 18 6 21 15 7z m3881 -31 c0 -13 -7 -20 -18 -20
-16 0 -17 -3 -8 -21 7 -11 20 -29 31 -40 26 -26 39 -62 39 -108 0 -20 5 -42
11 -48 15 -15 7 -109 -8 -106 -20 4 -24 -61 -5 -99 8 -18 9 -28 2 -28 -5 0
-10 5 -10 12 0 6 -2 9 -5 6 -3 -3 0 -18 7 -32 10 -22 9 -32 -2 -49 -8 -12 -17
-40 -20 -62 l-7 -40 -10 35 c-5 19 -6 42 -2 51 5 10 2 24 -7 38 -9 13 -13 30
-9 42 5 15 4 19 -4 15 -7 -4 -11 0 -11 12 0 10 -10 38 -21 63 -12 24 -23 51
-23 59 -1 8 -9 31 -17 50 -17 37 -32 233 -18 225 4 -3 10 4 14 15 8 24 41 44
60 36 8 -3 17 -1 20 4 10 16 21 11 21 -10z m-1997 -13 c6 -8 8 -17 4 -20 -7
-8 -33 11 -33 24 0 13 16 11 29 -4z m-1999 -6 c0 -6 -4 -13 -10 -16 -5 -3 -10
1 -10 9 0 9 5 16 10 16 6 0 10 -4 10 -9z m168 -16 c-3 -3 -9 2 -12 12 -6 14
-5 15 5 6 7 -7 10 -15 7 -18z m1296 10 c-4 -8 -7 -15 -9 -15 -2 0 -5 7 -9 15
-3 9 0 15 9 15 9 0 12 -6 9 -15z m-1684 -22 c0 -3 -7 -3 -15 1 -9 3 -15 0 -15
-10 0 -9 -5 -14 -12 -12 -20 7 -20 26 -1 30 19 5 43 -1 43 -9z m120 -13 c0 -5
-4 -10 -10 -10 -5 0 -10 5 -10 10 0 6 5 10 10 10 6 0 10 -4 10 -10z m-110 -14
c0 -2 -7 -9 -15 -16 -13 -11 -14 -10 -9 4 5 14 24 23 24 12z m4024 -55 c8 -11
8 -13 0 -8 -7 4 -14 0 -17 -7 -3 -8 -1 -17 6 -19 7 -2 5 -3 -3 -2 -8 0 -13 8
-11 16 2 8 4 25 3 39 0 14 2 19 5 10 3 -8 11 -21 17 -29z m-3904 19 c0 -5 -4
-10 -10 -10 -5 0 -10 5 -10 10 0 6 5 10 10 10 6 0 10 -4 10 -10z m-150 -20
c-8 -5 -17 -7 -19 -4 -3 3 1 9 9 14 8 5 17 7 19 4 3 -3 -1 -9 -9 -14z m10 -23
c0 -8 -7 -14 -15 -14 -25 0 -17 17 13 26 1 1 2 -5 2 -12z m310 -21 c0 -3 -4
-8 -10 -11 -5 -3 -10 -1 -10 4 0 6 5 11 10 11 6 0 10 -2 10 -4z m-343 -78 c-3
-8 -6 -5 -6 6 -1 11 2 17 5 13 3 -3 4 -12 1 -19z m553 -18 c0 -13 -12 -19 -26
-13 -21 8 -17 19 6 19 11 0 20 -3 20 -6z m1708 -34 c3 -13 -1 -17 -14 -14 -11
2 -20 11 -22 22 -3 13 1 17 14 14 11 -2 20 -11 22 -22z m-1738 4 c0 -5 -4 -10
-10 -10 -5 0 -10 5 -10 10 0 6 5 10 10 10 6 0 10 -4 10 -10z m-409 -43 c-10
-9 -11 -8 -5 6 3 10 9 15 12 12 3 -3 0 -11 -7 -18z m-27 -28 c-3 -5 -10 -6
-16 -3 -7 5 -9 1 -5 -9 4 -11 2 -14 -9 -10 -13 5 -13 8 2 24 16 18 40 17 28
-2z m421 12 c3 -5 2 -12 -3 -15 -5 -3 -9 1 -9 9 0 17 3 19 12 6z m3845 -56 c0
-5 -5 -3 -10 5 -5 8 -10 20 -10 25 0 6 5 3 10 -5 5 -8 10 -19 10 -25z m-3875
15 c3 -5 1 -10 -4 -10 -6 0 -11 5 -11 10 0 6 2 10 4 10 3 0 8 -4 11 -10z
m3970 -42 c-10 -46 -25 -59 -25 -22 0 26 15 54 28 54 2 0 1 -15 -3 -32z
m-4359 -33 c8 -30 -1 -44 -18 -27 -9 9 -9 12 0 12 7 0 12 5 12 10 0 6 -7 10
-16 10 -8 0 -12 5 -9 10 11 18 24 11 31 -15z m99 15 c-3 -5 -12 -10 -18 -10
-7 0 -6 4 3 10 19 12 23 12 15 0z m2083 -28 c2 -14 -2 -22 -12 -22 -19 0 -29
17 -22 36 8 22 30 12 34 -14z m1892 -8 c0 -8 -4 -12 -10 -9 -5 3 -10 10 -10
16 0 5 5 9 10 9 6 0 10 -7 10 -16z m-45 -4 c-3 -5 -1 -10 6 -10 8 0 8 -4 -1
-15 -9 -11 -16 -13 -23 -6 -7 7 -6 15 3 26 14 17 25 21 15 5z m-1985 -9 c0
-15 -28 -33 -40 -26 -8 5 -8 11 1 21 13 15 39 19 39 5z m1780 -18 c0 -19 -13
-9 -16 12 -1 8 2 13 7 9 5 -3 9 -12 9 -21z m254 -1 c3 -5 -1 -9 -9 -9 -8 0
-12 4 -9 9 3 4 7 8 9 8 2 0 6 -4 9 -8z m-4044 -35 c0 -2 -12 -14 -27 -28 l-28
-24 24 28 c23 25 31 32 31 24z m2052 -17 l33 -20 -40 0 c-44 0 -86 -18 -50
-21 11 -1 25 -2 31 -2 7 0 11 -7 9 -16 -1 -9 6 -24 17 -35 14 -13 18 -26 13
-43 -3 -14 0 -32 7 -41 11 -13 11 -14 -2 -7 -9 5 -7 -1 5 -15 16 -19 17 -22 3
-17 -14 5 -15 1 -8 -23 4 -16 5 -31 2 -35 -9 -9 -11 -35 -3 -35 5 0 6 -12 3
-27 -5 -25 -4 -27 11 -14 10 8 17 9 17 3 0 -6 -4 -13 -10 -17 -10 -6 5 -56 20
-65 5 -3 12 -26 15 -50 5 -33 4 -41 -4 -30 -9 13 -11 12 -11 -5 0 -11 -6 -29
-14 -40 -7 -11 -12 -28 -10 -37 1 -10 -1 -18 -6 -18 -8 0 -23 -38 -21 -52 1
-5 -3 -8 -7 -8 -5 0 -9 -6 -10 -12 -2 -31 -13 -63 -22 -66 -6 -2 -6 -10 0 -23
8 -15 7 -17 -5 -13 -11 5 -17 -3 -22 -27 -4 -19 -7 -42 -7 -51 1 -10 -3 -15
-7 -12 -8 5 -13 -10 -10 -29 1 -4 -7 -3 -18 2 -20 11 -24 -1 -8 -26 6 -9 3
-11 -7 -7 -11 4 -17 -3 -22 -23 -4 -15 -13 -36 -22 -45 -14 -17 -16 -17 -28 0
-12 15 -14 14 -26 -18 -7 -19 -11 -39 -10 -43 1 -5 -3 -5 -10 -1 -15 10 -42
15 -34 7 3 -3 -7 -27 -21 -55 -14 -27 -28 -47 -30 -44 -3 2 0 13 6 24 14 27
14 43 0 18 -9 -15 -13 -16 -20 -5 -12 20 -11 31 3 23 7 -4 8 -3 4 5 -10 16
-37 -5 -30 -23 3 -8 -2 -16 -11 -20 -9 -3 -18 0 -21 9 -4 8 -9 13 -13 11 -4
-3 -8 5 -8 16 -2 25 -22 40 -45 34 -29 -7 -30 11 -1 29 23 15 24 19 11 29 -8
6 -14 18 -12 26 1 8 5 28 7 43 4 19 1 30 -9 34 -7 3 -11 9 -8 15 4 5 -11 8
-35 5 -28 -3 -40 0 -38 7 2 6 19 11 37 11 25 0 35 5 41 22 6 17 5 23 -6 23 -8
0 -15 6 -15 13 -1 6 -7 -1 -15 -18 -12 -27 -13 -27 -14 -8 -1 14 9 29 24 39
17 11 25 25 25 46 0 26 2 29 15 18 8 -7 16 -10 16 -6 1 3 2 9 3 14 1 4 5 13
10 20 9 15 -2 31 -12 17 -4 -6 -13 -11 -21 -13 -11 -2 -10 3 4 24 9 14 13 24
7 20 -6 -3 -5 4 1 19 7 14 17 23 23 21 11 -4 51 80 46 97 -1 4 2 7 8 7 12 0
33 78 26 97 -4 8 -2 11 5 7 7 -4 9 0 5 14 -4 12 -2 23 5 28 8 5 10 3 4 -7 -5
-8 -4 -11 0 -6 5 4 10 17 12 28 2 11 10 33 18 49 25 48 16 48 -10 0 -21 -38
-24 -40 -19 -15 4 17 11 35 15 41 5 6 6 14 2 17 -3 4 0 7 8 7 12 0 12 2 0 9
-12 8 -13 12 -1 25 7 9 10 19 7 23 -7 6 20 63 29 63 4 0 4 -8 1 -17 -3 -10
-10 -33 -15 -50 -15 -46 -7 -41 20 15 46 94 80 134 158 181 43 26 51 26 92 1z
m1995 3 c3 -7 -4 -9 -19 -6 -13 4 -20 2 -15 -3 5 -5 14 -9 20 -9 7 0 13 -12
15 -27 2 -16 7 -28 12 -28 5 0 7 9 5 20 -3 15 1 19 18 16 16 -2 22 -10 21 -30
0 -15 5 -26 14 -26 7 0 10 -5 7 -11 -5 -7 -15 -4 -29 9 -11 11 -27 17 -34 15
-8 -3 -16 4 -19 17 -3 12 -11 19 -18 16 -17 -6 -27 34 -13 51 12 15 30 13 35
-4z m-4131 -38 c-21 -16 -14 -34 12 -30 9 1 11 0 5 -2 -7 -3 -13 -11 -13 -18
0 -8 -4 -17 -10 -20 -5 -3 -7 0 -4 9 4 10 -2 17 -19 21 -24 6 -25 7 -7 25 16
16 36 28 50 29 3 0 -3 -6 -14 -14z m-36 -5 c0 -5 -5 -10 -11 -10 -5 0 -7 5 -4
10 3 6 8 10 11 10 2 0 4 -4 4 -10z m310 -36 c0 -9 -43 -43 -55 -44 -5 0 2 11
15 24 24 24 40 32 40 20z m1654 -3 c3 -5 -1 -11 -9 -14 -9 -4 -12 -1 -8 9 6
16 10 17 17 5z m-1469 -61 c-3 -5 -11 -10 -16 -10 -6 0 -7 5 -4 10 3 6 11 10
16 10 6 0 7 -4 4 -10z m2725 -30 c3 -1 9 -2 14 -1 9 2 26 -18 26 -31 0 -13
-18 -9 -34 7 -8 8 -24 16 -35 18 -32 5 -35 14 -4 11 16 -1 30 -3 33 -4z m-215
-20 c3 -6 -1 -7 -9 -4 -18 7 -21 14 -7 14 6 0 13 -4 16 -10z m95 -9 c6 -12 6
-22 1 -26 -10 -6 -24 11 -27 33 -3 19 14 14 26 -7z m-2840 -1 c0 -5 -8 -10
-17 -10 -15 0 -16 2 -3 10 19 12 20 12 20 0z m2710 0 c0 -5 -4 -10 -9 -10 -6
0 -13 5 -16 10 -3 6 1 10 9 10 9 0 16 -4 16 -10z m100 -22 c0 -5 -6 -8 -14 -8
-8 0 -13 8 -11 18 2 9 4 19 4 22 2 7 21 -23 21 -32z m-2823 -4 c-3 -3 -12 -4
-19 -1 -8 3 -5 6 6 6 11 1 17 -2 13 -5z m168 -24 c3 -5 1 -10 -4 -10 -6 0 -11
5 -11 10 0 6 2 10 4 10 3 0 8 -4 11 -10z m-234 -24 c-10 -11 -9 -15 5 -18 14
-3 13 -6 -6 -23 l-22 -20 5 32 c6 36 16 57 24 49 3 -3 0 -12 -6 -20z m3275
-19 c4 -4 0 -7 -9 -7 -9 0 -18 4 -21 9 -7 10 20 9 30 -2z m-3226 -1 c0 -3 -4
-8 -10 -11 -5 -3 -10 -1 -10 4 0 6 5 11 10 11 6 0 10 -2 10 -4z m720 -11 c0
-8 -2 -15 -4 -15 -2 0 -6 7 -10 15 -3 8 -1 15 4 15 6 0 10 -7 10 -15z m-323
-27 c-3 -7 -5 -2 -5 12 0 14 2 19 5 13 2 -7 2 -19 0 -25z m2400 26 c-3 -3 -12
-4 -19 -1 -8 3 -5 6 6 6 11 1 17 -2 13 -5z m-2813 -32 c3 -5 -4 -16 -15 -25
-18 -16 -19 -16 -19 1 0 28 22 43 34 24z m330 -7 c-4 -8 -8 -15 -10 -15 -2 0
-4 7 -4 15 0 8 4 15 10 15 5 0 7 -7 4 -15z m2935 -15 c11 -24 11 -24 -3 -6 -9
11 -16 24 -16 30 0 12 5 7 19 -24z m-2673 -27 c-11 -11 -17 4 -9 23 7 18 8 18
11 1 2 -10 1 -21 -2 -24z m-540 5 c4 -6 3 -8 -3 -5 -5 3 -22 -1 -37 -9 -33
-16 -36 -17 -36 -6 0 10 38 30 57 31 6 1 15 -4 19 -11z m90 -10 c4 -7 3 -8 -4
-4 -7 4 -12 2 -12 -3 0 -16 -17 -13 -24 4 -7 18 29 21 40 3z m-251 -38 c-3 -5
-12 -10 -18 -10 -7 0 -6 4 3 10 19 12 23 12 15 0z m365 -60 c0 -5 -7 -7 -15
-4 -8 4 -15 8 -15 10 0 2 7 4 15 4 8 0 15 -4 15 -10z m260 -10 c0 -5 -7 -7
-15 -4 -8 4 -15 8 -15 10 0 2 7 4 15 4 8 0 15 -4 15 -10z m-650 -4 c0 -2 -8
-10 -17 -17 -16 -13 -17 -12 -4 4 13 16 21 21 21 13z m-48 -28 c-7 -7 -12 -8
-12 -2 0 14 12 26 19 19 2 -3 -1 -11 -7 -17z m278 -20 c0 -6 -6 -5 -15 2 -8 7
-15 14 -15 16 0 2 7 1 15 -2 8 -4 15 -11 15 -16z m248 -7 c3 -8 -1 -12 -9 -9
-7 2 -15 10 -17 17 -3 8 1 12 9 9 7 -2 15 -10 17 -17z m-473 -1 c3 -5 1 -10
-4 -10 -6 0 -11 5 -11 10 0 6 2 10 4 10 3 0 8 -4 11 -10z m119 -9 c3 -5 -8
-11 -24 -13 -17 -3 -30 -3 -30 -1 0 3 28 16 47 22 1 1 4 -3 7 -8z m2871 -1 c3
-5 1 -10 -4 -10 -6 0 -11 5 -11 10 0 6 2 10 4 10 3 0 8 -4 11 -10z m632 -12
c-3 -8 -6 -5 -6 6 -1 11 2 17 5 13 3 -3 4 -12 1 -19z m-3127 -18 c0 -5 -5 -10
-11 -10 -5 0 -7 5 -4 10 3 6 8 10 11 10 2 0 4 -4 4 -10z m135 -20 c3 -5 1 -10
-4 -10 -6 0 -11 5 -11 10 0 6 2 10 4 10 3 0 8 -4 11 -10z m3045 0 c0 -5 -2
-10 -4 -10 -3 0 -8 5 -11 10 -3 6 -1 10 4 10 6 0 11 -4 11 -10z m-3255 -10
c-3 -5 -12 -10 -18 -10 -7 0 -6 4 3 10 19 12 23 12 15 0z m-375 -64 c0 -2 -7
-7 -16 -10 -8 -3 -12 -2 -9 4 6 10 25 14 25 6z m1569 -43 c0 -33 -1 -35 -9
-15 -8 20 -4 52 6 52 2 0 4 -17 3 -37z m-1602 -5 c-3 -8 -6 -5 -6 6 -1 11 2
17 5 13 3 -3 4 -12 1 -19z m597 14 c3 -5 -1 -9 -9 -9 -8 0 -12 4 -9 9 3 4 7 8
9 8 2 0 6 -4 9 -8z m-619 -21 c3 -5 1 -12 -5 -16 -5 -3 -10 1 -10 9 0 18 6 21
15 7z m2972 -13 c-3 -8 -6 -5 -6 6 -1 11 2 17 5 13 3 -3 4 -12 1 -19z m-2685
-120 c-8 -8 -9 -4 -5 13 4 13 8 18 11 10 2 -7 -1 -18 -6 -23z m-52 16 c0 -8
-19 -13 -24 -6 -3 5 1 9 9 9 8 0 15 -2 15 -3z m-53 -26 c-3 -8 -6 -5 -6 6 -1
11 2 17 5 13 3 -3 4 -12 1 -19z m180 -20 c2 -17 0 -19 -7 -8 -5 8 -6 18 -4 22
8 12 10 10 11 -14z m3391 -13 c-3 -3 -9 2 -12 12 -6 14 -5 15 5 6 7 -7 10 -15
7 -18z m-1510 -15 c-12 -16 -23 -30 -25 -30 -7 0 12 37 25 48 24 19 24 15 0
-18z m-1698 10 c0 -5 -4 -10 -10 -10 -5 0 -10 5 -10 10 0 6 5 10 10 10 6 0 10
-4 10 -10z m1739 -23 c-6 -13 -20 -29 -32 -37 -21 -12 -21 -12 -7 6 44 58 56
67 39 31z m-2346 -42 c-3 -9 -8 -14 -10 -11 -3 3 -2 9 2 15 9 16 15 13 8 -4z
m784 -7 c-3 -8 -6 -5 -6 6 -1 11 2 17 5 13 3 -3 4 -12 1 -19z m3326 2 c3 -11
1 -18 -4 -14 -5 3 -9 12 -9 20 0 20 7 17 13 -6z m-2506 -21 c-11 -29 -12 -29
-15 -9 -3 18 10 38 25 40 1 0 -4 -14 -10 -31z m366 1 c3 -11 1 -18 -4 -14 -5
3 -9 12 -9 20 0 20 7 17 13 -6z m-303 -40 c38 -34 42 -40 24 -40 -13 0 -36 15
-53 35 -52 60 -37 62 29 5z m2266 -1 c19 -22 19 -22 -3 -8 -13 8 -23 17 -23
21 0 12 6 9 26 -13z m-3719 -4 c0 -8 -6 -15 -13 -15 -8 0 -11 6 -8 15 4 8 9
15 13 15 4 0 8 -7 8 -15z m2075 -2 c-12 -20 -43 -27 -35 -8 2 8 12 16 21 18
10 3 18 5 20 6 2 0 -1 -7 -6 -16z m-559 -33 c3 -11 1 -18 -4 -14 -5 3 -9 12
-9 20 0 20 7 17 13 -6z m2071 8 c-3 -4 -12 -8 -20 -8 -8 0 -13 4 -10 8 3 5 12
9 20 9 8 0 13 -4 10 -9z m-1529 -18 c-4 -6 -11 -8 -16 -5 -5 4 -9 1 -9 -4 0
-6 -5 -11 -11 -11 -8 0 -8 5 1 15 14 17 45 21 35 5z m-2045 -9 c0 -5 -7 -12
-16 -15 -14 -5 -15 -4 -4 9 14 17 20 19 20 6z m1597 -53 c-3 -8 -6 -5 -6 6 -1
11 2 17 5 13 3 -3 4 -12 1 -19z m-1617 -2 c0 -2 -7 -7 -16 -10 -8 -3 -12 -2
-9 4 6 10 25 14 25 6z m4297 -18 c-3 -8 -6 -5 -6 6 -1 11 2 17 5 13 3 -3 4
-12 1 -19z m-624 -5 c-7 -2 -19 -2 -25 0 -7 3 -2 5 12 5 14 0 19 -2 13 -5z
m-3673 -49 c0 -8 -4 -12 -10 -9 -5 3 -10 10 -10 16 0 5 5 9 10 9 6 0 10 -7 10
-16z m3680 2 c0 -2 -8 -10 -17 -17 -16 -13 -17 -12 -4 4 13 16 21 21 21 13z
m-43 -22 c-3 -3 -12 -4 -19 -1 -8 3 -5 6 6 6 11 1 17 -2 13 -5z"/>
<path d="M3238 4733 c7 -3 16 -2 19 1 4 3 -2 6 -13 5 -11 0 -14 -3 -6 -6z"/>
<path d="M3308 4733 c7 -3 16 -2 19 1 4 3 -2 6 -13 5 -11 0 -14 -3 -6 -6z"/>
<path d="M3390 4719 c0 -5 -4 -7 -10 -4 -5 3 -10 1 -10 -4 0 -16 16 -13 30 4
9 10 9 15 1 15 -6 0 -11 -5 -11 -11z"/>
<path d="M3225 4710 c4 -6 11 -8 16 -5 14 9 11 15 -7 15 -8 0 -12 -5 -9 -10z"/>
<path d="M3265 4709 c-4 -6 -5 -12 -2 -15 2 -3 7 2 10 11 7 17 1 20 -8 4z"/>
<path d="M3450 4710 c0 -5 5 -10 11 -10 5 0 7 5 4 10 -3 6 -8 10 -11 10 -2 0
-4 -4 -4 -10z"/>
<path d="M3310 4660 c0 -5 6 -10 14 -10 8 0 18 5 21 10 3 6 -3 10 -14 10 -12
0 -21 -4 -21 -10z"/>
<path d="M3238 4643 c7 -3 16 -2 19 1 4 3 -2 6 -13 5 -11 0 -14 -3 -6 -6z"/>
<path d="M4268 4408 c-29 -33 -36 -58 -17 -58 5 0 7 5 4 10 -3 6 1 10 9 10 9
0 16 -4 16 -10 0 -5 9 -2 20 7 12 10 16 21 11 27 -5 6 -10 19 -12 28 -3 14 -9
12 -31 -14z"/>
<path d="M4220 4259 c0 -5 5 -7 10 -4 6 3 10 8 10 11 0 2 -4 4 -10 4 -5 0 -10
-5 -10 -11z"/>
<path d="M4080 4230 c-9 -6 -10 -10 -3 -10 6 0 15 5 18 10 8 12 4 12 -15 0z"/>
<path d="M3888 4413 c7 -3 16 -2 19 1 4 3 -2 6 -13 5 -11 0 -14 -3 -6 -6z"/>
<path d="M1713 4285 c-3 -9 -3 -18 -1 -21 3 -3 8 4 11 16 6 23 -1 27 -10 5z"/>
<path d="M4690 4301 c0 -17 18 -21 24 -6 3 9 0 15 -9 15 -8 0 -15 -4 -15 -9z"/>
<path d="M311 3894 c0 -11 3 -14 6 -6 3 7 2 16 -1 19 -3 4 -6 -2 -5 -13z"/>
<path d="M246 3575 c-4 -13 -2 -14 14 -5 23 13 26 20 6 20 -8 0 -16 -7 -20
-15z"/>
<path d="M4756 4093 c-4 -9 -2 -21 4 -27 7 -7 10 -2 10 17 0 31 -5 34 -14 10z"/>
<path d="M4780 4075 c0 -8 4 -15 10 -15 5 0 7 7 4 15 -4 8 -8 15 -10 15 -2 0
-4 -7 -4 -15z"/>
<path d="M4712 3963 c2 -9 9 -18 16 -21 18 -6 15 25 -4 32 -11 4 -14 1 -12
-11z"/>
<path d="M4693 3817 c5 -15 29 -16 34 -2 2 6 -6 11 -18 12 -12 1 -19 -3 -16
-10z"/>
<path d="M4730 3790 c0 -5 5 -10 10 -10 6 0 10 5 10 10 0 6 -4 10 -10 10 -5 0
-10 -4 -10 -10z"/>
<path d="M3520 4079 c0 -5 5 -7 10 -4 6 3 10 8 10 11 0 2 -4 4 -10 4 -5 0 -10
-5 -10 -11z"/>
<path d="M3825 3850 c-3 -5 1 -10 10 -10 9 0 13 5 10 10 -3 6 -8 10 -10 10 -2
0 -7 -4 -10 -10z"/>
<path d="M3870 3828 c0 -4 4 -8 9 -8 6 0 12 4 15 8 3 5 -1 9 -9 9 -8 0 -15 -4
-15 -9z"/>
<path d="M3930 3829 c0 -5 5 -7 10 -4 6 3 10 8 10 11 0 2 -4 4 -10 4 -5 0 -10
-5 -10 -11z"/>
<path d="M3976 3825 c4 -8 7 -15 9 -15 2 0 5 7 9 15 3 9 0 15 -9 15 -9 0 -12
-6 -9 -15z"/>
<path d="M4126 3833 c-11 -11 -6 -23 9 -23 8 0 15 4 15 9 0 13 -16 22 -24 14z"/>
<path d="M4030 3795 c0 -7 30 -13 34 -7 3 4 -4 9 -15 9 -10 1 -19 0 -19 -2z"/>
<path d="M4098 3793 c7 -3 16 -2 19 1 4 3 -2 6 -13 5 -11 0 -14 -3 -6 -6z"/>
<path d="M4161 3793 c-1 -6 -4 -20 -7 -30 -5 -17 -5 -17 6 0 6 10 9 23 6 30
-3 9 -5 9 -5 0z"/>
<path d="M4122 3774 c-7 -8 -8 -14 -3 -14 10 0 25 19 20 25 -2 1 -10 -3 -17
-11z"/>
<path d="M3664 3751 c-4 -9 -6 -20 -5 -24 1 -5 -8 -11 -19 -14 -11 -3 -20 -12
-20 -20 0 -12 3 -11 16 2 10 9 25 14 36 12 10 -3 15 -1 12 4 -3 5 1 12 9 15
19 7 17 32 -4 37 -10 3 -21 -2 -25 -12z"/>
<path d="M4210 3756 c0 -2 7 -6 15 -10 8 -3 15 -1 15 4 0 6 -7 10 -15 10 -8 0
-15 -2 -15 -4z"/>
<path d="M4250 3743 c0 -13 5 -23 10 -23 13 0 13 11 0 30 -8 12 -10 11 -10 -7z"/>
<path d="M4030 3731 c0 -6 5 -11 11 -11 5 0 7 -5 3 -11 -4 -8 0 -8 15 0 11 7
21 14 21 17 0 3 -5 2 -10 -1 -6 -4 -17 -1 -25 5 -11 9 -15 9 -15 1z"/>
<path d="M3790 3726 c0 -2 7 -9 15 -16 9 -7 15 -8 15 -2 0 5 -7 12 -15 16 -8
3 -15 4 -15 2z"/>
<path d="M4155 3720 c-3 -5 -1 -10 4 -10 6 0 11 5 11 10 0 6 -2 10 -4 10 -3 0
-8 -4 -11 -10z"/>
<path d="M3586 3703 c-6 -14 -5 -15 5 -6 7 7 10 15 7 18 -3 3 -9 -2 -12 -12z"/>
<path d="M3720 3702 c-13 -14 -12 -15 2 -9 9 3 19 1 22 -6 2 -7 5 -5 5 5 1 24
-12 29 -29 10z"/>
<path d="M4095 3710 c-3 -5 -1 -10 4 -10 6 0 11 5 11 10 0 6 -2 10 -4 10 -3 0
-8 -4 -11 -10z"/>
<path d="M4233 3699 c-38 -11 -45 -22 -8 -13 16 4 30 0 41 -10 9 -10 19 -14
23 -11 3 4 -2 12 -11 19 -10 7 -15 16 -11 19 7 8 8 8 -34 -4z"/>
<path d="M4285 3700 c-3 -5 -1 -10 4 -10 6 0 11 5 11 10 0 6 -2 10 -4 10 -3 0
-8 -4 -11 -10z"/>
<path d="M4092 3676 c7 -8 15 -12 17 -11 5 6 -10 25 -20 25 -5 0 -4 -6 3 -14z"/>
<path d="M4200 3640 c-12 -7 -10 -9 8 -7 12 0 22 5 22 9 0 11 -12 10 -30 -2z"/>
<path d="M3562 3605 c-7 -8 -9 -15 -4 -15 5 0 15 7 22 15 16 19 -1 19 -18 0z"/>
<path d="M4901 3694 c0 -11 3 -14 6 -6 3 7 2 16 -1 19 -3 4 -6 -2 -5 -13z"/>
<path d="M2705 3920 c-3 -5 -1 -10 4 -10 6 0 11 5 11 10 0 6 -2 10 -4 10 -3 0
-8 -4 -11 -10z"/>
<path d="M4412 2900 c0 -14 2 -19 5 -12 2 6 2 18 0 25 -3 6 -5 1 -5 -13z"/>
<path d="M4901 3134 c0 -11 3 -14 6 -6 3 7 2 16 -1 19 -3 4 -6 -2 -5 -13z"/>
<path d="M1170 2740 c0 -5 5 -10 11 -10 5 0 7 5 4 10 -3 6 -8 10 -11 10 -2 0
-4 -4 -4 -10z"/>
<path d="M4240 1625 c-7 -9 -8 -15 -2 -15 5 0 12 7 16 15 3 8 4 15 2 15 -2 0
-9 -7 -16 -15z"/>
<path d="M4263 1608 c-21 -28 -22 -36 -5 -34 9 0 20 6 24 11 11 14 10 35 -1
35 -5 0 -13 -6 -18 -12z"/>
<path d="M2270 1380 c0 -5 5 -10 11 -10 5 0 7 5 4 10 -3 6 -8 10 -11 10 -2 0
-4 -4 -4 -10z"/>
<path d="M2191 1164 c0 -11 3 -14 6 -6 3 7 2 16 -1 19 -3 4 -6 -2 -5 -13z"/>
<path d="M1891 211 c-8 -6 -9 -11 -3 -15 6 -3 14 -1 17 5 9 14 2 20 -14 10z"/>
<path d="M1032 5104 c-1 -12 -4 -37 -7 -55 -5 -31 -5 -32 5 -9 6 13 9 38 7 55
-2 18 -4 21 -5 9z"/>
<path d="M1173 5089 c-3 -17 -12 -33 -19 -36 -8 -3 -14 -9 -14 -15 0 -5 5 -6
10 -3 6 3 10 -1 10 -10 0 -33 26 9 33 53 8 49 -10 60 -20 11z"/>
<path d="M1278 5112 c7 -5 10 -17 6 -28 -5 -16 -4 -16 5 -4 16 22 13 40 -6 40
-13 0 -15 -2 -5 -8z"/>
<path d="M1410 5109 c0 -5 5 -7 10 -4 6 3 10 8 10 11 0 2 -4 4 -10 4 -5 0 -10
-5 -10 -11z"/>
<path d="M1647 5083 c4 -21 7 -63 7 -93 -1 -36 2 -48 7 -35 7 18 8 18 9 -5 2
-18 4 -14 10 15 5 22 4 44 -1 50 -5 5 -9 31 -9 57 0 37 -4 48 -15 48 -13 0
-14 -7 -8 -37z"/>
<path d="M1380 5080 c-9 -6 -10 -10 -3 -10 6 0 15 5 18 10 8 12 4 12 -15 0z"/>
<path d="M1602 5045 c-1 -16 3 -48 7 -70 11 -53 12 -5 2 55 -6 34 -9 37 -9 15z"/>
<path d="M1381 5034 c0 -11 3 -14 6 -6 3 7 2 16 -1 19 -3 4 -6 -2 -5 -13z"/>
<path d="M1630 5029 c0 -5 5 -7 10 -4 6 3 10 8 10 11 0 2 -4 4 -10 4 -5 0 -10
-5 -10 -11z"/>
<path d="M4008 5019 c-15 -16 -15 -18 -1 -24 9 -3 20 0 25 7 18 30 1 43 -24
17z"/>
<path d="M1426 4983 c-6 -14 -5 -15 5 -6 7 7 10 15 7 18 -3 3 -9 -2 -12 -12z"/>
<path d="M1641 4914 c0 -11 3 -14 6 -6 3 7 2 16 -1 19 -3 4 -6 -2 -5 -13z"/>
<path d="M1000 4880 c0 -5 5 -10 10 -10 6 0 11 -15 11 -32 0 -18 2 -70 5 -115
5 -68 3 -86 -10 -99 -9 -8 -14 -19 -11 -24 3 -4 -1 -10 -9 -13 -17 -7 -24 -36
-15 -67 6 -22 7 -22 8 -4 1 12 11 32 24 46 24 26 24 29 27 184 1 60 -3 111 -9
123 -12 22 -31 29 -31 11z"/>
<path d="M4770 4873 c0 -14 -2 -15 -9 -4 -13 21 -22 -2 -25 -63 -2 -49 -1 -53
20 -50 13 1 28 -4 34 -11 12 -15 50 -8 47 8 -1 7 10 10 28 9 20 -2 41 5 59 19
31 24 24 42 -18 42 -14 0 -26 3 -26 8 0 5 -9 9 -20 9 -13 0 -20 -7 -20 -20 0
-11 -6 -20 -13 -20 -14 0 -43 58 -39 78 2 6 -2 12 -8 12 -5 0 -10 -8 -10 -17z"/>
<path d="M1111 4854 c0 -11 3 -14 6 -6 3 7 2 16 -1 19 -3 4 -6 -2 -5 -13z"/>
<path d="M1148 4845 c-10 -13 -18 -27 -18 -31 0 -4 -7 -16 -17 -26 -9 -10 -14
-21 -11 -24 7 -6 78 84 78 97 0 16 -15 9 -32 -16z"/>
<path d="M1435 4840 c-3 -5 -1 -10 4 -10 6 0 11 5 11 10 0 6 -2 10 -4 10 -3 0
-8 -4 -11 -10z"/>
<path d="M4970 4828 c0 -5 1 -10 3 -12 1 -2 -7 -14 -18 -26 l-20 -23 20 11
c11 6 30 22 43 36 l22 24 -25 -2 c-14 0 -25 -4 -25 -8z"/>
<path d="M1490 4802 c0 -18 5 -32 10 -32 6 0 8 11 4 28 -10 39 -14 40 -14 4z"/>
<path d="M1880 4810 c0 -11 2 -20 4 -20 2 0 6 9 9 20 3 11 1 20 -4 20 -5 0 -9
-9 -9 -20z"/>
<path d="M5016 4795 c-9 -26 -7 -32 5 -12 6 10 9 21 6 23 -2 3 -7 -2 -11 -11z"/>
<path d="M1060 4726 c0 -38 2 -67 4 -65 10 10 14 105 6 119 -7 10 -10 -7 -10
-54z"/>
<path d="M1176 4724 c-9 -23 -8 -23 19 -11 30 14 33 27 6 27 -10 0 -22 -7 -25
-16z"/>
<path d="M931 4644 c0 -11 3 -14 6 -6 3 7 2 16 -1 19 -3 4 -6 -2 -5 -13z"/>
<path d="M1116 4615 c-3 -9 -6 -22 -5 -28 0 -7 5 -1 10 12 5 13 8 26 5 28 -2
2 -6 -3 -10 -12z"/>
<path d="M1066 4604 c-10 -25 1 -29 14 -5 6 12 7 21 1 21 -5 0 -12 -7 -15 -16z"/>
<path d="M1392 4570 c0 -19 2 -27 5 -17 2 9 2 25 0 35 -3 9 -5 1 -5 -18z"/>
<path d="M1257 4559 c7 -7 15 -10 18 -7 3 3 -2 9 -12 12 -14 6 -15 5 -6 -5z"/>
<path d="M1391 4504 c0 -11 3 -14 6 -6 3 7 2 16 -1 19 -3 4 -6 -2 -5 -13z"/>
<path d="M1276 4462 c-3 -5 -10 -21 -15 -35 -10 -25 -9 -26 9 -15 11 7 22 19
25 27 7 17 -10 37 -19 23z m5 -25 c-10 -9 -11 -8 -5 6 3 10 9 15 12 12 3 -3 0
-11 -7 -18z"/>
<path d="M1371 4352 c-7 -13 -11 -26 -8 -28 8 -8 29 25 25 38 -3 8 -9 4 -17
-10z"/>
<path d="M1568 4315 c2 -19 6 -35 8 -35 2 0 4 16 4 35 0 19 -4 35 -8 35 -4 0
-6 -16 -4 -35z"/>
<path d="M1204 4326 c-10 -8 -16 -17 -13 -20 3 -3 14 1 25 8 10 8 16 17 13 20
-3 3 -14 -1 -25 -8z"/>
<path d="M1586 4206 c2 -32 5 -68 5 -80 1 -12 5 -1 9 24 4 25 4 47 -1 50 -4 3
-9 19 -12 35 -2 17 -3 3 -1 -29z"/>
<path d="M1426 4195 c-3 -8 -1 -15 4 -15 6 0 10 7 10 15 0 8 -2 15 -4 15 -2 0
-6 -7 -10 -15z"/>
<path d="M950 4080 c0 -5 5 -10 10 -10 6 0 10 5 10 10 0 6 -4 10 -10 10 -5 0
-10 -4 -10 -10z"/>
<path d="M1677 4025 c-4 -8 -3 -16 1 -19 4 -3 9 4 9 15 2 23 -3 25 -10 4z"/>
<path d="M1661 3964 c0 -11 3 -14 6 -6 3 7 2 16 -1 19 -3 4 -6 -2 -5 -13z"/>
<path d="M1443 3853 c9 -2 23 -2 30 0 6 3 -1 5 -18 5 -16 0 -22 -2 -12 -5z"/>
<path d="M1413 3803 c9 -2 25 -2 35 0 9 3 1 5 -18 5 -19 0 -27 -2 -17 -5z"/>
<path d="M877 3765 c-20 -14 -37 -31 -37 -37 0 -7 15 1 33 18 17 16 36 32 42
36 21 18 -3 6 -38 -17z"/>
<path d="M1730 3766 c0 -8 5 -18 10 -21 6 -3 10 1 10 9 0 8 -4 18 -10 21 -5 3
-10 -1 -10 -9z"/>
<path d="M2195 3720 c-3 -4 2 -7 11 -6 11 0 18 -8 20 -24 1 -14 0 -19 -2 -12
-9 19 -24 4 -24 -24 0 -22 3 -24 23 -18 27 8 25 6 27 24 7 48 0 68 -25 68 -14
0 -27 -4 -30 -8z"/>
<path d="M1812 3619 c2 -6 8 -10 13 -10 5 0 11 4 13 10 2 6 -4 11 -13 11 -9 0
-15 -5 -13 -11z"/>
<path d="M1880 3590 c-9 -6 -10 -10 -3 -10 6 0 15 5 18 10 8 12 4 12 -15 0z"/>
<path d="M705 3580 c-3 -5 -8 -20 -10 -32 -4 -22 -4 -22 10 -4 14 19 20 46 11
46 -3 0 -8 -4 -11 -10z"/>
<path d="M1460 3460 c0 -5 7 -7 15 -4 8 4 15 8 15 10 0 2 -7 4 -15 4 -8 0 -15
-4 -15 -10z"/>
<path d="M4684 1765 c9 -60 55 -268 61 -273 3 -3 5 8 5 25 0 42 19 93 35 93 8
0 11 8 8 20 -3 11 -12 20 -19 20 -8 0 -14 5 -14 12 0 6 -3 8 -6 5 -15 -15 -44
15 -44 46 -1 18 -8 43 -16 57 l-15 25 5 -30z"/>
<path d="M4825 1560 c-4 -17 -5 -31 -4 -32 1 -2 -3 -14 -10 -27 -17 -30 -21
-101 -7 -101 6 0 4 -5 -4 -11 -12 -8 -12 -10 -1 -7 10 3 14 18 14 49 -1 46 23
110 43 116 7 2 19 -3 28 -12 9 -9 16 -13 16 -8 0 13 -17 35 -26 34 -5 -1 -17
5 -26 13 -15 13 -17 12 -23 -14z"/>
<path d="M4658 1503 c-16 -2 -28 -9 -28 -14 0 -13 12 -11 51 6 34 14 29 16
-23 8z"/>
<path d="M4889 1473 c-16 -50 -21 -143 -7 -143 6 0 8 10 5 22 -4 12 -1 28 5
35 6 7 8 13 4 13 -4 0 0 13 9 30 11 21 20 27 32 23 12 -5 10 1 -7 25 -13 18
-25 32 -26 32 -1 0 -8 -17 -15 -37z"/>
<path d="M5082 1451 c-6 -4 -14 -33 -17 -65 -3 -32 -14 -75 -24 -95 -10 -20
-16 -42 -13 -50 3 -9 0 -11 -8 -6 -8 5 -11 4 -6 -3 3 -6 2 -13 -4 -17 -6 -4
-7 -12 -3 -18 11 -18 10 -71 -2 -79 -6 -5 -6 -8 3 -8 6 0 12 -7 12 -15 0 -8 3
-15 8 -15 4 0 7 33 7 74 0 62 4 79 26 112 15 21 30 62 34 89 4 28 8 60 10 72
4 26 -5 35 -23 24z"/>
<path d="M4971 1377 c-13 -20 -33 -87 -26 -87 2 0 14 20 28 44 25 45 23 84 -2
43z"/>
<path d="M4868 1313 c7 -3 16 -2 19 1 4 3 -2 6 -13 5 -11 0 -14 -3 -6 -6z"/>
<path d="M4868 1293 c6 -2 10 -8 8 -12 -3 -4 4 -20 16 -37 11 -16 17 -21 14
-11 -3 11 -9 30 -12 43 -4 14 -13 24 -23 23 -10 0 -11 -2 -3 -6z"/>
<path d="M4927 1239 c7 -7 15 -10 18 -7 3 3 -2 9 -12 12 -14 6 -15 5 -6 -5z"/>
<path d="M4750 1190 c13 -24 17 -25 17 -5 0 8 -6 16 -14 19 -11 4 -11 1 -3
-14z"/>
<path d="M5104 1138 c-10 -45 -8 -78 5 -78 4 0 9 27 10 60 1 33 0 60 -2 60 -2
0 -8 -19 -13 -42z"/>
<path d="M4958 1135 c2 -14 8 -25 12 -25 4 0 5 11 2 25 -2 14 -8 25 -12 25 -4
0 -5 -11 -2 -25z"/>
<path d="M3260 1040 c0 -5 5 -10 11 -10 5 0 7 5 4 10 -3 6 -8 10 -11 10 -2 0
-4 -4 -4 -10z"/>
<path d="M5040 1030 c6 -11 12 -20 14 -20 2 0 2 9 -1 20 -3 11 -9 20 -15 20
-5 0 -4 -9 2 -20z"/>
<path d="M5099 1042 c11 -8 11 -10 0 -15 -10 -4 -8 -6 4 -6 21 -1 18 21 -4 27
-12 3 -12 2 0 -6z"/>
<path d="M3360 1021 c0 -4 10 -12 23 -20 19 -13 21 -12 10 1 -7 8 -11 17 -8
20 3 2 -2 5 -10 5 -8 0 -15 -3 -15 -6z"/>
<path d="M4920 1009 c0 -5 5 -7 10 -4 6 3 10 8 10 11 0 2 -4 4 -10 4 -5 0 -10
-5 -10 -11z"/>
<path d="M5088 1004 c6 -3 10 -10 6 -15 -3 -5 1 -9 8 -9 11 0 10 -2 0 -9 -11
-7 -11 -9 1 -14 10 -4 13 2 12 21 -1 19 -7 28 -21 29 -10 2 -13 0 -6 -3z"/>
<path d="M3210 951 c0 -5 7 -11 15 -15 8 -3 15 -1 15 3 0 5 -7 11 -15 15 -8 3
-15 1 -15 -3z"/>
<path d="M4835 931 c-11 -5 -23 -7 -26 -5 -3 2 -6 -3 -6 -11 0 -8 3 -12 7 -10
3 2 6 -12 6 -30 0 -19 -2 -32 -5 -30 -4 5 -30 -25 -31 -37 0 -9 28 -4 39 8 5
5 11 20 13 34 2 14 10 25 18 25 10 0 16 11 17 33 1 34 0 35 -32 23z m22 -23
c0 -13 -1 -17 -4 -10 -3 6 -9 10 -14 6 -5 -3 -9 -1 -9 5 0 5 6 12 13 14 6 3
12 6 12 6 1 1 1 -9 2 -21z"/>
<path d="M5040 881 c0 -13 -8 -21 -22 -23 -22 -3 -22 -3 4 -15 24 -11 26 -10
30 18 3 16 1 32 -4 35 -4 3 -8 -4 -8 -15z"/>
<path d="M5070 865 c-11 -13 -10 -14 4 -9 9 3 16 10 16 15 0 13 -6 11 -20 -6z"/>
<path d="M4855 850 c-3 -6 1 -7 9 -4 18 7 21 14 7 14 -6 0 -13 -4 -16 -10z"/>
<path d="M4740 821 c0 -6 4 -12 8 -15 5 -3 9 1 9 9 0 8 -4 15 -9 15 -4 0 -8
-4 -8 -9z"/>
<path d="M5060 814 c0 -8 5 -12 10 -9 6 4 8 11 5 16 -9 14 -15 11 -15 -7z"/>
<path d="M4752 770 c14 -22 24 -19 15 5 -4 8 -11 15 -17 15 -6 0 -6 -7 2 -20z"/>
<path d="M4825 751 c-3 -5 -1 -12 5 -16 5 -3 10 1 10 9 0 18 -6 21 -15 7z"/>
<path d="M5100 731 c0 -6 5 -13 10 -16 6 -3 10 1 10 9 0 9 -4 16 -10 16 -5 0
-10 -4 -10 -9z"/>
<path d="M3520 720 c0 -5 5 -10 11 -10 5 0 7 5 4 10 -3 6 -8 10 -11 10 -2 0
-4 -4 -4 -10z"/>
<path d="M4744 703 c1 -14 7 -28 14 -29 7 -1 9 0 4 2 -5 3 -7 16 -4 29 2 14 0
25 -5 25 -6 0 -10 -12 -9 -27z"/>
<path d="M4820 710 c13 -23 20 -26 20 -6 0 8 -7 16 -15 20 -13 4 -14 2 -5 -14z"/>
<path d="M5040 706 c0 -3 4 -16 10 -30 6 -17 6 -26 0 -26 -6 0 -10 7 -10 15 0
8 -5 15 -11 15 -6 0 -9 -10 -7 -22 2 -13 6 -21 9 -18 4 3 16 -4 28 -14 12 -11
21 -14 21 -8 0 7 -5 12 -11 12 -5 0 -7 5 -4 10 4 6 10 8 15 5 9 -6 40 21 40
36 0 5 -8 9 -17 9 -14 0 -15 -2 -5 -9 11 -7 10 -10 -3 -15 -22 -8 -35 1 -35
25 0 10 -4 19 -10 19 -5 0 -10 -2 -10 -4z"/>
<path d="M4670 670 c-13 -8 -12 -10 3 -10 9 0 17 5 17 10 0 12 -1 12 -20 0z"/>
<path d="M3170 630 c0 -5 5 -10 11 -10 5 0 7 5 4 10 -3 6 -8 10 -11 10 -2 0
-4 -4 -4 -10z"/>
<path d="M4990 630 c-13 -8 -13 -10 2 -10 9 0 20 5 23 10 8 13 -5 13 -25 0z"/>
<path d="M4880 620 c-13 -8 -12 -10 3 -10 10 0 16 -4 13 -8 -2 -4 4 -8 15 -8
11 0 18 4 16 9 -1 5 -6 8 -11 7 -5 -1 -12 3 -15 9 -4 6 -12 7 -21 1z"/>
<path d="M4970 600 c0 -5 5 -10 11 -10 5 0 7 5 4 10 -3 6 -8 10 -11 10 -2 0
-4 -4 -4 -10z"/>
<path d="M5090 579 c0 -5 5 -7 10 -4 6 3 10 8 10 11 0 2 -4 4 -10 4 -5 0 -10
-5 -10 -11z"/>
<path d="M5015 530 c-5 -14 -10 -18 -14 -11 -10 15 -58 10 -58 -6 0 -9 5 -9
20 -1 16 8 23 7 32 -5 10 -14 13 -14 27 2 9 11 12 24 8 31 -6 9 -10 6 -15 -10z"/>
<path d="M5110 525 c0 -8 -4 -15 -10 -15 -5 0 -9 -3 -9 -7 1 -5 1 -10 -1 -13
-1 -3 -3 -16 -6 -29 -4 -23 -3 -24 14 -8 16 15 30 87 17 87 -3 0 -5 -7 -5 -15z"/>
<path d="M4763 503 c9 -2 23 -2 30 0 6 3 -1 5 -18 5 -16 0 -22 -2 -12 -5z"/>
<path d="M4805 481 c-3 -6 5 -15 17 -21 21 -10 21 -10 6 3 -10 8 -15 17 -11
20 3 4 4 7 0 7 -3 0 -8 -4 -12 -9z"/>
<path d="M4957 469 c7 -7 15 -10 18 -7 3 3 -2 9 -12 12 -14 6 -15 5 -6 -5z"/>
<path d="M4758 463 c7 -3 16 -2 19 1 4 3 -2 6 -13 5 -11 0 -14 -3 -6 -6z"/>
<path d="M4997 464 c-3 -3 -3 -12 0 -20 3 -8 0 -14 -6 -14 -6 0 -11 -4 -11
-10 0 -19 19 -10 26 13 4 12 12 25 18 29 7 5 5 8 -5 8 -9 0 -18 -3 -22 -6z"/>
<path d="M4871 444 c0 -11 3 -14 6 -6 3 7 2 16 -1 19 -3 4 -6 -2 -5 -13z"/>
<path d="M5041 437 c-8 -10 -7 -14 4 -14 8 0 12 4 9 8 -2 4 2 10 8 12 8 4 9 6
2 6 -6 1 -17 -5 -23 -12z"/>
<path d="M4825 420 c-3 -6 1 -7 9 -4 18 7 21 14 7 14 -6 0 -13 -4 -16 -10z"/>
<path d="M4884 420 c-12 -5 -25 -14 -29 -20 -4 -7 7 -4 24 4 17 9 31 19 31 21
0 6 1 6 -26 -5z"/>
<path d="M5076 412 c-2 -4 2 -15 9 -25 10 -13 14 -15 18 -5 8 26 -14 51 -27
30z"/>
<path d="M3111 394 c0 -11 3 -14 6 -6 3 7 2 16 -1 19 -3 4 -6 -2 -5 -13z"/>
<path d="M4936 395 c-3 -8 -2 -15 3 -15 5 0 14 7 21 15 10 12 10 15 -3 15 -8
0 -17 -7 -21 -15z"/>
<path d="M4750 378 c0 -4 4 -8 9 -8 6 0 12 4 15 8 3 5 -1 9 -9 9 -8 0 -15 -4
-15 -9z"/>
<path d="M4810 380 c-9 -6 -10 -10 -3 -10 6 0 15 5 18 10 8 12 4 12 -15 0z"/>
<path d="M4896 378 c5 -7 2 -9 -8 -6 -8 4 -15 1 -15 -7 0 -7 8 -10 19 -7 25 6
31 19 12 26 -10 4 -13 2 -8 -6z"/>
<path d="M5002 357 c-7 -8 -7 -18 -2 -27 9 -13 10 -13 11 0 1 8 1 20 0 25 -1
6 5 2 13 -8 14 -18 15 -18 26 2 9 19 8 21 -13 21 -14 0 -29 -6 -35 -13z"/>
<path d="M5080 341 c-13 -25 -13 -31 0 -31 6 0 9 3 9 8 -4 21 3 31 16 26 8 -4
15 -1 15 5 0 18 -29 12 -40 -8z"/>
<path d="M4990 300 c-8 -5 -18 -6 -22 -4 -4 3 -5 -2 -2 -10 3 -9 10 -16 16
-16 5 0 6 -4 3 -10 -11 -17 7 -11 21 8 12 16 12 16 11 -2 -1 -10 5 -21 13 -23
13 -4 13 -3 0 6 -13 9 -12 13 8 26 23 17 29 35 11 35 -5 0 -8 -4 -4 -9 10 -17
-18 -25 -30 -8 -7 10 -16 13 -25 7z"/>
<path d="M5090 300 c-12 -8 -10 -10 8 -10 13 0 20 4 17 10 -7 12 -6 12 -25 0z"/>
<path d="M4845 290 c-3 -6 1 -7 9 -4 18 7 21 14 7 14 -6 0 -13 -4 -16 -10z"/>
<path d="M5070 264 c0 -8 5 -12 10 -9 6 3 10 10 10 16 0 5 -4 9 -10 9 -5 0
-10 -7 -10 -16z"/>
<path d="M4910 260 c-13 -8 -12 -10 3 -10 9 0 17 5 17 10 0 12 -1 12 -20 0z"/>
<path d="M4830 250 c0 -5 5 -10 11 -10 5 0 7 5 4 10 -3 6 -8 10 -11 10 -2 0
-4 -4 -4 -10z"/>
<path d="M4941 234 c0 -11 3 -14 6 -6 3 7 2 16 -1 19 -3 4 -6 -2 -5 -13z"/>
<path d="M3135 229 c-4 -6 -5 -12 -2 -15 2 -3 7 2 10 11 7 17 1 20 -8 4z"/>
<path d="M5040 170 c-9 -6 -10 -10 -3 -10 6 0 15 5 18 10 8 12 4 12 -15 0z"/>
<path d="M4875 120 c-3 -5 -1 -10 4 -10 6 0 11 5 11 10 0 6 -2 10 -4 10 -3 0
-8 -4 -11 -10z"/>
<path d="M5080 99 c0 -5 5 -7 10 -4 6 3 10 8 10 11 0 2 -4 4 -10 4 -5 0 -10
-5 -10 -11z"/>
<path d="M3635 91 c-3 -5 -2 -12 3 -15 5 -3 9 1 9 9 0 17 -3 19 -12 6z"/>
<path d="M4963 90 c2 -8 10 -15 17 -15 7 0 15 7 17 15 4 13 3 13 -6 0 -10 -13
-12 -13 -22 0 -9 13 -10 13 -6 0z"/>
<path d="M4913 74 c4 -4 1 -14 -6 -23 -11 -14 -10 -15 8 -1 11 8 21 15 23 16
2 1 -5 5 -15 8 -9 4 -14 4 -10 0z"/>
<path d="M5097 69 c7 -7 15 -10 18 -7 3 3 -2 9 -12 12 -14 6 -15 5 -6 -5z"/>
<path d="M4985 40 c3 -5 11 -10 16 -10 6 0 7 5 4 10 -3 6 -11 10 -16 10 -6 0
-7 -4 -4 -10z"/>
<path d="M3020 21 c0 -16 8 -19 50 -19 54 0 65 13 24 28 -42 16 -74 13 -74 -9z"/>
<path d="M3126 32 c-3 -6 -1 -14 5 -17 14 -9 20 -2 10 14 -6 8 -11 9 -15 3z"/>
<path d="M4955 10 c3 -5 18 -10 32 -10 32 0 28 5 -10 14 -19 4 -26 3 -22 -4z"/>
<path d="M5030 10 c20 -13 33 -13 25 0 -3 5 -14 10 -23 10 -15 0 -15 -2 -2
-10z"/>
</g>
</svg>
